<svg xmlns="http://www.w3.org/2000/svg" width="550" height="120" viewBox="0 0 550 120"><rect width="100%" height="100%" fill="#DDDDDD"/><path fill="#999999" d="M144.71 38.685h8.1v43.38h-8.1v-18.96h-20.37v18.96h-8.1v-43.38h8.1v18.66h20.37v-18.66Zm22.44 24.45h13.98q0-1.44-.4-2.71-.41-1.28-1.22-2.24-.81-.96-2.05-1.51-1.25-.56-2.9-.56-3.21 0-5.05 1.83-1.85 1.83-2.36 5.19Zm18.9 4.47H167q.18 2.37.84 4.09.66 1.73 1.74 2.86 1.08 1.12 2.57 1.68 1.48.55 3.28.55 1.8 0 3.11-.42 1.3-.42 2.28-.93.97-.51 1.71-.93.73-.42 1.42-.42.93 0 1.38.69l2.13 2.7q-1.23 1.44-2.76 2.42-1.53.97-3.19 1.56-1.67.58-3.39.82-1.73.24-3.35.24-3.21 0-5.97-1.06-2.76-1.07-4.8-3.15-2.04-2.09-3.21-5.16-1.17-3.08-1.17-7.13 0-3.15 1.02-5.92 1.02-2.78 2.93-4.83 1.9-2.06 4.65-3.26 2.74-1.2 6.19-1.2 2.91 0 5.37.93t4.23 2.72q1.77 1.78 2.78 4.38 1 2.59 1 5.92 0 1.68-.36 2.27-.36.58-1.38.58Zm7.38-30.12h7.41v44.58h-7.41v-44.58Zm14.91 0h7.41v44.58h-7.41v-44.58Zm28.44 13.32q3.42 0 6.23 1.11 2.8 1.11 4.8 3.15 1.99 2.04 3.07 4.98 1.08 2.94 1.08 6.57 0 3.66-1.08 6.6-1.08 2.94-3.07 5.01-2 2.07-4.8 3.18-2.81 1.11-6.23 1.11-3.45 0-6.27-1.11-2.82-1.11-4.81-3.18-2-2.07-3.09-5.01-1.1-2.94-1.1-6.6 0-3.63 1.1-6.57 1.09-2.94 3.09-4.98 1.99-2.04 4.81-3.15 2.82-1.11 6.27-1.11Zm0 26.01q3.84 0 5.69-2.58 1.84-2.58 1.84-7.56 0-4.98-1.84-7.59-1.85-2.61-5.69-2.61-3.9 0-5.77 2.63-1.88 2.62-1.88 7.57t1.88 7.55q1.87 2.59 5.77 2.59Zm87.99-38.13h6.33l-13.47 43.38h-7.29l-9.48-29.64q-.39-1.08-.72-2.64-.18.75-.36 1.41-.18.66-.39 1.23l-9.57 29.64h-7.32l-13.44-43.38h6.75q1.05 0 1.76.5.7.49.94 1.33l7.38 25.95q.24.96.47 2.09l.46 2.35q.24-1.26.53-2.37.28-1.11.61-2.07l8.52-25.95q.24-.69.95-1.26.7-.57 1.72-.57h2.37q1.05 0 1.71.51.66.51.99 1.32l8.49 25.95q.63 1.86 1.14 4.29.39-2.37.87-4.29l7.38-25.95q.18-.75.92-1.29.73-.54 1.75-.54Zm24.12 12.12q3.42 0 6.23 1.11 2.8 1.11 4.8 3.15 1.99 2.04 3.07 4.98 1.08 2.94 1.08 6.57 0 3.66-1.08 6.6-1.08 2.94-3.07 5.01-2 2.07-4.8 3.18-2.81 1.11-6.23 1.11-3.45 0-6.27-1.11-2.82-1.11-4.81-3.18-2-2.07-3.09-5.01-1.1-2.94-1.1-6.6 0-3.63 1.1-6.57 1.09-2.94 3.09-4.98 1.99-2.04 4.81-3.15 2.82-1.11 6.27-1.11Zm0 26.01q3.84 0 5.69-2.58 1.84-2.58 1.84-7.56 0-4.98-1.84-7.59-1.85-2.61-5.69-2.61-3.9 0-5.77 2.63-1.88 2.62-1.88 7.57t1.88 7.55q1.87 2.59 5.77 2.59Zm27.39-23.67.45 3.48q1.44-2.76 3.42-4.33 1.98-1.58 4.68-1.58 2.13 0 3.42.93l-.48 5.55q-.15.54-.43.76-.29.23-.77.23-.45 0-1.33-.15-.89-.15-1.73-.15-1.23 0-2.19.36t-1.72 1.03q-.77.68-1.35 1.64-.59.96-1.1 2.19v18.96h-7.41v-30.78h4.35q1.14 0 1.59.4.45.41.6 1.46Zm15.93-15.66h7.41v44.58h-7.41v-44.58Zm34.14 35.46v-13.8q-1.26-1.53-2.74-2.16-1.49-.63-3.2-.63-1.68 0-3.03.63-1.35.63-2.31 1.9-.96 1.28-1.47 3.25-.51 1.96-.51 4.63 0 2.7.44 4.58.43 1.87 1.24 3.05.81 1.19 1.98 1.71 1.17.53 2.61.53 2.31 0 3.93-.96t3.06-2.73Zm0-35.46h7.41v44.58h-4.53q-1.47 0-1.86-1.35l-.63-2.97q-1.86 2.13-4.27 3.45-2.42 1.32-5.63 1.32-2.52 0-4.62-1.05t-3.61-3.05q-1.52-1.99-2.34-4.93-.83-2.94-.83-6.72 0-3.42.93-6.36.93-2.94 2.67-5.1 1.74-2.16 4.17-3.37 2.43-1.22 5.46-1.22 2.58 0 4.41.81t3.27 2.19v-16.23Z"/></svg>