<svg width="51" height="24" viewBox="0 0 51 24" fill="none" xmlns="http://www.w3.org/2000/svg">
<g clip-path="url(#clip0_684_123)">
<path d="M24.375 12.4095V18.2677H22.5V3.77954H27.375C28.5625 3.77954 29.6875 4.22049 30.5625 5.03938C31.4375 5.79529 31.875 6.92915 31.875 8.126C31.875 9.32285 31.4375 10.3937 30.5625 11.2126C29.6875 12.0315 28.625 12.4725 27.375 12.4725L24.375 12.4095ZM24.375 5.54332V10.5827H27.5C28.1875 10.5827 28.875 10.3307 29.3125 9.82679C30.3125 8.8819 30.3125 7.3071 29.375 6.36222L29.3125 6.29923C28.8125 5.79529 28.1875 5.48033 27.5 5.54332H24.375Z" fill="white"/>
<path d="M36.1875 8.06299C37.5625 8.06299 38.625 8.44094 39.4375 9.19685C40.25 9.95275 40.625 10.9606 40.625 12.2205V18.2677H38.875V16.8819H38.8125C38.0625 18.0157 37 18.5827 35.75 18.5827C34.6875 18.5827 33.75 18.2677 33 17.6378C32.3125 17.0079 31.875 16.126 31.875 15.1811C31.875 14.1732 32.25 13.3543 33 12.7244C33.75 12.0945 34.8125 11.8425 36.0625 11.8425C37.1875 11.8425 38.0625 12.0315 38.75 12.4724V12.0315C38.75 11.4016 38.5 10.7716 38 10.3937C37.5 9.95275 36.875 9.70078 36.1875 9.70078C35.125 9.70078 34.3125 10.1417 33.75 11.0236L32.125 10.0157C33.125 8.69291 34.4375 8.06299 36.1875 8.06299ZM33.8125 15.2441C33.8125 15.748 34.0625 16.189 34.4375 16.4409C34.875 16.7559 35.375 16.9449 35.875 16.9449C36.625 16.9449 37.375 16.6299 37.9375 16.063C38.5625 15.4961 38.875 14.8031 38.875 14.0472C38.3125 13.6063 37.5 13.3543 36.4375 13.3543C35.6875 13.3543 35.0625 13.5433 34.5625 13.9213C34.0625 14.2362 33.8125 14.6772 33.8125 15.2441Z" fill="white"/>
<path d="M50.75 8.37796L44.5625 22.6772H42.6875L45 17.7008L40.9375 8.44095H42.9375L45.875 15.5591H45.9375L48.8125 8.44095H50.75V8.37796Z" fill="white"/>
<path d="M16.9375 11.1496C16.9375 10.5827 16.875 10.0158 16.8125 9.44882H9V12.6614H13.4375C13.25 13.6693 12.6875 14.6142 11.8125 15.1811V17.2598H14.5C16.0625 15.811 16.9375 13.6693 16.9375 11.1496Z" fill="#4285F4"/>
<path d="M9 19.2756C11.25 19.2756 13.125 18.5197 14.5 17.2598L11.8125 15.1811C11.0625 15.685 10.125 16 9 16C6.875 16 5 14.5512 4.375 12.5354H1.625V14.6772C3.0625 17.5118 5.875 19.2756 9 19.2756Z" fill="#34A853"/>
<path d="M4.375 12.5354C4 11.5275 4 10.3937 4.375 9.32282V7.18109H1.625C0.4375 9.5118 0.4375 12.2835 1.625 14.6772L4.375 12.5354Z" fill="#FBBC04"/>
<path d="M9 5.92125C10.1875 5.92125 11.3125 6.3622 12.1875 7.1811L14.5625 4.78739C13.0625 3.40157 11.0625 2.58267 9.0625 2.64566C5.9375 2.64566 3.0625 4.40944 1.6875 7.24409L4.4375 9.38582C5 7.37007 6.875 5.92125 9 5.92125Z" fill="#EA4335"/>
</g>
<defs>
<clipPath id="clip0_684_123">
<rect width="50" height="24" fill="white" transform="translate(0.75)"/>
</clipPath>
</defs>
</svg>
