<svg id="Layer_1" data-name="Layer 1" xmlns="http://www.w3.org/2000/svg" viewBox="0 0 550 120"><defs><style>.cls-1{fill:#f4f2f2;}</style></defs><title>captacha6</title><rect class="cls-1" width="550" height="120"/><path d="M362.15,68.91c2.71,9.69-.75,18.61-2.07,28l-7.29-1.75c.12-.67.21-1.15.32-1.72a35.5,35.5,0,0,1-18-3.81,1.58,1.58,0,0,0-1.44.19c-4.13,4.58-9.73,6.11-15.42,7.24-6,1.18-11.93,1-17.54-1.68a25.56,25.56,0,0,1-5.1-3.5c5.52,1.8,10.94,3.73,16.85,3.51a29.61,29.61,0,0,0,16-4.93c-4.32-1.29-8.7-2.17-12.72-3.91s-7.83-4-10.1-8.28c1.54,1,3.14,1.83,4.59,2.92a30.33,30.33,0,0,0,14.43,5.94,20.14,20.14,0,0,0,2.46,0c1.14-2.88-.12-5.55-1.38-7.7A142.08,142.08,0,0,0,317,67c-.35-.47-1.3-.61-2-.7-7.81-1.07-15.66-1.87-23.41-3.21a37.17,37.17,0,0,1-18.39-8.74,19.46,19.46,0,0,1-6.65-10.38c-.25-1.11-.69-1.36-1.67-1-4.9,2-9.43,4.63-12.74,8.81a5.49,5.49,0,0,0,0,6.84c3.18,4.07,6.7,7.88,10.17,11.73,2.31,2.55,4.73,5,7.16,7.46,1.57,1.6,3.25,3.11,4.93,4.7-11.12,4.24-27-1.55-34.81-10.55,2.76,1.57,5.2,3.39,7.94,4.4A78,78,0,0,0,259,79.43c2.08.42,3-.9,1.76-2.67a32.88,32.88,0,0,0-5.06-5.5c-3-2.8-6.45-5.22-9.29-8.2a15.3,15.3,0,0,1-3.44-6.3c-.87-3.06,1.48-5.34,3.55-6.88A93.35,93.35,0,0,1,259,42.19a67.08,67.08,0,0,0,14.05-9.55,19.3,19.3,0,0,1,1.82-1.22c-.67,1.82-1.15,3.14-1.63,4.46a11.46,11.46,0,0,0,.59,9.13c4.21,9.15,12,13.19,21.32,14.88,4.47.82,9,1.28,13.53,1.88a20,20,0,0,0,2.13,0c-2-2.06-3.78-3.7-5.36-5.51-2.44-2.8-4.78-5.69-7.1-8.58C297,46,297,43.93,297.41,41.9c.48-2.24,1.54-2.62,3.07-.94,3.36,3.67,6.51,7.54,9.88,11.2,3.24,3.5,6.51,7,10,10.21a52.45,52.45,0,0,1,11.19,14.07c2.24,4.15,4.31,8.53,8.57,11.28,3,1.93,8.79,3.67,12.16.77,3.76-3.23,6.23-7.12,5.67-12.33-.05-.46-.64-1.26-1-1.25-2.69.08-3.81-1.91-5.14-3.66-3.42-4.46-8-7.21-13.22-9.09-1.27-.46-2.55-.88-3.78-1.43,6.68,1.19,13.2,2.78,18.44,7.82-.24-4.27-3.82-8.66-10.72-13.26a28.08,28.08,0,0,1,10.6,3.06,18.36,18.36,0,0,1,7.27,7.22,4.42,4.42,0,0,0,2.86,1.4c2.27.39,4.61.35,6.87.77s4.43,1.19,6.46,1.75c2.73-2.26,5.45-.14,8.21-.34a55.46,55.46,0,0,0-3.78,19.6,27.14,27.14,0,0,0,1.35,9.9c1.64,4.2,5.67,5.83,10,5.85,9.7.06,17.3-3.75,21.41-12.86,2.54-5.63,2.83-11.51,1.54-17.68A25.16,25.16,0,0,0,410,63c-3.68-4.51-8.33-7.44-14.48-6.93-3.61.31-5.3,3.26-4,6.67a19.19,19.19,0,0,1,.56,2.35c-2.62,0-5.88-2.28-6.64-4.48-.58-1.67.51-3.69,2.54-4.92,7-4.25,18.55-3,24.52,2.42a28.36,28.36,0,0,1,8.86,15.19c1.58,7,.41,13.48-2.09,20-3.09,8.09-12.82,14.82-21,14.07a46.34,46.34,0,0,1-19.23-6,9.12,9.12,0,0,1-4.48-7.18,36.71,36.71,0,0,1,.49-8c.34-3.15.81-6.28,1.27-9.41.34-2.38-.94-3.86-2.84-4.83A29.14,29.14,0,0,0,362.15,68.91Z"/><path d="M169.45,70.78c2.29-1.63,4.3-2.92,6.14-4.41a24.8,24.8,0,0,0,8.63-14,22.82,22.82,0,0,1,9.92-14l1.71-1.06c-2.34-.28-4.25-.51-6.16-.76a34.27,34.27,0,0,1-12.1-4c-1.43-.78-2.26-.68-2.86,1.07-.9,2.62-2.24,5.08-3.12,7.71-1.05,3.15-1.84,6.4-2.68,9.62-1,3.67-1.84,7.36-2.75,11-.77,3.09-1.53,6.19-2.3,9.29h-4c.94-8.61,3.42-16.81,5-25.22-2.78,2.82-5.16,5.78-8.07,8.09-6.92,5.47-14.8,7.86-23.54,5.39C131,59,128.93,57.3,127,55.84a2.67,2.67,0,0,0-3.22-.45c-2.29,1.1-4.72,1.92-7.09,2.86l-.51-.39c.36-1.56.69-3.12,1.08-4.67.89-3.56,1.77-7.13,2.74-10.68,1.31-4.8,2.51-9.59,4.71-14.14a46.79,46.79,0,0,1,9.54-13.62c4.16-4,12-9.31,19.73-9.87-1.1,2.51-2.18,4.87-3.15,7.27a45.68,45.68,0,0,0-2.61,7.11,54.62,54.62,0,0,0-1.25,9.61c-.22,5.1,1.11,9.68,5.58,12.83.2.14.28.45.54.9-5-.68-8.29-3.75-11.66-7.05-2.58,2.86-5,5.54-7.67,8.5.18-3.33.18-6.39,1.68-9.19,2.59-4.86,5.33-9.64,7.73-14.59.92-1.9,1.1-4.16,1.62-6.25l-.63-.38c-1.69,2.23-3.44,4.41-5.05,6.69a60.07,60.07,0,0,0-3.89,6c-3,5.41-7,10.63-6.18,17.18s2.85,12.36,9.68,15.22c4.1,1.72,7.47.19,10.92-1.73a38.79,38.79,0,0,0,11.6-10.31,39.53,39.53,0,0,0,6.91-13.3c1.06-3.63,2.58-7.12,3.74-10.72S174,15.56,174.94,12c.34-1.2,1.07-2.73.62-3.59s-2.15-1.14-3.48-1.75c3.15.68,6.12,1.27,9.06,2A1.57,1.57,0,0,1,181.9,10c-.44,2.71-.87,5.43-1.56,8.07-.76,2.9-1.78,5.73-2.71,8.58A1.64,1.64,0,0,0,178.91,29c5,1.47,10,3.1,15,4.45,3.62,1,4.65.57,6.13-3A71.37,71.37,0,0,0,202.8,21c.21-.77,0-1.64.18-2.43.44-2.34.47-2.33-1.4-3.58,2.48.53,5,1,7.43,1.61,1.81.46,2.35,1.68,1.88,3.47-.7,2.65-1,5.47-2.1,7.91a49.64,49.64,0,0,1-5.43,9c-3.12,4.18-6.71,8-9.82,12.21-1.75,2.37-2.91,5.17-4.37,7.76-2.51,4.47-6.51,7.4-10.75,10-2.4,1.46-5,2.52-7.59,3.74A6.83,6.83,0,0,1,169.45,70.78Z"/><path d="M217.91,37.34c7.5-10.6,17.55-16.21,30.81-15.47,2.36.14,4.87.81,5.68,3.18a7.74,7.74,0,0,1-1.57,8.24c-3.75,4.13-8.76,6.32-13.26,9.31-4.73,3.14-9.49,6.28-13.92,9.81-5,4-6.63,11.47-4.29,17.37.31.8.5,1.64.8,2.61a45,45,0,0,1-13.45-2.87,25.21,25.21,0,0,1-9.56-5.81c-3.6-3.65-5-8.94-1.89-13.89a4.69,4.69,0,0,1,1.36-1.75,3.89,3.89,0,0,1-.12,1.19c-2.71,6.85-2.28,10.25,3.83,14.79a14.43,14.43,0,0,0,8.85,3.09c1.62,0,2.62-.68,2.53-2.41-.31-6.28,2.87-10.88,7.6-14.36,5.16-3.78,10.7-7.06,16-10.61,3.26-2.16,6.86-3.9,8.81-7.62,1.26-2.38.47-4.44-2.09-5.09-4.67-1.19-8.63.56-12.47,2.87s-7.81,4.72-11.73,7.07c-.53.32-1.12.56-1.68.84Z"/></svg>