<svg xmlns="http://www.w3.org/2000/svg" width="550" height="120" viewBox="0 0 550 120"><rect width="100%" height="100%" fill="#DDDDDD"/><path fill="#999999" d="M175.28 67.035q.66 0 1.16.51l3.19 3.45q-2.64 3.27-6.5 5.01-3.85 1.74-9.25 1.74-4.83 0-8.69-1.65-3.85-1.65-6.58-4.59t-4.19-7.02q-1.45-4.08-1.45-8.91 0-4.89 1.56-8.95 1.56-4.07 4.39-7.01 2.83-2.94 6.77-4.58 3.93-1.63 8.7-1.63 4.74 0 8.41 1.56t6.26 4.08l-2.71 3.75q-.23.36-.61.63-.37.27-1.04.27-.45 0-.92-.25-.48-.26-1.06-.63-.56-.38-1.31-.83-.75-.45-1.75-.82-.99-.38-2.29-.63-1.31-.26-3.01-.26-2.92 0-5.33 1.04-2.42 1.03-4.15 3-1.74 1.96-2.71 4.8-.95 2.83-.95 6.46 0 3.66 1.03 6.51 1.03 2.85 2.81 4.8 1.77 1.95 4.16 2.99 2.41 1.03 5.17 1.03 1.64 0 2.98-.18 1.33-.18 2.46-.57 1.12-.39 2.13-1.01 1.01-.61 1.99-1.51.3-.27.64-.43.32-.17.69-.17Zm24.99 2.28v-5.19q-3.21.15-5.41.56-2.19.4-3.5 1.03-1.33.63-1.89 1.47-.58.84-.58 1.83 0 1.95 1.16 2.79 1.15.84 3.01.84 2.28 0 3.95-.82 1.66-.83 3.26-2.51Zm-15.66-16.17-1.33-2.37q5.31-4.86 12.78-4.86 2.71 0 4.83.89 2.14.88 3.61 2.46 1.47 1.57 2.23 3.76.77 2.19.77 4.8v19.44h-3.37q-1.05 0-1.61-.32-.58-.31-.91-1.27l-.66-2.22q-1.17 1.05-2.28 1.85-1.11.79-2.31 1.33t-2.56.83q-1.36.28-3.02.28-1.95 0-3.59-.52-1.66-.53-2.86-1.58-1.19-1.05-1.86-2.61-.66-1.56-.66-3.63 0-1.17.39-2.33.39-1.15 1.28-2.2.88-1.05 2.3-1.98 1.41-.93 3.46-1.62 2.06-.69 4.79-1.12 2.72-.44 6.24-.53v-1.8q0-3.09-1.33-4.58-1.31-1.48-3.81-1.48-1.8 0-2.98.42t-2.09.95l-1.63.94q-.74.42-1.63.42-.78 0-1.33-.41-.53-.4-.86-.94Zm37.26 2.34v13.8q1.26 1.53 2.74 2.16 1.48.63 3.23.63 1.68 0 3.03-.63 1.35-.63 2.29-1.92.95-1.29 1.46-3.25.51-1.97.51-4.64 0-2.7-.44-4.57-.43-1.88-1.24-3.05t-1.97-1.71q-1.15-.54-2.62-.54-2.31 0-3.94.98-1.61.97-3.05 2.74Zm-.99-7.65.6 2.85q1.89-2.13 4.29-3.45 2.4-1.32 5.64-1.32 2.51 0 4.6 1.05 2.08 1.05 3.6 3.05 1.52 1.99 2.34 4.91.83 2.93.83 6.71 0 3.45-.94 6.39-.92 2.94-2.65 5.1-1.72 2.16-4.17 3.37-2.44 1.22-5.47 1.22-2.58 0-4.41-.79-1.83-.8-3.27-2.21v12.6h-7.42v-40.83h4.54q1.43 0 1.89 1.35Zm37.92 29.91q-4.03 0-6.17-2.26-2.14-2.27-2.14-6.26v-17.19h-3.15q-.6 0-1.02-.39-.42-.39-.42-1.17v-2.94l4.94-.81 1.57-8.4q.15-.6.57-.93.42-.33 1.08-.33h3.84v9.69h8.21v5.28h-8.21v16.68q0 1.44.7 2.25.71.81 1.94.81.68 0 1.15-.16.47-.17.81-.35.34-.18.61-.34.27-.17.54-.17.34 0 .55.17.2.16.45.49l2.21 3.6q-1.61 1.35-3.71 2.04-2.11.69-4.35.69Zm36.06-27.45-1.96 2.7q-.32.42-.64.66-.31.24-.91.24-.58 0-1.11-.34-.54-.35-1.29-.78-.75-.44-1.79-.78-1.03-.35-2.56-.35-1.95 0-3.42.71-1.47.7-2.45 2.02-.97 1.32-1.45 3.19-.48 1.88-.48 4.25 0 2.46.52 4.38.53 1.92 1.52 3.23.99 1.3 2.4 1.97 1.41.68 3.18.68 1.76 0 2.86-.44 1.1-.43 1.85-.95.75-.53 1.3-.96.56-.44 1.25-.44.9 0 1.34.69l2.13 2.7q-1.22 1.44-2.66 2.42-1.45.97-2.99 1.56-1.55.58-3.18.82-1.64.24-3.25.24-2.85 0-5.37-1.06-2.52-1.07-4.41-3.11-1.89-2.04-2.99-4.99-1.09-2.96-1.09-6.74 0-3.39.97-6.28.98-2.9 2.87-5.01 1.89-2.12 4.68-3.32 2.79-1.2 6.42-1.2 3.45 0 6.04 1.11 2.6 1.11 4.67 3.18Zm12.32-17.61v17.1q1.81-1.68 3.96-2.73 2.16-1.05 5.07-1.05 2.53 0 4.48.86 1.94.85 3.25 2.4 1.3 1.54 1.98 3.69.68 2.14.68 4.72v19.59h-7.41v-19.59q0-2.82-1.3-4.36-1.29-1.55-3.93-1.55-1.91 0-3.6.87-1.67.87-3.18 2.37v22.26h-7.41v-44.58h7.41Zm42.7 36.63v-5.19q-3.22.15-5.41.56-2.19.4-3.5 1.03-1.33.63-1.9 1.47-.57.84-.57 1.83 0 1.95 1.16 2.79 1.15.84 3.01.84 2.28 0 3.95-.82 1.66-.83 3.26-2.51Zm-15.67-16.17-1.32-2.37q5.31-4.86 12.78-4.86 2.71 0 4.83.89 2.13.88 3.6 2.46 1.47 1.57 2.24 3.76.76 2.19.76 4.8v19.44h-3.35q-1.06 0-1.62-.32-.58-.31-.91-1.27l-.66-2.22q-1.17 1.05-2.28 1.85-1.11.79-2.31 1.33-1.19.54-2.56.83-1.36.28-3.02.28-1.94 0-3.59-.52-1.66-.53-2.85-1.58-1.21-1.05-1.86-2.61-.67-1.56-.67-3.63 0-1.17.39-2.33.39-1.15 1.28-2.2.88-1.05 2.29-1.98 1.42-.93 3.47-1.62 2.06-.69 4.78-1.12 2.73-.44 6.25-.53v-1.8q0-3.09-1.33-4.58-1.31-1.48-3.8-1.48-1.81 0-2.99.42-1.18.42-2.09.95l-1.63.94q-.73.42-1.63.42-.78 0-1.32-.41-.54-.4-.88-.94Zm59.07 17.22h11.13q1.21 0 1.91.68.71.67.71 1.78v4.44h-29.76v-2.46q0-.75.31-1.58.31-.82 1-1.48l13.17-13.2q1.66-1.68 2.96-3.21 1.31-1.53 2.17-3.03.87-1.5 1.34-3.04.47-1.55.47-3.26 0-1.56-.45-2.74-.46-1.19-1.28-2-.83-.81-1.98-1.21-1.15-.41-2.6-.41-1.32 0-2.44.38-1.13.37-2 1.04-.86.68-1.47 1.58-.59.9-.89 1.98-.52 1.38-1.33 1.83-.81.45-2.34.21l-3.89-.69q.45-3.12 1.73-5.48 1.3-2.35 3.23-3.93 1.93-1.57 4.44-2.36 2.5-.8 5.39-.8 3 0 5.49.88 2.48.89 4.26 2.51 1.76 1.62 2.75 3.9 1 2.28 1 5.07 0 2.4-.71 4.44-.7 2.04-1.89 3.9-1.18 1.86-2.77 3.6t-3.34 3.54l-9.77 9.99q1.41-.42 2.8-.64 1.4-.23 2.65-.23Z"/></svg>