<svg id="Layer_1" data-name="Layer 1" xmlns="http://www.w3.org/2000/svg" viewBox="0 0 550 120"><defs><style>.cls-1{fill:#fff;}</style></defs><title>captacha6</title><rect class="cls-1" width="550" height="120"/><g id="_6" data-name="6"><path d="M371.75,74.5c3,10.76-.83,20.64-2.3,31.06l-8.08-2c.14-.74.24-1.28.35-1.91a39.29,39.29,0,0,1-20-4.22,1.7,1.7,0,0,0-1.6.21c-4.57,5.08-10.79,6.77-17.09,8-6.62,1.31-13.23,1.1-19.46-1.87A27.71,27.71,0,0,1,298,100c6.11,2,12.13,4.14,18.68,3.89a32.86,32.86,0,0,0,17.79-5.46c-4.79-1.43-9.65-2.41-14.1-4.34s-8.69-4.48-11.2-9.18c1.7,1.07,3.48,2,5.08,3.23a33.52,33.52,0,0,0,16,6.59,20.62,20.62,0,0,0,2.73,0c1.25-3.2-.14-6.16-1.53-8.54a156.48,156.48,0,0,0-9.74-13.82,3.65,3.65,0,0,0-2.23-.78c-8.65-1.19-17.36-2.07-25.95-3.56a41.26,41.26,0,0,1-20.4-9.69c-3.54-3.12-6.32-6.8-7.38-11.51-.27-1.23-.76-1.51-1.85-1.07-5.44,2.21-10.46,5.13-14.12,9.77a6.07,6.07,0,0,0,0,7.58c3.52,4.52,7.43,8.75,11.28,13,2.56,2.84,5.24,5.57,7.93,8.28,1.75,1.78,3.61,3.44,5.47,5.21-12.32,4.7-29.93-1.72-38.61-11.7,3.07,1.74,5.77,3.77,8.81,4.89a87.29,87.29,0,0,0,12.77,3.38c2.31.47,3.3-1,2-3a36.89,36.89,0,0,0-5.62-6.11c-3.37-3.1-7.15-5.79-10.3-9.09a17,17,0,0,1-3.82-7c-1-3.39,1.64-5.92,3.94-7.63a103.93,103.93,0,0,1,13.84-8.53,73.69,73.69,0,0,0,15.58-10.59,21.21,21.21,0,0,1,2-1.36c-.74,2-1.27,3.49-1.81,4.95A12.7,12.7,0,0,0,273.81,48c4.67,10.15,13.27,14.63,23.64,16.51,5,.9,10,1.41,15,2.08.57.07,1.17,0,2.37,0-2.24-2.28-4.2-4.11-5.95-6.11-2.71-3.11-5.3-6.31-7.88-9.52-1.53-1.91-1.53-4.17-1.05-6.42.53-2.49,1.71-2.9,3.4-1,3.73,4.07,7.22,8.36,11,12.42,3.59,3.88,7.22,7.76,11.12,11.32a58.17,58.17,0,0,1,12.42,15.61c2.48,4.6,4.78,9.46,9.5,12.51,3.3,2.14,9.75,4.07,13.49.86,4.17-3.58,6.91-7.9,6.29-13.68-.06-.51-.71-1.4-1.07-1.39-3,.09-4.22-2.12-5.7-4.06-3.79-4.94-8.9-8-14.66-10.08-1.41-.51-2.83-1-4.19-1.58,7.41,1.32,14.63,3.08,20.44,8.67-.26-4.74-4.23-9.61-11.88-14.71a31.39,31.39,0,0,1,11.76,3.39,20.51,20.51,0,0,1,8.06,8c.52.85,2,1.36,3.17,1.55,2.52.43,5.12.39,7.62.85s4.91,1.32,7.16,1.94c3-2.5,6-.15,9.11-.37a61.52,61.52,0,0,0-4.19,21.73c0,3.67.19,7.62,1.5,11,1.81,4.66,6.28,6.47,11.11,6.49,10.75.07,19.19-4.16,23.74-14.26,2.82-6.25,3.15-12.77,1.71-19.61a28,28,0,0,0-6-12.14c-4.08-5-9.24-8.26-16.06-7.69-4,.34-5.88,3.61-4.44,7.4a20.74,20.74,0,0,1,.62,2.61c-2.9-.05-6.51-2.54-7.36-5-.65-1.85.56-4.09,2.82-5.45,7.79-4.72,20.57-3.36,27.19,2.68a31.53,31.53,0,0,1,9.83,16.85c1.75,7.73.46,15-2.32,22.23-3.42,9-14.22,16.43-23.35,15.6a51.64,51.64,0,0,1-21.32-6.65,10.14,10.14,0,0,1-5-8c-.33-2.91.22-5.94.54-8.9.38-3.48.9-6.95,1.41-10.42.38-2.65-1-4.29-3.15-5.36A32.67,32.67,0,0,0,371.75,74.5Z" transform="translate(0 0)"/><path d="M158,76.58c2.54-1.81,4.77-3.23,6.81-4.89a27.47,27.47,0,0,0,9.57-15.47,25.34,25.34,0,0,1,11-15.51c.48-.31,1-.6,1.89-1.17l-6.83-.84a37.88,37.88,0,0,1-13.42-4.4c-1.59-.87-2.51-.75-3.17,1.19-1,2.9-2.49,5.64-3.46,8.55-1.16,3.5-2,7.1-3,10.68-1.06,4.06-2,8.15-3.06,12.23q-1.28,5.16-2.54,10.31h-4.5c1-9.55,3.79-18.65,5.58-28-3.08,3.13-5.72,6.41-8.95,9-7.67,6.07-16.41,8.72-26.1,6-2.54-.72-4.8-2.61-7-4.23-1.25-.93-2.11-1.19-3.57-.49-2.55,1.21-5.24,2.13-7.87,3.17l-.57-.43c.4-1.73.77-3.47,1.2-5.19,1-4,2-7.91,3-11.84,1.45-5.32,2.79-10.64,5.23-15.69a52.22,52.22,0,0,1,10.57-15.1C123.56,10,132.32,4.12,140.82,3.5c-1.2,2.77-2.41,5.39-3.49,8.06a51.48,51.48,0,0,0-2.89,7.88,61.73,61.73,0,0,0-1.39,10.67c-.23,5.65,1.23,10.73,6.19,14.22.22.16.31.5.6,1-5.51-.76-9.19-4.16-12.93-7.82l-8.51,9.42c.21-3.69.21-7.08,1.87-10.19,2.88-5.38,5.91-10.69,8.57-16.17,1-2.11,1.22-4.62,1.8-6.94l-.7-.42c-1.87,2.47-3.81,4.89-5.6,7.41a68.79,68.79,0,0,0-4.32,6.7c-3.29,6-7.71,11.79-6.85,19.06.85,7.12,3.16,13.7,10.74,16.87,4.54,1.9,8.28.21,12.11-1.92A43.17,43.17,0,0,0,148.89,49.9a44,44,0,0,0,7.66-14.75c1.17-4,2.86-7.9,4.14-11.9s2.33-7.91,3.43-11.89c.37-1.33,1.19-3,.69-4s-2.39-1.27-3.87-1.95c3.5.75,6.8,1.42,10.06,2.23a1.75,1.75,0,0,1,.84,1.47c-.48,3-1,6-1.73,8.95-.84,3.22-2,6.36-3,9.52-.47,1.43-.07,2.25,1.42,2.69,5.55,1.63,11,3.44,16.63,4.94,4,1.07,5.17.63,6.81-3.31A80.13,80.13,0,0,0,195,21.35c.23-.86,0-1.81.2-2.69.49-2.6.52-2.59-1.55-4,2.75.59,5.52,1.11,8.24,1.79,2,.51,2.61,1.87,2.08,3.85-.78,2.93-1.08,6.07-2.33,8.78a55.34,55.34,0,0,1-6,9.93c-3.46,4.64-7.44,8.89-10.89,13.54-1.94,2.63-3.23,5.74-4.85,8.61-2.79,4.95-7.22,8.21-11.92,11.07-2.66,1.62-5.6,2.79-8.42,4.14A7,7,0,0,1,158,76.58Z" transform="translate(0 0)"/><path d="M211.78,39.49c8.31-11.75,19.46-18,34.17-17.15,2.62.15,5.4.9,6.3,3.53A8.57,8.57,0,0,1,250.51,35c-4.16,4.59-9.72,7-14.71,10.33-5.24,3.48-10.53,7-15.44,10.88-5.57,4.44-7.35,12.71-4.76,19.26.35.89.56,1.82.89,2.9a50.08,50.08,0,0,1-14.91-3.18A28.1,28.1,0,0,1,191,68.75c-4-4-5.52-9.93-2.09-15.42a5.19,5.19,0,0,1,1.51-1.94,5.1,5.1,0,0,1-.13,1.32c-3,7.6-2.53,11.37,4.24,16.41a16,16,0,0,0,9.82,3.43c1.79,0,2.9-.76,2.8-2.67-.34-7,3.18-12.08,8.43-15.93,5.72-4.2,11.86-7.83,17.78-11.77,3.61-2.4,7.6-4.33,9.77-8.45,1.39-2.64.52-4.92-2.32-5.65-5.18-1.32-9.58.62-13.84,3.19s-8.66,5.23-13,7.83c-.6.36-1.25.63-1.87.94Z" transform="translate(0 0)"/></g></svg>