<svg id="Layer_1" data-name="Layer 1" xmlns="http://www.w3.org/2000/svg" viewBox="0 0 550 120"><defs><style>.cls-1{fill:#f4f2f2;}</style></defs><title>captacha5</title><rect class="cls-1" width="550" height="120"/><g id="_5" data-name="5"><path d="M467.73,79.34l-14,2-.16-.83c4.38-2.54,9.49-3,14.17-4.64Z" transform="translate(0 0)"/><path d="M99.06,63.58H79.41v-.22c6-1.71,11.89-3.5,17.86-5.1,2-.56,2.66-2.14,2.91-5.19,1.63-20.21,13.32-39.85,28.06-40.62,7.28-.38,11.46,4.78,11.25,14.75-.11,5.59-1.91,10.68-4.67,15.92,0-4.69.06-8.29,0-11.89a21.46,21.46,0,0,0-.54-5.34c-1.87-6.31-4-7.9-8.65-6.78-8.19,2-13.61,9.13-16.63,20.57-1,3.68-1.68,7.52-2.41,11.33a28.28,28.28,0,0,0-.15,4c3.24-.72,6.25-1.59,9.29-2,9.76-1.38,19.55-1.86,29,3.25,5.66,3.08,7.53,7.53,6.72,15.32A69.67,69.67,0,0,1,149.57,81c-1.23,5.09.12,10,3.57,10.47,6.65.88,12.9-1.43,17.93-8.49,2.41-3.38,2.66-10.57,1.32-15.21-2.27-7.92-4.44-16-3.79-24.88.25-3.5,1.3-6.87,2-10.31.18-.91.26-1.85.55-3.9-3.92,3.9-7.5,6.87-10.6,10.74A161.45,161.45,0,0,0,150.45,54.2c-1.34,2.14-3,2.65-4,.9-.64-1.13-.37-4.44.29-6,1.06-2.56,2.75-4.55,4.24-6.69C157.91,32.45,166.3,26,174.77,19.9c1.68-1.23,3.62-1.68,5.58-2.56-1.46,5.68-2.91,10.56-4,15.63-1.34,6.43-.9,12.82-.1,19.53,1,8.24,5.23,10.14,9,12.59,4.43,2.86,9.25,4.34,13.88,6.41,1.24-4.84,2.18-9.17,3.44-13.28C210.11,33.66,223.45,19,239.56,9.34,243.69,6.85,248,5,252.23,3a17.21,17.21,0,0,1,3-.92l.28.84c-.66.61-1.3,1.3-2,1.83-7.88,6.06-15.86,11.87-23.63,18.22-5.63,4.6-10.29,11.25-13.73,19.31-2,4.77-3.29,10.46-4.35,16s-1.36,11.14-2.15,18l18.64-4.19.45.5-1.16.77c-7.07,4.51-14.4,7.49-22.08,8.34-2.79.3-5.32-.2-6.71-4.63a2.18,2.18,0,0,0-1.21-1.36,41.62,41.62,0,0,1-17.89-8.86c-.19-.16-.45-.11-.78-.19,1.23,5.1,2.32,10.14,3.69,15,.78,2.75.73,4.57-1.4,5-2.61.51-5.25.66-7.87,1a5.19,5.19,0,0,0-2.45.77c-5.93,4.39-12,8-18.7,8.64a22.3,22.3,0,0,1-6.54-.56c-3.89-.81-5.25-6.71-4.28-11.44s2.22-9.07,3.39-13.57c1.09-4.17-.18-8.91-3.38-10.52a27.28,27.28,0,0,0-9.23-3c-8.15-.87-16.24.31-24.27,2.56-1.72.48-2.52,1.51-2.42,4.32.55,16,4.5,29.22,14.09,37.18,4.1,3.4,8.66,5.11,13-.21.35-.43,1.54-.3,1.7.13.44,1.14,1,3,.67,3.81-.73,1.69-1.86,3.69-3,4.1-9.35,3.22-21.06.26-26.92-15.52-2.81-7.58-5-15.14-5-23.93A57.82,57.82,0,0,0,99.06,63.58Z" transform="translate(0 0)"/><path d="M364.54,3.81c.31,1.82.62,3.57.9,5.33,1.08,6.85,2.23,13.68,3.2,20.56.54,3.79.55,7.74,2.68,10.85-.95,4.25.87,8,1.38,12,.92,7.22,1.9,14.37,1.69,21.75-.1,3.44,2.46,5.1,5.37,3.54a19.61,19.61,0,0,0,5-3.74,7.47,7.47,0,0,1,7.44-2.41,3.49,3.49,0,0,1,2.14,2.13c.18.54-.7,2.1-1.37,2.63-4.8,3.88-10.18,5.76-15.65,7.27-2,.56-4.09,1-6.14,1.48-1.27.29-2-.16-2.09-2.11-.32-5.93-.58-11.88-1.24-17.75-.82-7.27-1.05-14.76-3.46-21.59-.34-.95-1.42-2.08-2.14-2.07-5.47,0-10.92.45-16,3.5-.64.38-1.23.89-2.09,1.52,2.45,4.3,4.89,8.45,7.22,12.7,2.54,4.61,5.22,9.13,5.46,15.17a22.4,22.4,0,0,0,.8,4.53,2.09,2.09,0,0,0,1.06,1.37c1.18.3,1.9.9,1.54,2.6-.43,2-1.48,1.23-2.44.89a8.14,8.14,0,0,0-1-.19c-1.51,7.55-4.47,13.66-10.31,17.35,2.18-6.33,5-12,4.39-19.3l-17.26-4.18-6.36-1.53c-2.45-.6-3.06,0-3.2,3.21a19.21,19.21,0,0,0,.24,3c.17,1.43.4,2.86.6,4.29-4.53.84-6.93-1.62-6.87-5.43,0-1-.12-2-.13-3.07,0-4.79,0-4.78-3.67-5.95A17,17,0,0,1,309.34,70h7.1c-.8-3.37-3.17-4.53-5.15-6-5.21-3.77-10.6-7.15-15.79-11a21.73,21.73,0,0,1-7-8.66,11.35,11.35,0,0,1,.63-10.59,24.87,24.87,0,0,1,3.62-4.62c1.78-2,3.86-2,6.09-1.51,6.18,1.23,12.24,2.9,17.74,7a11.58,11.58,0,0,1,1.67,2l-.39,1.11c-1.75-.46-3.52-.81-5.25-1.39-4.44-1.48-8.83-3.17-13.29-4.54-2.78-.86-4.62,1.36-6,4.08a9,9,0,0,0-.25,8.3c2.68,5.62,7.07,8.29,11.37,11.11S313,60.46,317,63.58c2.41,1.87,4.31,4.84,6.46,7.29a3.22,3.22,0,0,0,1.33,1.07C333,74,341.28,76,349.52,78a6.55,6.55,0,0,0,1,.06c.68-3.46-.4-6.49-1.15-9.61-1.62-6.81-5.67-11.36-9-16.56-3.15-4.87-6.52-9.56-9.23-14.82-1.76-3.43-2.44-7.76-3.71-11.63-.61-1.87-1.44-3.62-2.27-5.66l13.16-4.93a6.33,6.33,0,0,1-.3,1.84c-3.54,5.81-2.17,11.78-.32,17.72a53.51,53.51,0,0,0,2.14,5.31c.58,1.35,1.42,2.07,2.65,1.36a32.09,32.09,0,0,1,19.52-4.25c.13,0,.27-.12.85-.4q-3.7-15.57-7.46-31.29Z" transform="translate(0 0)"/><path d="M282,116c-3.48,1-5.57-2.47-5.56-6.33,0-3.17.34-6.34.53-9.5-6.46,4-11.8,11.65-19.56,12.4l-.42-1c1.06-.94,2.09-1.94,3.18-2.81,5.55-4.42,11.14-8.75,16.64-13.25A8,8,0,0,0,279.33,92c1.82-5.53,4.68-10.09,7.44-14.8,1.13-1.92,1.52-4.56,2.48-7.62l5.12-1.82c.62,9.8-5.14,15.19-8,22.74,16.82-7.27,33.22-4.62,49.49,1.82l-.05,1c-2.45-.47-4.88-1.06-7.34-1.39-7.78-1-15.55-2.34-23.35-2.87-6.37-.43-12.49,1.83-18.38,5-3,1.62-4.56,4.61-4.69,8.71C281.88,107.06,282,111.43,282,116Z" transform="translate(0 0)"/><path d="M459.61,20.93c-10.37.06-18.75,3.8-26.05,9.38-8,6.09-10.68,14.17-13.39,22.38-4.39,13.29-5.36,26.8-5.78,40.44-.11,3.3-2.74,6.55-4.38,10.22l30.52,5.87a89.85,89.85,0,0,1-8-8c-2.06-2.54-4.37-5.65-4.3-8.47.19-7.68,1.72-15.33,2.46-23,.35-3.56,2.4-3.53,6.06-3,8.41,1.29,16.89,2.32,25.4,3,3.2.27,6.62-.45,9.81-1.12,1.35-.28,3.19-1.51,3.3-2.43s-1.5-2.22-2.76-2.83c-8-3.84-16.87-4-25.85-3.42-1.17.08-2.32.32-3.49.45-10.05,1.11-10.93.64-9-7.17,1.19-4.89,2.76-10,5.84-14.25,2.77-3.8,7.84-6.54,11.91-9.72,3.05-2.39,6.14-4.76,9.22-7.13Z" transform="translate(0 0)"/><path d="M255.69,78.63c0-2.61-.4-4.66.07-6.27a94.82,94.82,0,0,1,4.76-13.63,48.71,48.71,0,0,1,6.71-10.35,28.14,28.14,0,0,1,7-5.68c2.72-1.7,6.78.52,8.51,4.17,1.15,2.43.45,7.2-1.85,9.44-4.74,4.61-9.65,8.92-14.51,13.33-2.72,2.46-5.47,4.88-8.22,7.28C257.6,77.41,257,77.75,255.69,78.63Zm8.95-14.21.39.65A47.48,47.48,0,0,0,270,62c3.07-2.46,6.85-4,8.06-9.13a6.4,6.4,0,0,0-.73-4,2.34,2.34,0,0,0-2.65-.53C269.2,51.44,266.34,57.37,264.64,64.42Z" transform="translate(0 0)"/></g></svg>