<svg id="Layer_1" data-name="Layer 1" xmlns="http://www.w3.org/2000/svg" viewBox="0 0 550 120"><defs><style>.cls-1{fill:#fff;}</style></defs><title>captacha4</title><rect class="cls-1" width="550" height="120"/><g id="_4" data-name="4"><path d="M98.12,32.42c4.15-.4,8.32-1.24,12.44-1.07s8,1.38,12.65,2.24c.8-4.69,1.73-9.53,2.43-14.4.52-3.6.81-7.23,1.08-10.86.15-2.13.46-3.8,3.21-3.64s2.67,2,2.43,3.88c-1,8-1.91,16-3.18,23.92-.42,2.62.15,3.73,2.64,4.54,8.08,2.63,16,5.7,24.17,8.15,3.21,1,6.77.74,10.18,1,.9.07,1.81,0,2.71,0l.39.91c-.89.63-1.74,1.74-2.68,1.82-3.57.3-7.42,1.14-10.71.19-8.15-2.34-16.06-5.55-24.06-8.41l-3.76-1.35c-.81,12.34-1.49,24.21,5.78,34.74,4.37,6.33,10.1,7.86,16.6,3.56a98.14,98.14,0,0,0,14.21-12c3-3,5.77-4.93,10-2.93A2.14,2.14,0,0,0,177.92,61,11.19,11.19,0,0,0,178,55.7c-4.47-12.78-4.49-26-4.1-39.24.09-2.87.14-5.75.13-8.63,0-2,1.14-2.65,2.94-2.61s2.69.76,2.7,2.8c0,9.78-.18,19.58.48,29.32.36,5.36,2.26,10.63,3.49,15.93.28,1.2.78,2.37,1,3.59,1.24,7.87-3.35,12.26-11.13,10.41-2-.48-2.77.66-3.89,1.6-4.76,4-9.27,8.33-14.33,11.89-5.8,4.08-12.34,5.95-19.2,2.48-5.6-2.82-8.83-7.83-11-13.5-3.59-9.34-4.08-19.08-3-28.89.31-2.84-.07-4-3.13-4.54-6.91-1.27-13.78-2.12-20.78-1Z" transform="translate(0 0)"/><path d="M439.35,1.61c4.18,1.86,4.6,6.11,5.73,9.71.31,1-1.47,2.63-2.51,4.32,8.33,5,10.5,13.62,10.8,22.75.42,12.8.23,25.63.27,38.44a15.1,15.1,0,0,1-.4,2.26c-1.64,9.9-9.47,10.58-16.55,7.21-6.35-3-9.91-9.13-14-14.57-.31-.42-.41-1.51-.14-1.76.57-.51,1.61-1.08,2.18-.87a11.24,11.24,0,0,1,3.86,2.29c1.71,1.66,3.1,3.64,4.7,5.42a35.22,35.22,0,0,0,4,4.07c5.06,4.06,9,2.69,10.21-3.6a53.85,53.85,0,0,0,1-9.11c.11-7.09,0-14.19-.11-21.28,0-1.6-.23-3.19-.36-4.8-3.76,2.2-7.18,4.47-10.83,6.27a28.72,28.72,0,0,1-16.43,2.83c-1.84-.22-3.11-.95-2.76-3.32a15.25,15.25,0,0,1,2.14-.26c10.15,0,18.49-4.19,25.62-11.11a4.16,4.16,0,0,0,1-3c-.65-7.4-4.63-12.55-11.08-16a17.17,17.17,0,0,1-4.42-3.08c-4.32-4.62-3.32-10,2.22-12.83Zm1.17,8.5C439,8.94,440.15,5.83,437.05,6c-.25,0-.76,2-.51,2.94C437,10.78,438.13,12,440.52,10.11Z" transform="translate(0 0)"/><path d="M247.14,81.24c4.34-4.57,8.37-9.43,13.06-13.54,2.87-2.51,6.63-4.12,10.19-5.69a6.87,6.87,0,0,1,7.78,1.16,3.45,3.45,0,0,1,.83,2.72c-.09.44-1.73,1.08-2.38.84-5.13-1.84-8.63,1.21-12.15,4a42.42,42.42,0,0,0-11.55,13.76,39.8,39.8,0,0,0,4.77-1.24c16.19-6.57,27.41-17.56,31-35.25.7-3.47,1.37-7,1.93-10.45.29-1.8.9-3,2.9-3.35s3,.65,3.69,2.37c1.66,4.29,3.39,8.54,5,12.84.55,1.44,1.17,3.08-.83,3.94s-3.24-.47-4-2.17c-1.19-2.77-2.29-5.58-3.81-8.45-1.31,24.83-15.52,38.77-37.83,46.05.19.31.28.64.48.78,9.27,5.93,18.43,12.07,29.05,15.42,9.3,2.94,12.79.37,13.31-9.39.15-2.68,0-4.74-3.3-5-.46,0-.88-.57-1.32-.87.22-.32.29-.54.43-.6,1.32-.56,3.31-.76,3.79-1.72.58-1.16,0-3-.3-4.48-.6-3.38-1.3-6.74-2-10.27l-3.54.25c3.66-4.59,7.36-8.26,12.52-9.95,2.17-.72,4.69-.86,6.31,1.36a6.44,6.44,0,0,1,.26,7.32c-1.89,3.43-5.34,4.42-9,5.46.66,3.89,1.32,7.71,1.88,11,3.36,1.53,6.34,3.34,9.57,4.21a30.49,30.49,0,0,0,10.62,1.21c4.75-.45,7.68-4.77,7.88-10.19.25-6.82-2.48-12.79-6-18.32-2.68-4.26-6.14-8-9.18-12.07A15,15,0,0,1,316,49.92c1.08-.22,2.33-.91,3.18-.57a12.28,12.28,0,0,1,4.71,2.95,68.07,68.07,0,0,1,12.57,20.79c.51,1.33.78,2.42,2.81,2.5,1.29,0,2.53,1.71,3.77,2.69,2.59,2,4.93,4.56,7.8,6.08,3.59,1.89,6,.55,7.24-3.36,2.7-8.36,1-16.35-2.52-24a78.54,78.54,0,0,0-6.4-10.54,4.33,4.33,0,0,0-2.77-1.26c-4.32-.66-8.74-.81-13-1.82-5.17-1.24-7.65-5.43-9.13-10.22-.68-2.18-1.52-4-3.87-5-1.84-.75-1.37-4.06.62-5.43,3.28-2.27,5-2.08,7.9.62a9.35,9.35,0,0,0,3.14,1.89c2.58.88,5.31,1,7.05-1.44s.57-4.56-1.52-6.5c2.09-1.77,4.38-2.42,6.68-1.54s2.44,3.29,2.35,5.43c-.25,5.7-.29,11.27,2.9,16.42,1.29,2.06,2.62,3,4.86,2.07C359,37.87,363.52,36,368,34.1c-.42-1.31-1-2.15-.83-2.71,2.05-5.75-.48-10.7-2.6-15.72-.79-1.84-1.83-3.58-2.67-5.41-.68-1.47-1.09-3.1.8-3.93s3.62-.56,4.58,1.53c3.34,7.24,6.1,14.63,7.05,22.66,1.89,15.87,4,31.73,6,47.59.07.57.14,1.14.17,1.72.11,2,.23,4-2.61,4.13-2.66.13-3.43-1.37-3.57-3.75-.27-5-.5-10-1.13-14.9-1.14-9-2.55-18-3.83-26.81l-15,6.08c1.46,2.41,3,4.9,4.5,7.42,5.14,8.73,7.46,18,5.33,28.11-2.07,9.83-9.92,12.91-18.29,7.15-2.24-1.55-4.29-3.39-6.66-5.29a8.75,8.75,0,0,0-.45,1.58c-1,13.08-11.28,15.87-19.66,15-2.78-.31-5.47-1.56-8.19-2.42-2.05-.64-4.08-1.35-6.22-2.07-.6,3.21-1,5.95-1.63,8.63-1.41,5.71-4.88,8.36-10.8,8.22a37.08,37.08,0,0,1-17.2-5c-8.45-4.67-16.75-9.61-25.41-14.61a15.24,15.24,0,0,0-1,1.77,67.72,67.72,0,0,0-5.17,21.42c-.19,2.46-1.09,3.75-3.73,3.47s-3-1.93-2.72-4.08c1.29-8.73,2.41-17.52,7.28-25.19.92-1.45.3-2.21-.62-3.18a13.52,13.52,0,0,1-4.1-9.52c0-2.66,1.51-3.83,3.95-3.89,1.76-.05,3,.35,2.06,2.73C244.51,77.5,245.91,79.72,247.14,81.24Zm97.74-40.17-4.67-10-10,.55C329.81,37.62,337,41.3,344.88,41.07ZM307.69,67.52c-.43-.39-1.6-2-2.09-1.77a9.85,9.85,0,0,0-4.34,3c-1.25,1.67.08,4.48,1.7,4.42C305,73,307.6,70.44,307.69,67.52Z" transform="translate(0 0)"/><path d="M222.32,53.36c0,5.09-3.14,8.55-7.66,8.56-4.84,0-8.36-3.81-8.28-9,.07-4.82,3.29-8,8.19-8C219,44.82,222.35,48.45,222.32,53.36Zm-11.45-.58,3.28,4.29c1-1.19,2.53-2.23,2.9-3.6.47-1.69-.41-3.69-2.57-3.53C213.41,50,212.43,51.49,210.87,52.78Z" transform="translate(0 0)"/></g></svg>