<svg id="Layer_1" data-name="Layer 1" xmlns="http://www.w3.org/2000/svg" viewBox="0 0 550 120"><defs><style>.cls-1{fill:#fff;}</style></defs><title>captacha8</title><rect class="cls-1" width="550" height="120"/><g id="_8" data-name="8"><path d="M476.78,40.77c.1-1.32.47-2.47.17-3.51a3,3,0,0,0-2.07-1.83,4.12,4.12,0,0,0-3,1.35c-.86,1.49-1.05,3.17-1.69,4.74a4.07,4.07,0,0,1-1.62,2,112.62,112.62,0,0,1-10.24,5.16,8.73,8.73,0,0,1-4.82.16c-.63-.16-1-1.85-.76-2.76.47-1.95.88-4.06,2.23-5.71,3.32-4.09,1.82-7.88-.45-11.74-.48-.82-1.17-1.58-1.59-2.42-.8-1.62-2.24-2.28-4.5-1.69s-3,1.63-2.63,3.61A85,85,0,0,1,446.71,41c0,1.65-1.41,2.92-4,3.13-.48.05-1.19.18-1.35.43-2.64,3.93-8.55,4.21-13,6-4.2,1.7-9.07,2.5-13.65,3.68a6.24,6.24,0,0,1-1.52-.15c1.16-1.42,2.2-2.62,3.15-3.87a21.64,21.64,0,0,1,14.06-8.55c1.27-.22,2.89.71,4.38,1,1.16.23,2.39.31,3.58.45-.27-1-.1-2.32-.91-3A8.53,8.53,0,0,0,433,38.42C427.26,38,422,39,417.82,42.26c-1.27,1-2.34,2.09-4.77,2A5.22,5.22,0,0,0,409.67,46c-5.92,7.19-8.51,15.25-11,23.31-1.21,3.92-1.45,8-3.2,11.8-1,2.07-3.83,3.91-6.42,5.25s-4.9.48-6.68-1.47a13.15,13.15,0,0,1-3.63-10.2c.59-7.51,1.46-15,2.13-22.53.15-1.64.21-3.42-2.93-3.77-2.62-.29-3.93.56-4,2.53-.27,5.07-.54,10.13-.85,15.2A22.15,22.15,0,0,1,372.6,69c-.41,2.07-2.33,2.9-4.92,3s-4.44-1-4.67-2.82c-.32-2.74-.16-5.5-.34-8.24a13.56,13.56,0,0,0-.81-4.36c-.23-.57-1.64-.87-2.51-1.3-.46.66-1.23,1.3-1.31,2-.33,3-.48,6-.66,8.93-.41,6.67,4.81,11.06,14.11,9.2a7.53,7.53,0,0,1,1.24,0c.18.66.34,1.36.58,2a85.49,85.49,0,0,0,3.19,9.06c2.74,5.81,12.7,5.63,17.68,3.15,7.91-4,9.66-10,11.73-16.07,1.41-4.12,2.91-8.23,4.29-12.35.52-1.53,1.75-2.11,3.8-2.71,8.67-2.5,17.19-5.27,25.71-8,1.53-.5,2.71-1.56,4.21-2.13,2-.76,3.56-.64,4.26,1.4,1,2.9,6.41,4.76,10,3.51,2.93-1,5.71-2.24,8.87-3.5-1.27,3-2.36,6.07-3.82,9-2.09,4.19-4.45,8.31-6.68,12.46a9.7,9.7,0,0,0-1,2.11c-.45,1.8.49,3.12,2.92,3.65s3.88-.27,4.68-2c3.95-8.44,8.13-16.83,11.82-25.33,1.31-3,3.2-5,7.63-5.49,2.92-.31,5.8-1,8.72-1,4.77-.13,6.71,1.62,5.48,4.94a17.36,17.36,0,0,0,.74,13.64A7,7,0,0,0,506.81,66c5-2.43,8.05-6.1,10.84-10-2.69-1.4-3.88,0-5.14,1.11-1.71,1.56-3.34,3.17-5.13,4.67a3.43,3.43,0,0,1-2.24.72,2.38,2.38,0,0,1-1.55-1.39,7.69,7.69,0,0,1-.11-2.87c.33-3,1-6.09,1.06-9.13.07-7-6.68-11.23-16.15-10.17C484.59,39.34,480.86,40.11,476.78,40.77Z" transform="translate(0 0)"/><path d="M126,89.65c.34,3.16.65,5.81.91,8.47a4.1,4.1,0,0,1-.07,2.41,3.62,3.62,0,0,1-2.35,1.61,3.06,3.06,0,0,1-2.36-1.45,63.41,63.41,0,0,1-1.32-9.94c-.09-2.42-1.36-3.59-4.53-4.3-8.06-1.78-16.16-3.55-24-5.83-10-2.91-16.06-5.92-15-15.52.93-8.83,2.58-17.62,3.8-26.44.21-1.49-.23-3-.25-4.53,0-.94-.26-2.15.41-2.79C86,26.82,89,21.17,96.54,18.56a11.79,11.79,0,0,1,5.55-.64c.94.18,1.61,1.94,1.86,3.06.51,2.32.65,4.68,1,7,.4,3,1.36,5.57,6.48,5.84.77,0,1.46.95,2.19,1.47A22.66,22.66,0,0,1,111,37.19a5.47,5.47,0,0,1-2,.14l-1.92.1a27.65,27.65,0,0,0,.76,5.14c1.22,3.53-1.83,5.63-5.16,6.83-2.3.83-5.76.35-8.54-.09s-5.27-1.58-8.16-2.5a9.71,9.71,0,0,0-.7,1.95c-.6,5.67-1.39,11.33-1.66,17-.28,5.9,3.88,9,11.57,11,6.68,1.69,13.4,3.3,20.12,4.94,1.25.3,2.52.56,4.21.93a13.81,13.81,0,0,0,.17-2.25c-1.25-12.78,1.11-25.34,4.66-37.79,1.79-6.28,4-12.5,6-18.74.56-1.74,1.5-3.23,4.5-2.55s2.1,2.28,1.52,3.81c-5.53,14.78-9.85,29.72-11,45.06-.31,4.21.08,8.45.05,12.68,0,1.44.79,2.12,2.65,2.61,5.18,1.38,10.31,2.87,15.34,4.5,1.14.37,2.63,1.57,2.53,2.27-.25,1.62-2.31,2.23-4.31,1.76-3.14-.74-6.12-1.81-9.2-2.68C130.59,90.74,128.69,90.32,126,89.65Zm-24-47.13a2.86,2.86,0,0,0-.1-1c-.78-1.79-1-4.64-2.55-5.12-3.19-1-7.11-.68-10.73-.88a1.38,1.38,0,0,0-.79.39c-2,1.84-1,6.92,1.82,8.11a29.9,29.9,0,0,0,6.55,2.05C101.23,47,102.27,46.21,102.07,42.52Zm-3.5-19.76-1.43-.46c-2.62,2.51-5.31,5-7.84,7.54-.88.89-1.34,2.14.93,2.33,3.25.27,6.53.29,10.15.44Z" transform="translate(0 0)"/><path d="M294.35,57.74c.43-8.13,2.41-17.51,8.57-26.19a18.52,18.52,0,0,1,5.51-4.73A7.46,7.46,0,0,1,317.15,28a22.71,22.71,0,0,0,3.15,2.77,4,4,0,0,0,2.52.34,1.58,1.58,0,0,0,1-1.4c-.74-4.5-12.14-9-17.47-6.79a19.63,19.63,0,0,0-9.76,8.44c-6.45,11.53-9.05,23.49-7.18,35.88A24.69,24.69,0,0,0,299,83.83a31.73,31.73,0,0,0,25.66,5.23C333,87,337.31,78.75,336,73.38a2.66,2.66,0,0,0-1.9-1.36,3.53,3.53,0,0,0-2.33,1.4,22.9,22.9,0,0,0-.92,4c-.77,3.06-3,5.57-6.48,7.32C320.11,86.8,311,86,307.09,83.33,297.69,77,294.22,70.43,294.35,57.74Z" transform="translate(0 0)"/><path d="M236.86,92.57c-8.51.13-15.17-3.15-19.11-10.84C214.29,75,216,68.4,220,62.63a238.69,238.69,0,0,1,16-20.56,14.22,14.22,0,0,1,17.55-2.82c11.51,6.48,18,17.55,13.73,30.84C263.42,82.32,251,93,236.86,92.57ZM259.75,61.5c.62-5-2.82-9.11-6.44-12.86-3.47-3.58-10.65-3.91-13.4-.2a153.15,153.15,0,0,0-14.3,22.32c-3.1,6.19.43,11.59,7.21,13.55C245.79,88.08,259.77,76.7,259.75,61.5Z" transform="translate(0 0)"/><path d="M207.47,42.11c-1.68,7.92-3.27,15.47-4.88,23a35.62,35.62,0,0,1-10.77,19.53c-6.47,5.91-22.65,6.48-26.06-2.88a19.26,19.26,0,0,1-.52-10.14,74.16,74.16,0,0,1,5-14.28c.83-1.88,2.9-4.36,4.5-4.44s3.69,2.27,4.95,4a9.55,9.55,0,0,1,1.93,5.62c-.1,1.76-1.23,4.21-2.66,5-3.57,1.94-6.17,6.63-4.83,10.23,1.18,3.17,5.3,4,9.71,2.13,5.11-2.18,7-6.91,8.33-11.47,2.59-9.06,4.51-18.32,6.33-27.57.28-1.39-1.24-3.38-2.36-4.73-.79-1-2.63-1-3.45-2-1.07-1.21-2.6-3.64-2.15-4.23a8.43,8.43,0,0,1,5-3.13c1.63-.26,3.56.85,5.25,1.6,4.58,2,9.19,4,13.6,6.41,1.48.79,2.4,2.62,3.58,4-1.73,1.32-3.3,3-5.23,3.85C211.47,43.11,209.72,42.37,207.47,42.11Z" transform="translate(0 0)"/></g></svg>