<svg id="Layer_1" data-name="Layer 1" xmlns="http://www.w3.org/2000/svg" viewBox="0 0 550 120"><defs><style>.cls-1{fill:#fff;}</style></defs><title>captacha7</title><rect class="cls-1" width="550" height="120"/><g id="_7" data-name="7"><path d="M288.38,19.06l-22.27,5.58c.68,4.64,1.14,10,2.3,15.2,1.53,6.88,3.72,13.61,5.39,20.47A53.91,53.91,0,0,0,284.2,81.2c3,3.76,7.59,6.32,11.62,9.2,1.55,1.11,3.63,1.46,5.25,2.49A19,19,0,0,1,304.2,96c-1.85,1-4.11,3.15-5.47,2.69-5.19-1.77-10.57-3.73-15-6.86-5.93-4.2-9.63-10.47-13-17-5.84-11.26-7.52-23.45-9.49-35.64-.77-4.8-1.72-9.58-2.59-14.39-9-1.19-16.68,2.87-21.58,10.32-4.31,6.54-4.6,13.8-5.27,21.08-.37,4.12-.31,8.28-.82,12.37a8,8,0,0,1-2.31,4.65c-.93.82-2.93.83-4.33.55-.66-.12-1.51-1.79-1.44-2.7.76-9.91.62-20,2.84-29.64,2.93-12.61,12.8-20.83,26-22.51,8.46-1.07,17.05-1.57,25.33-3.41,4-.88,7.38-4.34,11.11-6.51,1.63-1,3.69-2.59,5.1-2.22,2.68.72,4,2.91,3.87,6.25-.17,4.71-.19,9.67,1.08,14.14,4.36,15.38,16,22.77,30.8,25.85,4.86,1,10.06.75,15.08.49,7.82-.41,13.52,2,17.77,9.07,7.19,12,9.69,24.82,8.94,38.48-.11,2,.17,3,2.15,3.72a24.35,24.35,0,0,0,16,1c3.37-1,5.44-2.82,4.81-6.72a28,28,0,0,1-.49-6.56c.11-1.49.79-3.9,1.69-4.14a6.47,6.47,0,0,1,5.24.95c5.25,4.69,3.13,17.93-3.17,21-10,4.92-20,4.24-29.91-.44a6.53,6.53,0,0,0-4.59-.12,19.94,19.94,0,0,1-16.21-.62,6,6,0,0,1-2.79-2.42,4.35,4.35,0,0,1,0-3.55c.34-.59,2.1-.66,3.16-.51,4.31.64,8.59,1.44,12.87,2.18a25.59,25.59,0,0,0,1.54-17.3c-2.59-9.72-4.13-20.11-13-26.77a7,7,0,0,0-4.48-1.28c-19.27,1.77-35.72-2.9-47.87-19.16C290.81,33.78,289.58,26.35,288.38,19.06Z" transform="translate(0 0)"/><path d="M75.85,49.62c6.31-1,11.52-1.83,16.75-2.53a8.82,8.82,0,0,1,3.82.36,2.57,2.57,0,0,1,1.44,1.91c0,.55-1,1.42-1.63,1.61-4.71,1.37-9.47,2.55-14.19,3.88-1.86.53-3.65,1.3-5.48,2a5.12,5.12,0,0,0-3.72,5.25c.07,5.67-.58,11.46.36,17,.87,5.07,3.41,9.85,5.29,14.74.71,1.85,2.6,3.87-.08,5.37-2.4,1.34-5.06,1.33-7-1.14a16.26,16.26,0,0,1-2.11-3.69C65.38,84.92,62.83,75.11,64.75,65s4-20.6,7.8-30.25C79,18.22,91.89,9.57,109.61,7.38c11.68-1.44,22.65-.55,33.12,5.13,5.83,3.17,7.53,8,3.4,11.56a7.51,7.51,0,0,1-5.26,1.32c-.91-.1-2-2.11-2.29-3.43-1.66-6.53-7.28-7.9-12.47-8.91C113.22,10.54,101,12.7,90.7,21.22c-3.74,3.11-6.63,7.61-8.87,12C79.29,38.21,77.92,43.78,75.85,49.62Z" transform="translate(0 0)"/><path d="M435,18.76c7.68-8.56,24.61-10.38,36-2.21,5.45,3.93,8.71,10,10.85,16.52,6.37,19.37,6.27,38.72-1.16,57.69-2.88,7.36-7.19,14.18-14.18,18.75-5.09,3.33-10.78,4.22-16.66,4.24-1,0-2.06-1.18-3.08-1.82.71-1.1,1.22-2.45,2.2-3.22a7.49,7.49,0,0,1,3.61-1.27c5.63-.71,9.66-3.9,13.22-8,6.94-8,10.22-17.49,11.52-27.77,1.84-14.61.74-29-5.22-42.58-3.54-8.06-11.24-12.56-20.36-11.74-2.6.23-5,2.3-7.54,3.57C439,23.56,439,23.57,435,18.76Z" transform="translate(0 0)"/><path d="M120.2,107.23c-.67-19.45,1.83-38.42,4.41-57.36.92-6.73,2.66-13.35,4.15-20,.66-2.95,1.87-5.5,5.76-4.69,2.91.62,3,2.26,2.43,4.86a365.59,365.59,0,0,0-8.88,71.28c-.08,2.65-.41,5,3.32,5.7,2.24.45,2.26,3.45.3,4.92a5.07,5.07,0,0,1-1.7.9c-11.06,2.64-21.6,2.18-30.68-5.64-.75-.65-1.13-3-.59-3.6,1.32-1.47,3-2.46,5.36-.85C110.19,106.93,114.48,108,120.2,107.23Z" transform="translate(0 0)"/><path d="M202.83,26.72c-1.59,7.51-3.05,14.46-4.51,21.36-6.82-.83-7.29-1.23-6.29-7.2.92-5.55,2.18-11.05,3.48-16.52.53-2.27,0-3.24-2.34-3.81-5.81-1.43-11.51-2.64-16.16,2.59a10.32,10.32,0,0,0-2.33,3.8c-1.36,4.84-2.26,9.82-3.73,14.63-2,6.6-4.37,13.12-6.7,19.63a9.32,9.32,0,0,1-2.46,3.89c-1,.87-2.85,1.68-3.94,1.33-.82-.26-1.69-2.58-1.4-3.69,1.94-7.46,4.23-14.82,6.31-22.24,1.11-4,2-8,3-12,3.68-14.64,11.49-16.86,25.36-14.59,2.78.46,5.4,2.82,8.58.42.5-.38,4.34,1.85,4.45,3.06.36,4.23,3.82,4.83,6.36,6.45,2.35,1.51,5,2.6,8.26,4.27C213,32,208.44,29.93,202.83,26.72Z" transform="translate(0 0)"/><path d="M401.82,33.6c1.42,5.58,1.82,11.71,4.48,16.61a23.87,23.87,0,0,0,20.61,12.93,29.3,29.3,0,0,1,5.27.8c2.5.59,3.31,2.12,2.47,4.65a10.34,10.34,0,0,0-.12,3.39c.15,6.42.66,12.86.4,19.26-.29,7.12-5.18,12.14-9.53,17.15-.94,1.09-3.65.66-5.55.94-.17-1.8-.75-3.69-.36-5.36s1.62-2.93,2.71-4.18c6.93-8,6.93-17.66,7-27.37,0-2.79-1.84-2.7-3.79-3.24-5.42-1.49-11.15-2.57-16-5.16-8.71-4.61-13.59-12.36-14.5-22.29-.33-3.59-.25-7.23-.39-10.84-.11-2.86.68-4.91,4.11-4.6,3.14.29,5.24,1.47,4.39,5.16a17.81,17.81,0,0,0-.22,1.93Z" transform="translate(0 0)"/><path d="M176.62,72.06c-6.28,12.08-5.76,24.19-4.27,36.3C165.79,101.84,167.88,80.84,176.62,72.06Z" transform="translate(0 0)"/><path d="M195.73,62.52c3.64,5.18,3.62,14.07,0,19.09Z" transform="translate(0 0)"/></g></svg>