<svg id="Layer_1" data-name="Layer 1" xmlns="http://www.w3.org/2000/svg" viewBox="0 0 550 120"><defs><style>.cls-1{fill:#f4f2f2;}</style></defs><title>captacha8</title><rect class="cls-1" width="550" height="120"/><path d="M254.87,60.34a12.86,12.86,0,0,1-.11-3.17c.14-.66.88-1.65,1.37-1.66a2.5,2.5,0,0,1,2,1.22A37.85,37.85,0,0,1,259.21,61a3.78,3.78,0,0,0,1.08,1.85,67.87,67.87,0,0,0,6.78,4.66,4.35,4.35,0,0,0,3.2.15c.42-.15.65-1.68.51-2.49A15.3,15.3,0,0,0,269.3,60c-2.2-3.7-1.21-7.12.29-10.61.32-.74.78-1.43,1.06-2.19.53-1.46,1.48-2.06,3-1.52s2,1.47,1.75,3.26a102.11,102.11,0,0,0-.57,11.61,2.74,2.74,0,0,0,2.65,2.84c.31,0,.78.16.89.38,1.75,3.56,5.67,3.8,8.61,5.43s6,2.26,9.05,3.33c.16,0,.38-.05,1-.14-.77-1.28-1.46-2.38-2.08-3.5-2.11-3.8-5-6.68-9.33-7.73-.84-.2-1.91.64-2.9.91a23.18,23.18,0,0,1-2.38.41c.18-.92.07-2.1.61-2.7a5,5,0,0,1,2.93-1.58c3.83-.34,7.34.52,10.09,3.48.84.91,1.55,1.88,3.16,1.77.72,0,1.78.89,2.24,1.64,3.92,6.5,5.64,13.79,7.29,21.07.8,3.54,1,7.27,2.12,10.67.63,1.86,2.54,3.53,4.25,4.74s3.26.44,4.43-1.33A14.73,14.73,0,0,0,319.86,91c-.39-6.8-1-13.58-1.41-20.37-.1-1.48-.14-3.09,1.94-3.41,1.73-.26,2.61.51,2.67,2.29.18,4.58.36,9.16.57,13.74a25.26,25.26,0,0,0,.31,2.6c.27,1.87,1.54,2.62,3.26,2.7A2.69,2.69,0,0,0,330.29,86c.22-2.47.11-5,.23-7.45a16.27,16.27,0,0,1,.54-3.94c.15-.51,1.08-.78,1.66-1.17a5.79,5.79,0,0,1,.87,1.79c.22,2.69.31,5.38.44,8.07.27,6-3.19,10-9.36,8.32a3.7,3.7,0,0,0-.82,0c-.12.59-.23,1.23-.38,1.85-.69,2.73-1.2,5.53-2.12,8.19-1.82,5.24-8.42,5.09-11.72,2.84-5.25-3.57-6.4-9-7.78-14.53-.93-3.72-1.92-7.43-2.84-11.16-.34-1.38-1.16-1.91-2.52-2.44-5.75-2.27-11.4-4.77-17-7.27-1-.45-1.8-1.41-2.79-1.92-1.35-.69-2.37-.58-2.83,1.25a5.16,5.16,0,0,1-6.66,3.18c-1.94-.9-3.78-2-5.87-3.16.83,2.73,1.56,5.48,2.53,8.15,1.38,3.79,2.95,7.51,4.43,11.26a11.24,11.24,0,0,1,.63,1.91,2.61,2.61,0,0,1-1.93,3.3c-1.58.46-2.58-.25-3.1-1.78-2.63-7.62-5.39-15.2-7.84-22.89-.87-2.73-2.12-4.54-5.06-5a58,58,0,0,0-5.78-1C242,62.45,240.73,64,241.55,67a21,21,0,0,1-.49,12.32,7.21,7.21,0,0,1-2.39,3.58,4.12,4.12,0,0,1-3.71.16c-3.29-2.2-5.33-5.52-7.18-9,1.78-1.27,2.57,0,3.41,1,1.13,1.41,2.21,2.86,3.4,4.22a1.34,1.34,0,0,0,2.51-.61,9.34,9.34,0,0,0,.07-2.59c-.22-2.75-.69-5.5-.7-8.25-.05-6.34,4.43-10.15,10.7-9.2C249.69,59.05,252.17,59.74,254.87,60.34Z"/><path d="M212.58,73.18c.21,2.61.4,4.81.55,7a4.57,4.57,0,0,1,0,2c-.25.58-.9,1.29-1.43,1.34a1.92,1.92,0,0,1-1.44-1.2,73.46,73.46,0,0,1-.8-8.23,3.3,3.3,0,0,0-2.75-3.56c-4.9-1.48-9.82-2.94-14.57-4.83-6.07-2.41-9.76-4.9-9.14-12.86.56-7.31,1.57-14.59,2.31-21.89a36.42,36.42,0,0,0-.16-3.75c0-.78-.15-1.78.25-2.31,2.85-3.74,4.68-8.42,9.29-10.58a5.48,5.48,0,0,1,3.38-.54c.57.15,1,1.61,1.13,2.54.31,1.92.39,3.88.58,5.82.24,2.47.83,4.62,3.94,4.84.47,0,.89.79,1.33,1.21a14.71,14.71,0,0,1-1.6,1.56c-.27.2-.78.08-1.18.11l-1.17.08a31,31,0,0,0,.46,4.26c.74,2.93-1.11,4.66-3.13,5.65-1.4.69-3.51.3-5.2-.07a29.55,29.55,0,0,1-4.95-2.07,9.07,9.07,0,0,0-.43,1.61c-.37,4.7-.85,9.39-1,14.09-.17,4.89,2.36,7.47,7,9.07,4.06,1.39,8.15,2.73,12.23,4.09.76.25,1.53.46,2.56.77a14.53,14.53,0,0,0,.1-1.86c-.75-10.59.68-21,2.84-31.3,1.08-5.2,2.43-10.35,3.66-15.52.34-1.43.91-2.67,2.73-2.1s1.28,1.88.93,3.15c-3.37,12.23-6,24.61-6.69,37.31-.2,3.49,0,7,0,10.5a2,2,0,0,0,1.62,2.17c3.14,1.14,6.26,2.37,9.32,3.72.69.31,1.6,1.3,1.54,1.88a1.85,1.85,0,0,1-2.62,1.45c-1.91-.61-3.72-1.49-5.59-2.22C215.35,74.08,214.2,73.73,212.58,73.18ZM198,34.15a3.1,3.1,0,0,0,0-.81c-.48-1.47-.61-3.84-1.56-4.23-1.94-.81-4.32-.57-6.52-.73-.15,0-.36.17-.48.32-1.23,1.52-.61,5.73,1.11,6.72a14.68,14.68,0,0,0,4,1.69C197.5,37.82,198.14,37.2,198,34.15Zm-2.13-16.36L195,17.4c-1.6,2.08-3.23,4.13-4.77,6.24-.54.75-.81,1.78.57,1.94,2,.22,4,.24,6.17.36Z"/><path d="M364.52,77.27c-.28-7.35-1.56-15.83-5.54-23.68a14.3,14.3,0,0,0-3.56-4.27c-1.79-1.5-4.19-.89-5.64,1a18.31,18.31,0,0,1-2,2.5,2,2,0,0,1-1.63.31c-.32-.09-.68-.85-.63-1.27.48-4.07,7.85-8.15,11.29-6.13a15.18,15.18,0,0,1,6.31,7.62,66.84,66.84,0,0,1,4.64,32.43c-.61,5.6-2.35,10.87-6.22,15s-10.32,6.89-16.59,4.72c-5.4-1.87-8.17-9.31-7.31-14.16.09-.5.91-1.31,1.23-1.24a2.3,2.3,0,0,1,1.5,1.27,27.7,27.7,0,0,1,.6,3.57,10,10,0,0,0,4.19,6.62c2.74,1.9,8.63,1.14,11.16-1.24C362.36,94.66,364.6,88.73,364.52,77.27Z"/><path d="M247.45,49.57c-3.4.06-6.06-1.25-7.63-4.32-1.38-2.7-.69-5.32.92-7.62a92,92,0,0,1,6.38-8.21,5.67,5.67,0,0,1,7-1.13c4.59,2.59,7.17,7,5.48,12.31C258.05,45.48,253.11,49.75,247.45,49.57Zm9.13-12.4c.25-2-1.12-3.63-2.57-5.13s-4.25-1.56-5.34-.08A61,61,0,0,0,243,40.87c-1.24,2.47.17,4.62,2.87,5.41C251,47.78,256.59,43.24,256.58,37.17Z"/><path d="M235.72,29.43c-.67,3.17-1.3,6.18-1.95,9.19a14.2,14.2,0,0,1-4.3,7.8c-2.58,2.35-9,2.58-10.4-1.16a7.79,7.79,0,0,1-.21-4,30.12,30.12,0,0,1,2-5.7c.33-.75,1.16-1.74,1.8-1.77s1.47.9,2,1.59a3.77,3.77,0,0,1,.77,2.24,2.7,2.7,0,0,1-1.06,2c-1.42.78-2.46,2.65-1.93,4.09.47,1.26,2.12,1.59,3.88.85,2-.87,2.8-2.76,3.32-4.58,1-3.61,1.8-7.31,2.53-11,.11-.56-.5-1.35-.94-1.89-.32-.38-1.05-.42-1.38-.79s-1-1.46-.86-1.69a3.32,3.32,0,0,1,2-1.25A4.29,4.29,0,0,1,233,24c1.83.81,3.67,1.61,5.43,2.55.59.32,1,1.05,1.43,1.59a11.24,11.24,0,0,1-2.09,1.54C237.32,29.83,236.62,29.54,235.72,29.43Z"/></svg>