<svg id="Layer_1" data-name="Layer 1" xmlns="http://www.w3.org/2000/svg" viewBox="0 0 550 120"><defs><style>.cls-1{fill:#f4f2f2;}</style></defs><title>captacha5</title><rect class="cls-1" width="550" height="120"/><path d="M453.56,54.55l-14,2-.16-.84c4.38-2.54,9.49-3,14.17-4.63Z"/><path d="M126.83,82.47H109.48v-.13c5.25-1,10.5-2,15.77-3,1.81-.33,2.35-1.25,2.57-3,1.45-11.8,11.77-23.26,24.79-23.71,6.43-.22,10.13,2.79,9.95,8.61-.11,3.26-1.69,6.23-4.13,9.29,0-2.73,0-4.84,0-6.94a8.51,8.51,0,0,0-.48-3.12c-1.65-3.68-3.55-4.61-7.64-4-7.24,1.15-12,5.33-14.69,12a69,69,0,0,0-2.13,6.62,11.5,11.5,0,0,0-.14,2.34c2.87-.42,5.53-.93,8.21-1.18,8.63-.8,17.28-1.08,25.58,1.9,5,1.8,6.65,4.39,5.94,8.94a28.82,28.82,0,0,1-1.6,5.5c-1.09,3,.1,5.85,3.15,6.12,5.88.51,11.4-.84,15.84-5,2.13-2,2.35-6.17,1.17-8.88-2-4.62-3.92-9.35-3.35-14.52.22-2,1.15-4,1.73-6,.16-.53.23-1.08.48-2.28-3.45,2.28-6.62,4-9.36,6.27A104.87,104.87,0,0,0,172.23,77c-1.18,1.25-2.61,1.55-3.49.52-.57-.66-.33-2.59.25-3.51a22.3,22.3,0,0,1,3.75-3.91c6.09-5.8,13.5-9.54,21-13.12a32.38,32.38,0,0,1,4.93-1.49c-1.29,3.31-2.57,6.16-3.5,9.11-1.19,3.76-.8,7.49-.1,11.4.87,4.82,4.63,5.93,8,7.35,3.91,1.67,8.17,2.54,12.27,3.75,1.09-2.83,1.92-5.35,3-7.75C224.94,65,236.72,56.46,251,50.8c3.65-1.45,7.45-2.52,11.19-3.72a23.79,23.79,0,0,1,2.67-.53l.25.49c-.59.36-1.15.76-1.76,1.07-7,3.54-14,6.92-20.88,10.63A33.26,33.26,0,0,0,230.3,70a35.36,35.36,0,0,0-3.84,9.32c-.91,3.16-1.2,6.5-1.9,10.52L241,87.41l.39.29c-.34.15-.68.31-1,.45A61.23,61.23,0,0,1,220.9,93c-2.47.18-4.71-.12-5.94-2.7a1.64,1.64,0,0,0-1.06-.79,46.47,46.47,0,0,1-15.81-5.18,2.6,2.6,0,0,0-.69-.11c1.1,3,2,5.92,3.27,8.75.68,1.61.64,2.67-1.24,2.92-2.31.3-4.64.39-7,.61a6.22,6.22,0,0,0-2.16.45c-5.24,2.56-10.62,4.69-16.52,5a29.51,29.51,0,0,1-5.78-.32c-3.44-.48-4.64-3.92-3.78-6.68s2-5.29,3-7.92a4.6,4.6,0,0,0-3-6.15,33.54,33.54,0,0,0-8.15-1.72,84.9,84.9,0,0,0-21.45,1.49c-1.51.28-2.22.88-2.13,2.52.49,9.35,4,17.06,12.45,21.71,3.62,2,7.65,3,11.45-.13a1.59,1.59,0,0,1,1.51.08c.39.67.88,1.78.59,2.23a5.44,5.44,0,0,1-2.7,2.39c-8.26,1.88-18.6.15-23.78-9.06-2.48-4.43-4.4-8.84-4.46-14A22.79,22.79,0,0,0,126.83,82.47Z"/><path d="M376.82,3.81c.31,1.4.62,2.75.9,4.1,1.08,5.27,2.23,10.52,3.2,15.81.54,2.92.55,6,2.68,8.35-1,3.27.87,6.16,1.38,9.21.92,5.55,1.9,11,1.69,16.73-.1,2.64,2.46,3.92,5.37,2.72a20,20,0,0,0,5-2.87A8.89,8.89,0,0,1,404.45,56a3.25,3.25,0,0,1,2.14,1.64c.18.42-.7,1.61-1.37,2-4.8,3-10.18,4.42-15.65,5.59-2,.43-4.09.77-6.14,1.13-1.27.23-2-.12-2.09-1.62-.32-4.56-.58-9.13-1.24-13.65-.82-5.6-1.05-11.36-3.46-16.61a3.08,3.08,0,0,0-2.14-1.6c-5.47,0-10.92.35-16,2.7-.64.29-1.23.68-2.09,1.17,2.45,3.31,4.89,6.5,7.22,9.77,2.54,3.54,5.22,7,5.46,11.67a13.72,13.72,0,0,0,.8,3.48,1.75,1.75,0,0,0,1.06,1c1.18.24,1.9.7,1.54,2-.43,1.51-1.48.94-2.44.68-.27-.07-.55-.08-1-.14-1.51,5.8-4.47,10.5-10.31,13.34,2.18-4.87,5-9.26,4.39-14.84l-17.26-3.22-6.36-1.18c-2.45-.46-3.06,0-3.2,2.47a11.52,11.52,0,0,0,.24,2.33c.17,1.1.4,2.19.6,3.3-4.53.64-6.93-1.25-6.87-4.19,0-.78-.12-1.57-.13-2.36,0-3.68,0-3.67-3.67-4.57a20,20,0,0,1-4.88-1.67h7.1c-.8-2.6-3.17-3.49-5.15-4.59-5.21-2.9-10.6-5.49-15.79-8.44a18.47,18.47,0,0,1-7-6.66c-1.73-2.93-1.12-5.64.63-8.15a20.3,20.3,0,0,1,3.62-3.55c1.78-1.53,3.86-1.5,6.08-1.16,6.19.94,12.25,2.22,17.75,5.36a10.07,10.07,0,0,1,1.67,1.54l-.39.86c-1.75-.35-3.52-.63-5.25-1.07-4.44-1.14-8.83-2.44-13.29-3.5-2.78-.66-4.62,1-6,3.14a5.51,5.51,0,0,0-.25,6.38c2.68,4.33,7.07,6.38,11.37,8.55s8.54,4,12.56,6.37c2.41,1.44,4.31,3.72,6.46,5.6a3.2,3.2,0,0,0,1.33.83c8.23,1.59,16.47,3.13,24.71,4.68a8.44,8.44,0,0,0,1,.05c.68-2.66-.4-5-1.15-7.4-1.62-5.23-5.67-8.73-9-12.73-3.15-3.75-6.52-7.36-9.23-11.41-1.76-2.63-2.44-6-3.71-8.94-.61-1.44-1.44-2.79-2.27-4.36l13.16-3.79c-.12.65-.08,1.14-.3,1.42-3.54,4.47-2.17,9.06-.32,13.63A37,37,0,0,0,352,31.46a1.9,1.9,0,0,0,2.65,1,40.23,40.23,0,0,1,19.52-3.27c.13,0,.27-.09.85-.31q-3.71-12-7.46-24.07Z"/><path d="M294.27,90.08c-3.49.77-5.57-1.9-5.56-4.87,0-2.44.34-4.88.53-7.31-6.46,3.08-11.8,9-19.56,9.54l-.42-.73c1.06-.72,2.09-1.49,3.18-2.16,5.55-3.4,11.14-6.73,16.64-10.2a6.46,6.46,0,0,0,2.53-2.71c1.82-4.25,4.68-7.76,7.44-11.39,1.13-1.47,1.52-3.5,2.48-5.85L306.65,53c.62,7.54-5.14,11.69-8,17.5,16.82-5.59,33.22-3.56,49.49,1.4l-.05.73c-2.45-.36-4.88-.82-7.34-1.07-7.78-.8-15.55-1.8-23.35-2.21C311,69,304.88,70.75,299,73.18a7.11,7.11,0,0,0-4.69,6.71C294.16,83.23,294.27,86.59,294.27,90.08Z"/><path d="M409.78,9.34c4.43,0,8,2,11.13,5,3.41,3.25,4.57,7.55,5.72,11.93,1.88,7.08,2.29,14.29,2.48,21.56,0,1.76,1.16,3.49,1.87,5.45L417.93,56.4a43.08,43.08,0,0,0,3.44-4.28c.88-1.36,1.87-3,1.84-4.52-.09-4.09-.74-8.17-1.06-12.26-.14-1.9-1-1.88-2.59-1.58-3.59.69-7.22,1.24-10.85,1.62a12.37,12.37,0,0,1-4.19-.6c-.58-.15-1.37-.81-1.42-1.3s.65-1.18,1.19-1.5c3.42-2.05,7.21-2.16,11-1.83.49,0,1,.17,1.48.24,4.3.59,4.68.34,3.87-3.82a24.44,24.44,0,0,0-2.5-7.6c-1.19-2-3.35-3.48-5.09-5.18-1.31-1.28-2.63-2.54-3.94-3.8Z"/><path d="M268,61.36c0-2-.39-3.58.08-4.82a63.23,63.23,0,0,1,4.76-10.49,38.37,38.37,0,0,1,6.71-8,28.44,28.44,0,0,1,7-4.37c2.72-1.3,6.78.4,8.51,3.21,1.15,1.87.45,5.54-1.85,7.26-4.74,3.55-9.65,6.87-14.51,10.26-2.72,1.89-5.47,3.75-8.22,5.6C269.88,60.43,269.25,60.69,268,61.36Zm9-10.93.39.5a48.87,48.87,0,0,0,4.94-2.39c3.07-1.89,6.85-3.11,8.06-7a4,4,0,0,0-.73-3.12,2.87,2.87,0,0,0-2.65-.41C281.48,40.45,278.62,45,276.92,50.43Z"/></svg>