<svg xmlns="http://www.w3.org/2000/svg" width="550" height="120" viewBox="0 0 550 120"><rect width="100%" height="100%" fill="#DDDDDD"/><path fill="#999999" d="m139.335 37.945-1.98 3.75q-.35.62-.75.9t-.99.28q-.62 0-1.34-.46-.73-.45-1.73-1.01t-2.34-1.02q-1.35-.46-3.18-.46-1.65 0-2.89.4-1.24.4-2.08 1.11-.84.7-1.25 1.69-.41.99-.41 2.17 0 1.5.84 2.51.84 1 2.22 1.71 1.39.71 3.16 1.27 1.77.56 3.63 1.19 1.86.64 3.63 1.48 1.77.84 3.15 2.12 1.39 1.28 2.23 3.14.84 1.86.84 4.52 0 2.89-.99 5.41-.98 2.52-2.89 4.4-1.9 1.87-4.64 2.95-2.75 1.07-6.29 1.07-2.03 0-4.01-.4-1.97-.39-3.79-1.13-1.81-.74-3.41-1.77-1.59-1.03-2.83-2.3l2.33-3.81q.3-.41.77-.69.47-.28 1-.28.74 0 1.6.6.85.61 2.03 1.34 1.18.74 2.76 1.35 1.58.6 3.79.6 3.39 0 5.25-1.61 1.86-1.6 1.86-4.61 0-1.68-.84-2.75-.84-1.06-2.23-1.78-1.39-.72-3.16-1.23-1.77-.5-3.59-1.09-1.83-.59-3.6-1.41-1.77-.83-3.16-2.16-1.39-1.32-2.23-3.31-.84-2-.84-4.92 0-2.33.93-4.54t2.7-3.92q1.77-1.71 4.37-2.75 2.59-1.03 5.96-1.03 3.77 0 6.96 1.18 3.18 1.18 5.43 3.3Zm19.91 7.91q3.36 0 6.12 1.09 2.76 1.09 4.72 3.1t3.02 4.9q1.07 2.89 1.07 6.46 0 3.6-1.07 6.49-1.06 2.89-3.02 4.92-1.96 2.04-4.72 3.13-2.76 1.09-6.12 1.09-3.39 0-6.17-1.09-2.77-1.09-4.73-3.13-1.96-2.03-3.04-4.92t-1.08-6.49q0-3.57 1.08-6.46t3.04-4.9q1.96-2.01 4.73-3.1 2.78-1.09 6.17-1.09Zm0 25.58q3.77 0 5.59-2.54 1.81-2.54 1.81-7.43 0-4.9-1.81-7.47-1.82-2.56-5.59-2.56-3.84 0-5.68 2.58-1.84 2.58-1.84 7.45 0 4.86 1.84 7.42 1.84 2.55 5.68 2.55Zm27.79 5.16h-7.29v-30.27h4.46q1.41 0 1.85 1.33l.48 2.24q.79-.88 1.66-1.62.87-.74 1.86-1.27.99-.53 2.13-.84 1.13-.31 2.49-.31 2.86 0 4.7 1.55 1.85 1.55 2.76 4.11.71-1.5 1.77-2.58 1.06-1.07 2.33-1.75 1.27-.68 2.7-1 1.43-.33 2.88-.33 2.5 0 4.45.77 1.95.76 3.28 2.24 1.32 1.47 2.02 3.6.69 2.12.69 4.87v19.26h-7.29v-19.26q0-2.89-1.26-4.35-1.27-1.47-3.72-1.47-1.12 0-2.08.39-.96.38-1.68 1.1-.73.73-1.14 1.82-.41 1.09-.41 2.51v19.26h-7.32v-19.26q0-3.04-1.22-4.43-1.23-1.39-3.59-1.39-1.59 0-2.96.79-1.37.78-2.55 2.14v22.15Zm47.88-18.61h13.74q0-1.42-.4-2.67-.39-1.26-1.19-2.2-.8-.95-2.02-1.49-1.23-.55-2.85-.55-3.15 0-4.97 1.8-1.81 1.8-2.31 5.11Zm18.58 4.39h-18.73q.18 2.33.82 4.03.65 1.69 1.72 2.8 1.06 1.11 2.52 1.65 1.46.55 3.23.55t3.05-.42q1.28-.41 2.24-.91.96-.5 1.68-.91.73-.42 1.41-.42.91 0 1.35.68l2.1 2.66q-1.21 1.41-2.72 2.37-1.5.96-3.14 1.54-1.64.57-3.33.81-1.7.23-3.29.23-3.16 0-5.87-1.04-2.72-1.05-4.72-3.1-2.01-2.05-3.16-5.08-1.15-3.02-1.15-7 0-3.1 1-5.83 1.01-2.73 2.88-4.75 1.87-2.02 4.57-3.2 2.7-1.18 6.09-1.18 2.87 0 5.29.92 2.41.91 4.15 2.67 1.75 1.75 2.73 4.3.99 2.55.99 5.83 0 1.65-.35 2.23-.36.57-1.36.57Zm17.26 14.69q-3.95 0-6.06-2.23-2.11-2.22-2.11-6.15v-16.9h-3.1q-.59 0-1-.38-.42-.39-.42-1.15v-2.89l4.87-.8 1.53-8.26q.15-.59.57-.92.41-.32 1.06-.32h3.77v9.53h8.09v5.19h-8.09v16.4q0 1.42.7 2.21.69.8 1.9.8.68 0 1.14-.16.45-.16.79-.34.34-.18.61-.34.26-.16.53-.16.32 0 .53.16.2.16.44.49l2.18 3.54q-1.59 1.32-3.65 2-2.07.68-4.28.68Zm19.14-44.31v16.82q1.77-1.65 3.9-2.69 2.12-1.03 4.98-1.03 2.48 0 4.4.84 1.92.84 3.2 2.36 1.28 1.52 1.95 3.63.66 2.11.66 4.65v19.26h-7.29v-19.26q0-2.78-1.26-4.3-1.27-1.52-3.87-1.52-1.89 0-3.54.86-1.65.86-3.13 2.33v21.89h-7.28v-43.84h7.28Zm26.23 13.57h7.32v30.27h-7.32v-30.27Zm8.32-8.82q0 .95-.39 1.77-.38.83-1.01 1.45-.64.62-1.49.99-.86.36-1.83.36-.95 0-1.79-.36-.84-.37-1.46-.99t-.98-1.45q-.37-.82-.37-1.77 0-.97.37-1.83.36-.85.98-1.47t1.46-.99q.84-.37 1.79-.37.97 0 1.83.37.85.37 1.49.99.63.62 1.01 1.47.39.86.39 1.83Zm12.74 10.15.5 2.39q.92-.91 1.94-1.7 1.01-.78 2.15-1.32 1.14-.55 2.43-.86 1.3-.31 2.84-.31 2.47 0 4.39.84 1.92.84 3.2 2.36 1.28 1.52 1.95 3.63.66 2.11.66 4.65v19.26h-7.28v-19.26q0-2.78-1.27-4.3t-3.87-1.52q-1.89 0-3.54.86-1.65.86-3.12 2.33v21.89h-7.29v-30.27h4.45q1.42 0 1.86 1.33Zm38.03 13.07q1.35 0 2.36-.37 1-.37 1.66-1.02.67-.65 1.01-1.56.34-.92.34-2.01 0-2.24-1.35-3.55-1.34-1.31-4.02-1.31-2.69 0-4.03 1.31-1.34 1.31-1.34 3.55 0 1.06.34 1.98.34.91 1 1.58.66.66 1.68 1.03t2.35.37Zm8.23 17.23q0-.89-.53-1.45-.53-.56-1.45-.87-.91-.31-2.14-.46-1.22-.14-2.59-.22-1.37-.07-2.83-.13-1.47-.06-2.85-.24-1.21.68-1.96 1.6-.76.91-.76 2.12 0 .8.4 1.49t1.27 1.2q.87.5 2.26.78 1.38.28 3.39.28 2.04 0 3.51-.31 1.48-.31 2.43-.86.96-.54 1.41-1.3.44-.75.44-1.63Zm-1.45-30.59h8.71v2.71q0 1.3-1.57 1.59l-2.71.5q.62 1.57.62 3.43 0 2.24-.9 4.05-.9 1.82-2.5 3.08-1.59 1.27-3.76 1.97-2.16.69-4.67.69-.89 0-1.71-.09-.83-.09-1.63-.23-1.41.85-1.41 1.91 0 .92.84 1.35.84.42 2.23.6 1.38.18 3.15.22 1.77.05 3.63.19 1.86.15 3.63.52 1.77.37 3.16 1.16 1.38.8 2.22 2.17.84 1.37.84 3.53 0 2-.98 3.89-.99 1.89-2.87 3.37-1.87 1.47-4.6 2.37-2.73.9-6.21.9-3.42 0-5.96-.66-2.53-.67-4.21-1.77-1.69-1.11-2.51-2.56-.83-1.44-.83-3 0-2.13 1.29-3.56 1.28-1.43 3.52-2.29-1.21-.62-1.92-1.65-.71-1.03-.71-2.71 0-.68.26-1.4.25-.73.73-1.43.49-.71 1.23-1.35.73-.63 1.74-1.13-2.3-1.24-3.62-3.31-1.31-2.06-1.31-4.83 0-2.25.9-4.06.9-1.81 2.51-3.1 1.61-1.28 3.8-1.96 2.2-.68 4.8-.68 1.94 0 3.66.4 1.71.4 3.12 1.17Zm32.07 13.15h12.98v-13.95q0-1.98.26-4.37l-13.24 18.32Zm19.32 0h5.37v4.22q0 .59-.38 1.02-.39.43-1.09.43h-3.9v10.41h-6.34v-10.41h-18q-.73 0-1.29-.46t-.71-1.14l-.77-3.68 20.21-27h6.9v26.61Z"/></svg>