<svg id="Layer_1" data-name="Layer 1" xmlns="http://www.w3.org/2000/svg" viewBox="0 0 550 120"><defs><style>.cls-1{fill:#f4f2f2;}</style></defs><title>captacha1</title><rect class="cls-1" width="550" height="120"/><g id="_1" data-name="1"><path d="M298.63,48.07c.16,2.67.46,5.35.47,8,0,3.9-.33,7.8-.26,11.69.06,3.5,1.61,4.34,4.64,2.72,10.43-5.57,19.29-13.23,28-21.11.8-.72,1.58-1.46,2.37-2.18,7-6.32,7.73-6.6,17.4-6.6-.17-1.24-.38-2.43-.49-3.63-.47-5.06.54-9.53,5.2-12.47,2.31-1.45,4.74-2,7.17-.44,4.27,2.7,8.51,5.46,12.67,8.33,3.38,2.32,6.57,4.9,10,7.21a23.51,23.51,0,0,0,4.09,1.81l.52-.58c-.34-1-.74-1.88-1-2.86-1.08-4-2.4-8-3.1-12.14-.86-5-.63-5-6.06-6A35.3,35.3,0,0,1,384,17c6.11-3.29,12.21-6.58,18.41-9.66,5.43-2.71,9.93-1.54,12.47,4,2.08,4.53,3,9.62,4.32,14.47.39,1.37.62,2.79,1,4.55A35.47,35.47,0,0,1,425.52,28c4-1,8.11-2.36,12.2-2.49,5.28-.16,6.83,3.08,4.52,8.05-.18,0-.48-.07-.51-.16-1.18-4.21-2.62-5.39-6.92-4.14a90.44,90.44,0,0,0-12.68,5.18c-.56.26-.79,2.22-.47,3.17a81.53,81.53,0,0,1,4.1,30.83A33.51,33.51,0,0,1,425.2,72l-1.17.23a42.51,42.51,0,0,1-1.88-5.39c-1.62-7.62-3.06-15.29-4.66-22.92-.46-2.16-1.24-4.25-1.9-6.47L397.84,45c2.36,4,4.7,8,7.09,12,3.71,6.2,5.77,12.77,4.82,20.08a10.72,10.72,0,0,0,.07,3.2c.84,4.36,4.11,5.82,7.52,3.29,11.41-8.45,24.4-12.94,38.18-15.54,1.32-.25,2.62-.59,3.42-.77-1-4.51-2.22-8.69-2.82-12.95-1.11-7.82-1.67-15.72-2.81-23.53-2-13.5-9.82-23.81-24.51-26-.64-.1-1.25-.34-2.46-.68,18.9-2.41,31.15,10.78,33.27,26.52,1.57,11.69,2.92,23.4,4.6,35.08.46,3.22-.73,4.75-3.6,5.5s-5.44,1.56-8.22,2.1c-10.42,2-19.79,6.51-28.67,12.18a51,51,0,0,1-6.16,3.36,8.53,8.53,0,0,1-12-6.74,48.49,48.49,0,0,1,0-6.71c.15-6.39-2.55-11.86-5.27-17.32l-.76.06c0,2.8-.6,5.77.12,8.37,1.67,6,0,11.29-2.4,16.65-2.58,5.78-4.86,11.7-7.33,17.54-.65,1.53-.86,3.59-3.37,3.31s-5.27-.69-5.9-3.79c-1-4.86-1.86-9.76-2.56-14.67-.48-3.38-.63-6.8-.87-10.2a19.88,19.88,0,0,0-6-13C365.86,56.78,360.44,51.3,354.89,46c-3.21-3.1-10-2.7-14.37.77-3.2,2.56-6.11,5.48-9.34,8-7.39,5.74-14.84,11.42-22.39,16.95-2.76,2-5.85,3.54-9.52,3.18-2.73-.27-4.28-1.69-4.65-4.38a9.22,9.22,0,0,1-.16-2.61c1-6.61,2.16-13.21,3.25-19.81Zm86.12,50.82.82-.27c3.76-7.45,7.56-14.88,11.24-22.37a8,8,0,0,0,.55-3.68c-.28-5.81-.53-11.63-1.07-17.42-.39-4.18-3.15-7.39-6.22-9.69-4-3-8.8-4.89-13-7.62-4.42-2.84-8.49-6.23-12.85-9.16-3.61-2.42-6.56-1.43-8.32,2.59-1.21,2.8-1.48,5.79.06,8.48a36.61,36.61,0,0,0,5.1,7c3.68,3.89,7.53,7.64,11.54,11.19,5.36,4.73,8.83,10.27,9,17.6A57.75,57.75,0,0,0,382.3,82C383.09,87.62,383.93,93.25,384.75,98.89Zm10.62-57.36c5-2.19,9.1-3.94,13.15-5.82,6-2.75,5.94-2.8,4.89-9.19a41.47,41.47,0,0,0-.75-4.32C411.8,19.12,411,16,409.81,13c-.81-2.08-2.47-3.47-4.88-2.35-4.64,2.16-9.21,4.49-14,6.85,1.72,2.59,2.32,4.76.79,7.2a4.09,4.09,0,0,0-.14,2.86C392.7,32.06,394,36.5,395.37,41.53Z" transform="translate(0 0)"/><path d="M165.43,79.63H150.22l5.88,13.19c-1.5.25-2.22.59-2.79.43-8-2.25-14.45,1.31-20.63,5.42-5.13,3.42-9.88,7.39-14.9,11a42,42,0,0,1-6.35,3.65c-11.7,5.69-20.5,2.94-26.58-8.52-7.2-13.56-9.24-28.32-8.41-43.34a121.76,121.76,0,0,1,4.38-25.3c2.55-9.28,10.38-13.27,19.69-10.58,3.9,1.13,8.07,3,10.91,5.81,9.32,9.15,15,20.07,13.62,33.7-.11,1.05-.17,2.09-.22,3.14,0,.19.16.38.54,1.23,4.42-6.78,10.64-12,10.76-20.74a31.81,31.81,0,0,1,2-9.51c2.37-6.92,7.56-10.51,14.81-9.43a57,57,0,0,1,14.58,4.49A79.73,79.73,0,0,0,189,40.19a22.38,22.38,0,0,0,18.72-5.8Q223,20.83,237.77,6.78c2.37-2.25,4.27-3,6.91-1.07,3.66,2.66,7.48,5.13,10.88,8.08,4.27,3.7,4.82,8.5,3,13.71-3.68,10.54-7.4,21.07-10.93,31.65-1.29,3.85-2,7.89-3.16,11.79a20,20,0,0,1-2.61,6c-.88,1.21-3.14,2.68-4.09,2.3-1.37-.54-2.67-2.56-3-4.14a11.49,11.49,0,0,1,.84-5.77c4.08-10.88,8.34-21.69,12.5-32.53a79.73,79.73,0,0,0,3.3-9.17c1.92-7.75-.14-12.29-6.85-16.57-1.93-1.23-3.11-.93-4.78.65-9.06,8.53-18.26,16.92-27.46,25.32-8.37,7.64-17.94,11-29.25,8a10.86,10.86,0,0,0-1.67-.2c-2.57,12.24-5.1,24.36-7.66,36.48-.45,2.16-1,4.3-1.55,6.44a3.7,3.7,0,0,1-5.13,2.77c-1.08-.39-2-2.54-2.12-4A40,40,0,0,1,165.43,79.63Zm-68.54,20c4.87-3.49,9.17-6.1,12.86-9.38A36.57,36.57,0,0,0,117.39,81c4.22-7.57,3.47-16,2.71-24.2a23.14,23.14,0,0,0-3.2-9.09,129.71,129.71,0,0,0-8.57-12.32C105,31,100.11,29.89,94.91,30.46,90,31,88.06,34.83,86.83,39A92.63,92.63,0,0,0,83.9,79.42c1.41,9.24,3.83,18.24,8.88,26.27,3.67,5.82,7.91,7.53,14.3,5a72.68,72.68,0,0,0,13-7.22c6.39-4.24,12.47-8.94,18.81-13.27a48.84,48.84,0,0,1,6.46-3.25c-3.33-7.46-6.54-14.65-10.11-22.68C130.25,71,125,77.16,120.69,84,115.6,92.09,108,96.19,99.6,99.6A10.52,10.52,0,0,1,96.89,99.63ZM174,42c-5.34-2.22-11.11-5-17.14-7-5.86-1.93-9.39,0-11.29,5.55-3.46,10.17-2.43,20.22,1.86,29.89C149.48,75,155,77,160.64,76c4.14-.72,5.94-3.06,6.92-8.81.69-4,1.28-8,2.3-12C171,50.92,172.53,46.71,174,42Z" transform="translate(0 0)"/><path d="M349.89,28.61c1.54,7.35-10,15.77-17.68,13.27C339.6,39.36,344.54,34.11,349.89,28.61Z" transform="translate(0 0)"/><path d="M274.93,83.4c2.32,1.58,2.67,3,1.61,5.8C274.26,88.08,273.77,86.4,274.93,83.4Z" transform="translate(0 0)"/></g></svg>