<svg xmlns="http://www.w3.org/2000/svg" width="550" height="120" viewBox="0 0 550 120"><rect width="100%" height="100%" fill="#DDDDDD"/><path fill="#999999" d="M167.225 51.27h5.64l-9.78 30.78h-5.94q-1.02 0-1.41-1.32l-5.52-17.79q-.27-.9-.49-1.78-.23-.89-.38-1.79-.18.9-.4 1.82-.23.91-.5 1.81l-5.61 17.73q-.36 1.32-1.59 1.32h-5.7l-9.75-30.78h5.91q.81 0 1.38.39.57.39.75.99l4.41 16.44q.33 1.35.59 2.64.25 1.29.43 2.58.33-1.29.71-2.58.37-1.29.79-2.64l5.1-16.5q.18-.6.71-.99.52-.39 1.27-.39h3.27q.78 0 1.34.39.55.39.73.99l4.95 16.5q.39 1.35.74 2.66.34 1.3.67 2.59.39-2.55 1.11-5.25l4.53-16.44q.21-.6.75-.99t1.29-.39Zm17.25-13.8v17.1q1.8-1.68 3.96-2.73t5.07-1.05q2.52 0 4.47.86 1.95.85 3.26 2.4 1.3 1.54 1.98 3.69.67 2.14.67 4.72v19.59h-7.41V62.46q0-2.82-1.29-4.36-1.29-1.55-3.93-1.55-1.92 0-3.6.87-1.68.87-3.18 2.37v22.26h-7.41V37.47h7.41Zm42.69 36.63v-5.19q-3.21.15-5.4.56-2.19.4-3.51 1.03-1.32.63-1.89 1.47-.57.84-.57 1.83 0 1.95 1.16 2.79 1.15.84 3.01.84 2.28 0 3.95-.82 1.66-.83 3.25-2.51Zm-15.66-16.17-1.32-2.37q5.31-4.86 12.78-4.86 2.7 0 4.83.89 2.13.88 3.6 2.46 1.47 1.57 2.24 3.76.76 2.19.76 4.8v19.44h-3.36q-1.05 0-1.62-.32-.57-.31-.9-1.27l-.66-2.22q-1.17 1.05-2.28 1.85-1.11.79-2.31 1.33t-2.56.83q-1.37.28-3.02.28-1.95 0-3.6-.52-1.65-.53-2.85-1.58-1.2-1.05-1.86-2.61-.66-1.56-.66-3.63 0-1.17.39-2.33.39-1.15 1.28-2.2.88-1.05 2.29-1.98 1.41-.93 3.47-1.62 2.05-.69 4.78-1.12 2.73-.44 6.24-.53v-1.8q0-3.09-1.32-4.58-1.32-1.48-3.81-1.48-1.8 0-2.98.42-1.19.42-2.09.95l-1.63.94q-.74.42-1.64.42-.78 0-1.32-.41-.54-.4-.87-.94Zm40.11 24.6q-4.02 0-6.16-2.26-2.15-2.27-2.15-6.26V56.82h-3.15q-.6 0-1.02-.39-.42-.39-.42-1.17v-2.94l4.95-.81 1.56-8.4q.15-.6.57-.93.42-.33 1.08-.33h3.84v9.69h8.22v5.28h-8.22V73.5q0 1.44.71 2.25.7.81 1.93.81.69 0 1.16-.16.46-.17.81-.35.34-.18.61-.34.27-.17.54-.17.33 0 .54.17.21.16.45.49l2.22 3.6q-1.62 1.35-3.72 2.04t-4.35.69Zm17.91-19.41h13.98q0-1.44-.4-2.71-.41-1.28-1.22-2.24-.81-.96-2.05-1.51-1.25-.56-2.9-.56-3.21 0-5.05 1.83-1.85 1.83-2.36 5.19Zm18.9 4.47h-19.05q.18 2.37.84 4.09.66 1.73 1.74 2.86 1.08 1.12 2.57 1.68 1.48.55 3.28.55 1.8 0 3.11-.42 1.3-.42 2.28-.93.97-.51 1.71-.93.73-.42 1.42-.42.93 0 1.38.69l2.13 2.7q-1.23 1.44-2.76 2.42-1.53.97-3.19 1.56-1.67.58-3.39.82-1.73.24-3.35.24-3.21 0-5.97-1.06-2.76-1.07-4.8-3.15-2.04-2.09-3.21-5.16-1.17-3.08-1.17-7.13 0-3.15 1.02-5.92 1.02-2.78 2.93-4.83 1.9-2.06 4.65-3.26 2.74-1.2 6.19-1.2 2.91 0 5.37.93t4.23 2.72q1.77 1.78 2.78 4.38 1 2.59 1 5.92 0 1.68-.36 2.27-.36.58-1.38.58Zm29.19-16.32h5.85l-12.21 30.78h-6.72l-12.21-30.78h6.12q.84 0 1.4.39.55.39.73.99l5.94 16.44q.48 1.44.84 2.82t.63 2.76q.3-1.38.66-2.76.36-1.38.87-2.82l6.06-16.44q.21-.6.75-.99t1.29-.39Zm15.63 11.85h13.98q0-1.44-.4-2.71-.41-1.28-1.22-2.24-.81-.96-2.05-1.51-1.25-.56-2.9-.56-3.21 0-5.05 1.83-1.85 1.83-2.36 5.19Zm18.9 4.47h-19.05q.18 2.37.84 4.09.66 1.73 1.74 2.86 1.08 1.12 2.57 1.68 1.48.55 3.28.55 1.8 0 3.11-.42 1.3-.42 2.28-.93.97-.51 1.71-.93.73-.42 1.42-.42.93 0 1.38.69l2.13 2.7q-1.23 1.44-2.76 2.42-1.53.97-3.19 1.56-1.67.58-3.39.82-1.73.24-3.35.24-3.21 0-5.97-1.06-2.76-1.07-4.8-3.15-2.04-2.09-3.21-5.16-1.17-3.08-1.17-7.13 0-3.15 1.02-5.92 1.02-2.78 2.93-4.83 1.9-2.06 4.65-3.26 2.74-1.2 6.19-1.2 2.91 0 5.37.93t4.23 2.72q1.77 1.78 2.78 4.38 1 2.59 1 5.92 0 1.68-.36 2.27-.36.58-1.38.58Zm13.83-14.46.45 3.48q1.44-2.76 3.42-4.33 1.98-1.58 4.68-1.58 2.13 0 3.42.93l-.48 5.55q-.15.54-.43.76-.29.23-.77.23-.45 0-1.33-.15-.89-.15-1.73-.15-1.23 0-2.19.36t-1.72 1.03q-.77.68-1.35 1.64-.59.96-1.1 2.19v18.96h-7.41V51.27h4.35q1.14 0 1.59.4.45.41.6 1.46Zm40.47-7.74-1.53 9.03q1.44-.3 2.76-.43 1.32-.14 2.55-.14 3.42 0 6.03 1.02 2.61 1.02 4.38 2.82 1.77 1.8 2.67 4.22.9 2.41.9 5.2 0 3.45-1.21 6.3-1.22 2.85-3.38 4.88-2.16 2.02-5.11 3.13-2.96 1.11-6.44 1.11-2.04 0-3.87-.42t-3.43-1.12q-1.61-.71-2.97-1.63-1.37-.91-2.45-1.93l2.28-3.15q.72-1.02 1.89-1.02.75 0 1.53.48t1.79 1.05q1 .57 2.37 1.05 1.36.48 3.28.48 2.04 0 3.6-.66t2.6-1.84q1.03-1.19 1.56-2.82.52-1.64.52-3.56 0-3.54-2.05-5.53-2.06-2-6.08-2-3.09 0-6.33 1.14l-4.62-1.32 3.6-21.06h21.42v3.15q0 1.59-.99 2.58t-3.36.99h-11.91Z"/></svg>