<?xml version="1.0" encoding="utf-8"?>
<!-- Generator: Adobe Illustrator 24.0.1, SVG Export Plug-In . SVG Version: 6.00 Build 0)  -->
<svg version="1.1" xmlns="http://www.w3.org/2000/svg" xmlns:xlink="http://www.w3.org/1999/xlink" x="0px" y="0px"
	 viewBox="0 0 550 120" style="enable-background:new 0 0 550 120;" xml:space="preserve">
<style type="text/css">
	.st0{fill:#FFFFFF;}
</style>
<g id="Layer_1">
	<rect y="0" class="st0" width="550" height="120"/>
	<g>
		<g>
			<path d="M397,79.6c0.7,0,1.3-0.2,1.8-0.1c0.7,0.1,1.4,0.5,2,0.7c-0.6,0.6-1,1.6-1.7,1.8c-2,0.7-4.1,1.2-6.2,1.8
				c-1.5,0.4-3,1-4.6,1.2c-0.8,0.1-1.7-0.5-2.5-0.8c0.6-0.6,1.1-1.6,1.7-1.7c3.6-0.5,5-2.8,6.3-6c3.5-8.7,5.9-17.7,7-27
				c0.1-0.9,0.1-1.8,0.2-2.7c-6.3-1.5-7.7-3.1-8.5-9.5c-2.4,2-5.2,3.3-6.4,6.3c-1,2.3-0.7,3.9,1.2,5.6c1.6,1.3,1.6,2.4,0.1,3.6
				c-4.7,3.7-9.2,7.5-14,11c-2.3,1.7-4.2,0.7-4.4-2.1c-0.1-2.1,0-4.3-0.5-6.7c-0.6,1.3-1.2,2.5-1.9,3.8c-1.5,2.9-2.9,5.9-4.4,8.8
				c-0.2,0.3-0.3,0.7-0.6,0.9c-4.9,3.2-5.4,9-8,13.5c-0.9,1.6-1.2,3.6-1.9,5.8c2.1-0.4,3.6-0.8,5.2-1c1.1-0.2,2.3-0.2,3.4,0
				c0.6,0.1,1,0.8,1.6,1.2c-0.5,0.4-0.9,0.8-1.4,1.1c-4,1.6-8,3.2-12,4.8c-0.9,0.4-1.8,0.8-2.8,1.1c-3.6,1.2-5.7,0.5-7.7-2.8
				c-4.7-7.8-6-16.1-4.5-25c0.4-2.1,0.8-4.2,1.2-6.3c-0.2-0.1-0.3-0.2-0.5-0.4c-1.1,1.1-2.6,2-3.3,3.4c-1.7,3.5-3.1,7.2-4.4,10.9
				c-3.1,9-6.5,18-12.6,25.4c-2.5,3-5.4,5.5-8.1,8.3c-1,1-2.1,0.9-3.1,0c-0.8-0.9-1.6-1.9-2.2-2.9c-5.7-9.9-7.3-20.5-5.5-31.7
				c0.8-5,0.7-10.2,1-15.4c-4.7,0.6-8.3,4.3-9.5,8.8c-1.2,4.6,0.8,8.6,2.6,12.6c-0.2,0.1-0.4,0.1-0.6,0.2c-0.3-0.1-0.7-0.2-0.9-0.4
				c-4.2-5.3-4-14.5,0.7-19.1c1.5-1.5,3.5-2.6,5.5-3.6c1.2-0.6,1.9-1.1,1.5-2.5c-0.5-1.7-0.1-2.8,1.9-2.9c1.9-0.2,2.4,0.8,2.3,2.5
				c0,0.4,0.1,0.8,0.2,1.5c4.1-0.9,8.3,0.5,12.1-1.8c1.5-0.9,2.8-0.7,3.7,1.1c2.6,5.6,0.7,14.6-4,18.4c-1.1,0.9-2.5,1.4-3.7,2
				c-0.2-0.2-0.4-0.5-0.5-0.7c0.5-0.7,1-1.4,1.6-2c4.1-4.1,4.9-9,3.6-14.5c-0.3-1.1-0.7-1.7-2.1-1.6c-3,0.2-6,0.3-9,0.4
				c-1.3,0-1.7,0.5-1.7,1.8c-0.4,7.3-0.8,14.6-1.2,21.9c-0.5,7.4,0.4,14.4,3.7,21.1c1.5,2.9,2.1,3.2,4.7,1c2.2-1.8,4.3-3.8,6-6.1
				c5.9-8.1,10.9-16.6,12.9-26.7c0.8-4.3,3-7.9,6.5-10.6c0.2-0.2,0.4-0.4,0.6-0.6c0,0,0-0.1,0-0.3c-2.1,0.2-4.2,0.4-6.3,0.4
				c-0.6,0-1.2-0.6-1.9-0.9c0.5-0.4,1.1-1,1.6-1.1c6.2-0.9,12.5-1.7,18.8-2.5c1.3-0.2,2.7-0.1,2.8,2.1c-2.2,0.3-4.4,0.5-6.6,0.9
				c-0.7,0.1-1.6,0.8-1.8,1.4c-2.1,8.2-3.6,16.4-1.4,24.8c0.7,2.7,2.2,5.3,3.5,7.8c0.6,1.2,1.6,1.2,3.1,0.7c3.3-1,4.4-3.1,5-6.3
				c0.6-3.1,2.6-6,4-9c0.5-1,1-2,1.5-3.1c0.2-0.4,0.3-1.1,0.2-1.2c-2.1-1-0.6-2.3-0.2-3.4c1.9-5.5,3.3-11.1,3.1-17
				c-0.1-2.1,2.5-3.5,4.3-2.4c0.3,0.2,0.6,0.8,0.5,1.2c-0.4,3.3-0.8,6.7-1.3,10.5c1.6-2.9,2.8-5.5,4.4-7.8c0.7-1.1,1.9-2.2,3.1-2.6
				c1.7-0.6,2.7,0.4,2.5,2.3c-0.2,2.1-0.4,4.3-0.4,6.4c0,0.8,0.3,1.7,0.6,2.8c5.1-2.6,8.8-6.1,12.1-10.1c0.3-0.3,0.2-1.3,0-1.7
				c-1.8-3.1-1.7-6.3,0.5-8.9c2.6-3.2,5.8-5.9,8.8-8.8c0.3-0.3,1.3-0.3,1.8-0.1c0.4,0.2,0.6,1,0.6,1.6c0,1.6-0.5,3.2-0.2,4.7
				c0.4,1.7,1.1,3.4,2.2,4.7c0.5,0.7,2.1,0.9,3.1,0.7c0.4,0,0.9-1.4,1-2.2c0.5-5.9,0.9-11.8,1.4-18.1c-1.3,0.4-2.5,0.8-3.6,0.9
				c-0.6,0.1-1.4-0.4-2-0.7c0.5-0.5,0.9-1.3,1.5-1.5c2.9-0.9,5.8-1.7,8.7-2.3c3.5-0.7,7-0.5,9.4,2.6c2.7,3.6,2.8,7.6,1.1,11.6
				c-2.3,5.1-6.3,8.4-11.5,10.3c-0.7,0.3-1.6,1.1-1.6,1.8c-0.4,11-3.3,21.5-7.5,31.6C397.2,78.7,397.1,79.1,397,79.6z M406.4,23.4
				c-0.5,6.6-0.9,13-1.4,19.8c0.8-0.2,1.4-0.3,2-0.5c4-1.8,6.9-4.6,8.4-8.7C417.7,27.4,413.6,22.4,406.4,23.4z"/>
			<path d="M456.6,59.1c0.7,0.3,1.6,0.7,2.5,1.1c-0.6,1-0.9,2.3-1.7,2.9c-3,2.2-6.4,3.2-10.1,3.4c-2.2,0.1-4.5,0.1-6.7-0.1
				c-0.8,0-1.5-0.6-2.2-0.9c0-0.3,0.1-0.6,0.1-0.9c1.8-0.2,3.6-0.4,5.4-0.5c6.6-0.3,8.6-2,8-8.5c-1.4-14.6-3.1-29.2-8.3-43.1
				c-0.1-0.4-0.4-0.8-0.6-1.2c-1,0.2-2,0.5-2.9,0.5c-0.4,0-0.9-0.5-1.4-0.8c0.3-0.4,0.5-1.1,0.9-1.3c3.3-1.1,6.5-2.2,9.8-3.1
				c0.5-0.1,1.3,0.6,1.9,0.9c-0.4,0.5-0.8,1.2-1.3,1.4c-0.9,0.4-1.9,0.6-3,0.8C453.3,25.6,455,42.3,456.6,59.1z"/>
			<path d="M467.9,29.7c0.7-2.2,2.1-3.3,4.5-3.1c2.4,0.2,3.2,1.9,3.8,3.8c0.4,1.3,0.8,2.6,0.8,4c0,0.6-0.7,1.3-1.2,2
				c-0.4-0.5-1-0.9-1.2-1.5c-0.7-1.5-1.2-3.1-1.9-4.5c-0.6-1.3-1.7-1.2-2.2,0.1c-1,2.7-2.4,5.5-2.7,8.3c-1.2,9.2-1.9,18.5-2.8,27.8
				c-0.2,1.7-1.5,2.6-2.8,1.5c-1.1-0.9-2.2-2.5-2.2-3.8c0-2.9,0.8-5.8,1.2-8.7c1.1-8.7,2.2-17.3,3.3-26c0.1-1-0.5-2.6,1.3-2.7
				c1.7-0.1,1.3,1.5,1.7,2.5C467.6,29.4,467.7,29.5,467.9,29.7z"/>
			<path d="M477.4,51.6c0.8-10.3,1.6-20.5-1.7-30.6c-0.1-0.2-0.2-0.4-0.2-0.6c0.1-0.7,0.3-1.5,0.4-2.2c0.8,0.4,2,0.5,2.2,1.1
				c1.4,3.8,3.2,7.5,3.6,11.4c0.6,7.4,0.3,14.9,0.2,22.3c0,1.2-0.9,3-1.9,3.4c-1,0.4-3-0.1-3.8-1c-2.6-2.7-4.9-5.8-7.2-8.8
				c-0.2-0.3,0.1-1.6,0.3-1.7c0.6-0.1,1.6-0.1,2,0.3c1.5,1.5,2.9,3.2,4.2,4.9c0.5,0.6,0.8,1.3,1.1,2
				C476.8,52.1,477.1,51.8,477.4,51.6z"/>
			<path d="M423.8,12.3c0.4-0.3,0.9-1,1.6-1.1c1.2-0.3,2.1,0.1,2.4,1.4c0.7,2.8,1.1,5.7,2,8.3c2.2,6.2,4.7,12.3,7.1,18.4
				c0.5,1.1,0.8,2.7,2.7,2.6c0.2,0,0.8,1.3,0.6,1.7c-0.2,0.5-1.4,1.3-1.6,1.1c-1.7-1-3.7-1.9-4.8-3.4c-1.8-2.5-3.2-5.3-4.2-8.2
				c-2.1-6.4-3.8-12.9-5.6-19.3C424,13.5,424,13.1,423.8,12.3z"/>
			<path d="M439.4,74.9c-1.9,2.9-4.7,3.5-7.7,3.7c-6,0.3-10.8-3.5-11.8-9.6c-0.5-2.9-0.5-6-0.1-9c0.9-7.6-0.8-10.9-7.8-14.1
				c-0.8-0.3-1.5-0.7-2.2-1.1c0-0.2,0.1-0.5,0.1-0.7c1.2,0.1,2.4-0.1,3.5,0.3c8.4,3.4,11.5,7.2,10.2,16c-0.3,2.4-0.6,4.9-0.4,7.3
				c0.8,8.3,4.5,10.2,12.8,8.5C437.1,76,438.2,75.4,439.4,74.9z"/>
			<path d="M445.1,37.3c0,2.1,0.1,4.3,0,6.4c0,0.6-0.5,1.1-0.8,1.7c-0.6-0.5-1.4-1-1.6-1.6c-0.3-1-0.2-2.1-0.1-3.2
				c0.1-3.4,0.3-6.8,0.5-10.3c0.1-0.7,0.8-1.3,1.2-2c0.4,0.7,1.2,1.4,1.2,2.1C445.5,32.7,445.3,35,445.1,37.3
				C445.2,37.3,445.1,37.3,445.1,37.3z"/>
			<path d="M435.2,60c-0.4-1.6-0.9-3.3-1-5c0-0.9,0.7-2.3,1.5-2.6c2.6-1,5.3-1.7,8-2.3c1.4-0.3,2.4,0.8,1.6,2.1
				c-1.9,3-2.6,6.2-2.5,9.7c-2.1-3.8-0.1-7.1,1.9-10.8c-1.2,0.1-2.1,0.1-2.9,0.2c-1.1,0.2-2.2,0.7-3.3,0.9c-2.4,0.5-3.1,1.5-2.9,3.9
				c0.1,1.2,0.2,2.4,0.3,3.6C435.7,59.9,435.5,60,435.2,60z"/>
			<path d="M320.1,104.9c-0.3-1.1-0.6-1.6-0.5-2c0.4-1.3,0.7-2.4-0.6-3.4c-0.2-0.2,0.1-1.6,0.5-1.7c0.9-0.3,2-0.4,2.7-0.1
				c0.6,0.3,1.1,1.7,0.9,2.2C322.5,101.4,321.4,102.8,320.1,104.9z"/>
			<path class="st0" d="M406.4,23.4c7.2-0.9,11.3,4.1,9,10.6c-1.5,4.1-4.4,6.9-8.4,8.7c-0.5,0.2-1.2,0.3-2,0.5
				C405.5,36.4,405.9,29.9,406.4,23.4z"/>
		</g>
	</g>
	<g>
		<g>
			<path d="M140.9,38.2c0.1,2,0.3,3.9,0.3,5.9c0,2.9-0.2,5.7-0.2,8.6c0,2.6,1.2,3.2,3.4,2c7.7-4.1,14.2-9.7,20.6-15.5
				c0.6-0.5,1.2-1.1,1.7-1.6c5.1-4.6,5.7-4.9,12.8-4.9c-0.1-0.9-0.3-1.8-0.4-2.7c-0.3-3.7,0.4-7,3.8-9.2c1.7-1.1,3.5-1.5,5.3-0.3
				c3.1,2,6.3,4,9.3,6.1c2.5,1.7,4.8,3.6,7.3,5.3c0.9,0.6,2,0.9,3,1.3c0.1-0.1,0.3-0.3,0.4-0.4c-0.2-0.7-0.5-1.4-0.7-2.1
				c-0.8-3-1.8-5.9-2.3-8.9c-0.6-3.7-0.5-3.7-4.5-4.4c1.1-0.8,1.9-1.6,2.8-2.1c4.5-2.4,9-4.8,13.5-7.1c4-2,7.3-1.1,9.2,2.9
				c1.5,3.3,2.2,7.1,3.2,10.6c0.3,1,0.5,2.1,0.7,3.3c1.5-0.7,2.6-1.4,3.9-1.7c3-0.8,6-1.7,9-1.8c3.9-0.1,5,2.3,3.3,5.9
				c-0.1,0-0.4,0-0.4-0.1c-0.9-3.1-1.9-4-5.1-3c-3.2,0.9-6.3,2.4-9.3,3.8c-0.4,0.2-0.6,1.6-0.3,2.3c2.5,7.4,3.5,14.9,3,22.7
				c-0.1,0.9-0.3,1.7-0.4,2.6c-0.3,0.1-0.6,0.1-0.9,0.2c-0.5-1.3-1.1-2.6-1.4-4c-1.2-5.6-2.2-11.2-3.4-16.9
				c-0.3-1.6-0.9-3.1-1.4-4.8c-4.4,1.9-8.6,3.6-13.1,5.5c1.7,2.9,3.5,5.9,5.2,8.8c2.7,4.6,4.2,9.4,3.5,14.8
				c-0.1,0.8-0.1,1.6,0.1,2.4c0.6,3.2,3,4.3,5.5,2.4c8.4-6.2,17.9-9.5,28.1-11.4c1-0.2,1.9-0.4,2.5-0.6c-0.7-3.3-1.6-6.4-2.1-9.5
				c-0.8-5.7-1.2-11.5-2.1-17.3c-1.4-9.9-7.2-17.5-18-19.2c-0.5-0.1-0.9-0.2-1.8-0.5c13.9-1.8,22.9,7.9,24.5,19.5
				c1.2,8.6,2.2,17.2,3.4,25.8c0.3,2.4-0.5,3.5-2.6,4c-2,0.5-4,1.1-6,1.5c-7.7,1.5-14.5,4.8-21.1,9c-1.4,0.9-3,1.8-4.5,2.5
				c-3.8,1.8-8.3-0.8-8.8-5c-0.2-1.6,0-3.3,0-4.9c0.1-4.7-1.9-8.7-3.9-12.7c-0.2,0-0.4,0-0.6,0c0,2.1-0.4,4.2,0.1,6.2
				c1.2,4.4,0,8.3-1.8,12.2c-1.9,4.3-3.6,8.6-5.4,12.9c-0.5,1.1-0.6,2.6-2.5,2.4c-1.9-0.2-3.9-0.5-4.3-2.8
				c-0.7-3.6-1.4-7.2-1.9-10.8c-0.4-2.5-0.5-5-0.6-7.5c-0.3-3.7-1.8-6.9-4.4-9.6c-4-4-8-8-12.1-12c-2.4-2.3-7.4-2-10.6,0.6
				c-2.4,1.9-4.5,4-6.9,5.9c-5.4,4.2-10.9,8.4-16.5,12.5c-2,1.5-4.3,2.6-7,2.3c-2-0.2-3.1-1.2-3.4-3.2c-0.1-0.6-0.2-1.3-0.1-1.9
				c0.8-4.9,1.6-9.7,2.4-14.6C140.4,38.1,140.6,38.1,140.9,38.2z M204.2,75.5c0.2-0.1,0.4-0.1,0.6-0.2c2.8-5.5,5.6-10.9,8.3-16.4
				c0.4-0.8,0.4-1.8,0.4-2.7c-0.2-4.3-0.4-8.5-0.8-12.8c-0.3-3.1-2.3-5.4-4.6-7.1c-2.9-2.2-6.5-3.6-9.6-5.6
				c-3.2-2.1-6.2-4.6-9.4-6.7c-2.7-1.8-4.8-1.1-6.1,1.9c-0.9,2.1-1.1,4.3,0,6.2c1.1,1.8,2.3,3.6,3.7,5.2c2.7,2.9,5.5,5.6,8.5,8.2
				c3.9,3.5,6.5,7.6,6.6,12.9c0,1.6,0.3,3.1,0.5,4.7C202.9,67.2,203.6,71.4,204.2,75.5z M212,33.4c3.7-1.6,6.7-2.9,9.7-4.3
				c4.4-2,4.4-2.1,3.6-6.8c-0.2-1.1-0.3-2.1-0.6-3.2c-0.6-2.3-1.3-4.6-2.1-6.7c-0.6-1.5-1.8-2.6-3.6-1.7c-3.4,1.6-6.8,3.3-10.3,5
				c1.3,1.9,1.7,3.5,0.6,5.3c-0.3,0.5-0.3,1.4-0.1,2.1C210,26.4,211,29.7,212,33.4z"/>
			<path d="M127.4,87.4c-3.2,0-6.3,0-9.4,0c1.1,2.5,2.3,5.2,3.6,8.1c-0.9,0.2-1.4,0.4-1.7,0.3c-4.9-1.4-8.9,0.8-12.7,3.3
				c-3.2,2.1-6.1,4.6-9.2,6.8c-1.2,0.9-2.6,1.6-3.9,2.2c-7.2,3.5-12.6,1.8-16.4-5.3c-4.4-8.4-5.7-17.4-5.2-26.7
				c0.3-5.2,1.3-10.5,2.7-15.6c1.6-5.7,6.4-8.2,12.1-6.5c2.4,0.7,5,1.9,6.7,3.6c5.7,5.6,9.3,12.4,8.4,20.8c-0.1,0.6-0.1,1.3-0.1,1.9
				c0,0.1,0.1,0.2,0.3,0.8c2.7-4.2,6.6-7.4,6.6-12.8c0-2,0.6-4,1.2-5.9c1.5-4.3,4.7-6.5,9.1-5.8c3.1,0.5,6.1,1.5,9,2.8
				c4.3,1.9,8.6,3,13.2,3.7c4.5,0.6,8.3-0.7,11.5-3.6c6.3-5.6,12.5-11.2,18.5-17c1.5-1.4,2.6-1.8,4.3-0.7c2.3,1.6,4.6,3.2,6.7,5
				c2.6,2.3,3,5.2,1.9,8.5c-2.3,6.5-4.6,13-6.7,19.5c-0.8,2.4-1.2,4.9-1.9,7.3c-0.4,1.3-0.8,2.6-1.6,3.7c-0.5,0.7-1.9,1.7-2.5,1.4
				c-0.8-0.3-1.6-1.6-1.8-2.6c-0.2-1.1,0.1-2.4,0.5-3.6c2.5-6.7,5.1-13.4,7.7-20c0.7-1.9,1.6-3.7,2-5.7c1.2-4.8-0.1-7.6-4.2-10.2
				c-1.2-0.8-1.9-0.6-2.9,0.4c-5.6,5.3-11.3,10.4-16.9,15.6c-5.2,4.7-11.1,6.8-18,4.9c-0.3-0.1-0.7-0.1-1-0.1
				c-1.6,7.5-3.1,15-4.7,22.5c-0.3,1.3-0.6,2.7-1,4c-0.4,1.7-1.8,2.2-3.2,1.7c-0.7-0.2-1.2-1.6-1.3-2.5
				C126.9,90.3,127.2,88.9,127.4,87.4z M85.1,99.8c3-2.2,5.6-3.8,7.9-5.8c1.8-1.6,3.5-3.6,4.7-5.7c2.6-4.7,2.1-9.9,1.7-14.9
				c-0.2-1.9-1-3.9-2-5.6c-1.5-2.7-3.4-5.1-5.3-7.6c-2.1-2.8-5.1-3.4-8.3-3.1c-3,0.3-4.2,2.7-5,5.3c-2.4,8.2-3.1,16.5-1.8,24.9
				c0.9,5.7,2.4,11.2,5.5,16.2c2.3,3.6,4.9,4.6,8.8,3.1c2.8-1.1,5.5-2.8,8-4.5c3.9-2.6,7.7-5.5,11.6-8.2c1.3-0.9,2.8-1.4,4-2
				c-2-4.6-4-9-6.2-14c-3.1,4.1-6.4,7.9-9,12.1c-3.1,5-7.8,7.5-13,9.6C86.5,99.9,86.1,99.8,85.1,99.8z M132.7,64.2
				c-3.3-1.4-6.8-3.1-10.6-4.3c-3.6-1.2-5.8,0-7,3.4c-2.1,6.3-1.5,12.5,1.1,18.4c1.2,2.8,4.6,4.1,8.1,3.5c2.6-0.4,3.7-1.9,4.3-5.4
				c0.4-2.5,0.8-5,1.4-7.4C130.8,69.8,131.7,67.2,132.7,64.2z"/>
			<path d="M253.3,26c1.5,7.3-10,15.8-17.7,13.3C243,36.7,248,31.5,253.3,26z"/>
			<path class="st0" d="M204.2,75.5c-0.6-4.1-1.2-8.3-1.8-12.4c-0.2-1.6-0.5-3.1-0.5-4.7c-0.2-5.4-2.7-9.5-6.6-12.9
				c-3-2.6-5.8-5.4-8.5-8.2c-1.5-1.5-2.7-3.3-3.7-5.2c-1.1-2-0.9-4.2,0-6.2c1.3-3,3.5-3.7,6.1-1.9c3.2,2.2,6.2,4.6,9.4,6.7
				c3.1,2,6.6,3.4,9.6,5.6c2.3,1.7,4.3,4,4.6,7.1c0.4,4.3,0.6,8.5,0.8,12.8c0,0.9,0,1.9-0.4,2.7c-2.7,5.5-5.5,11-8.3,16.4
				C204.6,75.4,204.4,75.5,204.2,75.5z"/>
			<path class="st0" d="M212,33.4c-1-3.7-2-7-2.8-10.3c-0.2-0.7-0.2-1.6,0.1-2.1c1.1-1.8,0.7-3.4-0.6-5.3c3.5-1.7,6.9-3.4,10.3-5
				c1.8-0.8,3,0.2,3.6,1.7c0.8,2.2,1.5,4.5,2.1,6.7c0.3,1,0.4,2.1,0.6,3.2c0.8,4.7,0.8,4.7-3.6,6.8C218.7,30.5,215.6,31.7,212,33.4z
				"/>
			<path class="st0" d="M85.1,99.8c1,0,1.4,0.1,1.7,0c5.1-2.1,9.9-4.6,13-9.6c2.6-4.2,5.9-8,9-12.1c2.2,4.9,4.2,9.4,6.2,14
				c-1.2,0.6-2.7,1.1-4,2c-3.9,2.7-7.7,5.6-11.6,8.2c-2.5,1.7-5.2,3.3-8,4.5c-3.9,1.6-6.6,0.5-8.8-3.1C79.5,98.6,78,93,77.1,87.3
				c-1.3-8.4-0.6-16.7,1.8-24.9c0.8-2.6,1.9-4.9,5-5.3c3.2-0.4,6.2,0.3,8.3,3.1c1.9,2.5,3.7,4.9,5.3,7.6c1,1.7,1.8,3.7,2,5.6
				c0.5,5.1,0.9,10.3-1.7,14.9c-1.2,2.1-2.9,4.1-4.7,5.7C90.8,96,88.1,97.6,85.1,99.8z"/>
			<path class="st0" d="M132.7,64.2c-0.9,2.9-1.9,5.5-2.6,8.2c-0.6,2.4-1,4.9-1.4,7.4c-0.6,3.5-1.7,5-4.3,5.4
				c-3.5,0.6-6.9-0.7-8.1-3.5c-2.6-6-3.3-12.2-1.1-18.4c1.2-3.4,3.3-4.6,7-3.4C125.8,61.1,129.4,62.9,132.7,64.2z M128,64.5
				c-1.2,3-0.7,4.7,1.6,5.8C130.7,67.4,130.3,66,128,64.5z"/>
			<path d="M128,64.5c2.3,1.6,2.7,3,1.6,5.8C127.3,69.1,126.8,67.5,128,64.5z"/>
		</g>
	</g>
</g>
<g id="Layer_2">
</g>
</svg>
