<svg id="Layer_1" data-name="Layer 1" xmlns="http://www.w3.org/2000/svg" viewBox="0 0 550 121.33"><defs><style>.cls-1{fill:#fff;}</style></defs><title>captacha10</title><rect class="cls-1" width="550" height="120"/><g id="_10" data-name="10"><path d="M82.82,57c4.25-.77,8.09-1.88,12-2a62.88,62.88,0,0,1,13.78.78c9.72,1.76,13.88,8.47,11.86,18.12a64.48,64.48,0,0,0-1.52,9.1c-.35,6.14,3,8.51,8.76,6.52,9.74-3.37,13.11-10,10.51-20.94-2.12-8.94-3.9-17.88-2.34-27.11.38-2.25,1-4.47,1.45-6.71l-.76-.58c-3.44,3.95-7.1,7.75-10.27,11.91-2.31,3-3.9,6.63-6,9.84-.6.92-1.89,1.37-2.87,2-.43-1.22-1.28-2.48-1.18-3.66A11.24,11.24,0,0,1,117.82,50c5.79-10.28,14.12-18.21,23.59-25,.89-.64,2.11-.81,3.93-1.47-.94,3-1.68,5.27-2.35,7.54-2.26,7.72-2.4,15.55-1.57,23.53.57,5.4,3.39,9,7.66,11.62,3.62,2.18,7.59,3.78,11.79,5.83,5.33-29.08,18.93-51.12,46.48-62.43l.89.8c-1,.81-1.87,1.64-2.85,2.42-5.49,4.4-11.17,8.6-16.47,13.23-12.38,10.82-17.09,25.23-18.56,41-.23,2.52-.28,5.06-.39,7.58,0,.2.15.4.52,1.31l14.78-3.53c0,.09,0,.44-.14.56A38.29,38.29,0,0,1,165.9,81c-2.63.34-4.41-.78-5.24-3.44a3.72,3.72,0,0,0-1.73-2c-5-2.42-10-4.72-14.73-6.91.71,3.38,1.62,7.61,2.47,11.86.89,4.41-1.68,7.19-6.2,6.15-2-.45-3,.17-4.31,1.17-4.44,3.3-9,6.36-14.72,7-6.42.77-9.66-1.9-9.2-8.27.28-4,1.44-8,2.33-11.94,2.31-10.19-1.15-14.95-11.76-14.88C96.93,59.82,91,61,85.2,62a4.14,4.14,0,0,0-2.7,2.89c-.23,10.63,1.55,20.89,7.59,29.88A22.51,22.51,0,0,0,97,101.08c3.29,2,6.34.69,8.46-2.5,3.09,3.62,1.38,7.92-3.46,8.59-6.32.87-12-.68-15.65-6.26-2.36-3.65-4.64-7.66-5.63-11.83-1.7-7.12-2.38-14.49-3.46-21.76-.14-.94-.15-1.9-.2-2.48H60.58l0-.33c4.41-1.29,8.81-2.65,13.25-3.84,2.7-.73,3.73-2.19,4-5.08,1-10.78,3.82-21,11.07-29.49,2.77-3.24,6-5.84,10.3-6.8,5.5-1.22,9.76,1.32,10.93,6.77,1.44,6.71.16,13.09-3.41,19.22,0-1,0-1.92,0-2.89-.13-4,.17-8.19-.53-12.14-1-5.43-4.65-7-9.53-4.37a17.56,17.56,0,0,0-5.51,4.58C85.22,38.22,83.76,47.4,82.82,57Z" transform="translate(0 0)"/><path d="M364.55,50.38c1.47-.5,3-.9,4.42-1.5,3.64-1.54,7.25-3.15,10.85-4.78,2.35-1.06,4-.29,5.25,1.83,2.82,4.87,3.31,10.16.08,14.62a69.5,69.5,0,0,1-11.53,11.79c-5.49,4.65-11.73,8.47-14.26,15.82-.16.45-.92.8-1.47,1-7.46,2.2-14.94,4.35-22.75,6.62a39.35,39.35,0,0,1,3.76-19q3.72-7.65,8-15a71.81,71.81,0,0,0,8.24-22c.63-3.14,1.68-6.19,2.62-9.59L346,24.58c4.39,10.71,2,20.42-2.34,30.56-5.93-4.34-12.09-6.88-19.75-5.35,2.41-12.47,4.67-24.2,7-36.09l-8.25-1.55c-.39,3.31-.77,6.58-1.17,9.86-1.12,9-1.86,18-3.45,26.91-2.46,13.75-4.18,27.53-4,41.52a10.76,10.76,0,0,1-.33,3.11c-.8,2.69-2.8,3.48-5,1.83-1.74-1.29-3-3.26-4.79-4.47a10.85,10.85,0,0,0-5.45-2.15c-2.83,0-4,2.95-1.79,4.83a47.48,47.48,0,0,0,9.44,6.59c3.64,1.85,7.67,2.91,12.11,4.53.28-3.16.51-5.52.71-7.9,1-11.94,1.69-23.93,3.19-35.82.91-7.27-.15-6.74,8.08-5.64,2.79.36,5.45,1.86,8.12,3,2.27.94,2.68,2.51,1.57,4.79-2.43,5-5.15,9.94-6.86,15.19-1.87,5.75-2.69,11.83-4.06,17.75a18.75,18.75,0,0,1-1.37,2.82,8,8,0,0,0-1,3.13c0,.37,1.66.66,3.14,1.2,1.22,6.39,2.66,13.48,8.28,18.13-1.06-6.1-2.2-12.36-3.16-18.64-.13-.86.47-2.51,1.08-2.71,7.3-2.37,14.66-4.53,22.46-6.88v13.06c3.29-.24,5.32-1.63,5.62-4.89a57.55,57.55,0,0,0,.38-7.86c-.09-2,.33-3.12,2.37-3.7a13.88,13.88,0,0,0,5.2-2.86h-6.2l-.7-.63a88.61,88.61,0,0,1,6.23-7c3.55-3.24,7.7-5.86,11-9.34a47.72,47.72,0,0,0,8-11.13c3.08-6.16.85-14.53-4.42-19a4.23,4.23,0,0,0-3.09-.91c-6.13,1.11-11.84,3.31-16.59,7.51a16.71,16.71,0,0,0-2.18,3.06Z" transform="translate(0 0)"/><path d="M233.39,112.83c-2.93.69-4.47-1.37-4.69-4-.45-5.26-.34-10.59-.42-15.89a24.52,24.52,0,0,1,.4-3c-7,5.92-11.06,15.43-19.53,18.06l-.91-1.11a32.68,32.68,0,0,1,2.16-3.17C216.18,97.15,222,90.65,227.77,84a15.25,15.25,0,0,0,2.55-4.64c2.57-7.14,5-14.34,7.48-21.54A50.23,50.23,0,0,0,239.71,51c.95-5.07.88-5.09,5.94-6.88,1.12,11.91-4.78,21.36-8.08,32.2,17.43-10.5,33.68-6.56,49.56,3.52-8-1.81-15.88-3.77-23.86-5.4-7.6-1.55-14.74.3-21.63,4.24-5.09,2.9-7.92,7.31-8.12,13.78-.17,5.46-.1,10.93-.13,16.39Z" transform="translate(0 0)"/><path d="M439.68,60.81c-6.7,1.6-12.16,3-17.67,4.16a8.51,8.51,0,0,1-4.86-.14c-1.66-.74-3.61-2.15-4.1-3.69-.39-1.21.87-3.5,2.07-4.55,4.6-4,10.13-4.65,15.94-3.42,7.44,1.58,7.66,1.55,6.9-6.14-1.23-12.44-2.58-24.84-12.57-34.19-1.9-1.79-2.77-4.68-4.41-7.57C426.7,4.33,430,7,433.1,10c8.55,8.2,11.5,19,12.68,30.12,1.8,17.14,2.68,34.38,4.17,51.56.42,4.86,1.62,9.66,2.54,15l-21.31,8.24C447.62,97.92,441,79.2,439.68,60.81Z" transform="translate(0 0)"/><path d="M207.16,59.06c-.23-3.1-.82-5.27-.45-7.2C209,40,211.32,28.07,217.37,17.8a58.39,58.39,0,0,1,7.2-9.18c2.21-2.47,4.63-2,6.81.38,3.63,4,4.44,10.5,1.64,16.67a43.48,43.48,0,0,1-5.37,8.82c-5.91,7.54-12,14.86-18.09,22.25C209.1,57.3,208.52,57.75,207.16,59.06Zm8.7-19.9,1,.86c3.45-3.9,7.27-7.47,10.21-11.82,1.62-2.39,2-6.05,2.44-9.23a4.35,4.35,0,0,0-1.82-3.46c-.73-.35-2.28.73-3.12,1.61C219,23.09,217.56,31.2,215.86,39.16Z" transform="translate(0 0)"/><path d="M471.64,50.46c2.07,6.26-.27,8.78-5.55,9.51-4.47.62-8.9,1.58-13.6,1.64C457.52,55.37,465.13,54.09,471.64,50.46Z" transform="translate(0 0)"/></g></svg>