<svg id="Layer_1" data-name="Layer 1" xmlns="http://www.w3.org/2000/svg" viewBox="0 0 550 120"><defs><style>.cls-1{fill:#f4f2f2;}</style></defs><title>captacha4</title><rect class="cls-1" width="550" height="120"/><path d="M114.82,44.74c3.12-.29,6.24-.93,9.34-.8s6,1,9.48,1.68c.61-3.52,1.3-7.15,1.83-10.8.39-2.7.61-5.43.81-8.15.11-1.6.34-2.85,2.41-2.73s2,1.49,1.82,2.91c-.75,6-1.43,12-2.38,17.94-.32,2,.11,2.8,2,3.41,6.06,2,12,4.28,18.13,6.12,2.41.72,5.08.55,7.64.76.67.06,1.35,0,2,0l.29.68c-.66.48-1.3,1.31-2,1.36-2.68.23-5.57.86-8,.15-6.12-1.75-12-4.16-18.06-6.31l-2.81-1c-.61,9.25-1.12,18.16,4.33,26.07,3.28,4.74,7.58,5.89,12.45,2.66a73.59,73.59,0,0,0,10.67-9c2.27-2.23,4.33-3.7,7.53-2.2a1.62,1.62,0,0,0,2.43-1.31,8.33,8.33,0,0,0,0-4c-3.35-9.59-3.37-19.49-3.07-29.44.06-2.16.1-4.32.09-6.47,0-1.54.86-2,2.21-2s2,.57,2,2.11c0,7.33-.14,14.69.36,22,.27,4,1.69,8,2.61,11.94.21.91.59,1.79.73,2.7.93,5.91-2.51,9.2-8.35,7.81-1.5-.36-2.08.5-2.92,1.21-3.57,3-7,6.24-10.75,8.92-4.35,3.06-9.26,4.46-14.41,1.86-4.19-2.12-6.62-5.88-8.25-10.13-2.7-7-3.07-14.32-2.25-21.68.24-2.13,0-3-2.35-3.41-5.18-.95-10.34-1.59-15.59-.76Z"/><path d="M370.85,21.63c3.14,1.39,3.45,4.58,4.3,7.29.23.73-1.1,2-1.88,3.23,6.24,3.76,7.87,10.22,8.1,17.07.31,9.61.17,19.23.2,28.85a11.32,11.32,0,0,1-.3,1.69c-1.23,7.42-7.11,7.94-12.42,5.41-4.76-2.27-7.43-6.85-10.47-10.93-.23-.32-.31-1.14-.1-1.32.42-.38,1.2-.81,1.63-.65a8.56,8.56,0,0,1,2.9,1.71c1.28,1.25,2.32,2.74,3.52,4.07a27.36,27.36,0,0,0,3,3.06c3.79,3,6.76,2,7.66-2.71a40.36,40.36,0,0,0,.77-6.84c.08-5.32,0-10.64-.08-16,0-1.2-.18-2.39-.27-3.6-2.82,1.65-5.39,3.35-8.13,4.7A21.55,21.55,0,0,1,357,58.83c-1.38-.17-2.33-.71-2.07-2.5a14.54,14.54,0,0,1,1.6-.19c7.62,0,13.88-3.15,19.23-8.33a3.09,3.09,0,0,0,.76-2.23c-.49-5.56-3.47-9.42-8.31-12a13,13,0,0,1-3.31-2.32c-3.25-3.46-2.5-7.53,1.66-9.62Zm.87,6.37c-1.16-.87-.27-3.21-2.6-3.08a3.45,3.45,0,0,0-.38,2.21C369.1,28.51,369.94,29.42,371.72,28Z"/><path d="M226.63,81.37c3.26-3.43,6.28-7.07,9.8-10.15,2.15-1.89,5-3.1,7.65-4.28a5.17,5.17,0,0,1,5.83.88,2.55,2.55,0,0,1,.63,2c-.07.34-1.3.82-1.79.64-3.85-1.39-6.47.91-9.11,3A31.81,31.81,0,0,0,231,83.78a32.16,32.16,0,0,0,3.58-.93c12.14-4.93,20.56-13.17,23.26-26.45.52-2.6,1-5.21,1.45-7.84.21-1.35.67-2.29,2.17-2.51a2.33,2.33,0,0,1,2.77,1.78c1.25,3.21,2.54,6.41,3.77,9.63.41,1.08.88,2.31-.62,2.95s-2.43-.34-3-1.62c-.9-2.08-1.72-4.19-2.87-6.34-1,18.63-11.64,29.09-28.38,34.55.14.24.21.48.37.58,6.95,4.46,13.82,9.06,21.79,11.58,7,2.2,9.6.27,10-7,.11-2,0-3.55-2.48-3.78-.35,0-.66-.43-1-.66.16-.23.22-.4.32-.45,1-.42,2.49-.56,2.85-1.29s0-2.23-.23-3.36c-.45-2.53-1-5.06-1.49-7.7l-2.66.19c2.76-3.45,5.53-6.2,9.4-7.47,1.63-.54,3.52-.64,4.74,1a4.83,4.83,0,0,1,.19,5.49c-1.42,2.58-4,3.32-6.74,4.1.5,2.92,1,5.78,1.41,8.25,2.53,1.14,4.76,2.5,7.18,3.16a23,23,0,0,0,8,.9c3.56-.34,5.76-3.57,5.91-7.64.19-5.12-1.85-9.6-4.47-13.75-2-3.2-4.61-6-6.88-9.06a10.67,10.67,0,0,1-1-2.19c.8-.16,1.74-.68,2.38-.42a9.16,9.16,0,0,1,3.53,2.21,51,51,0,0,1,9.43,15.6c.39,1,.59,1.82,2.11,1.87,1,0,1.9,1.29,2.83,2,1.94,1.54,3.7,3.43,5.86,4.56,2.69,1.42,4.48.41,5.42-2.52,2-6.27.76-12.27-1.89-18a58.19,58.19,0,0,0-4.8-7.9,3.22,3.22,0,0,0-2.07-1c-3.24-.49-6.57-.61-9.74-1.37-3.88-.93-5.73-4.07-6.85-7.66-.51-1.63-1.13-3-2.9-3.74-1.38-.56-1-3,.47-4.07,2.46-1.71,3.71-1.57,5.92.46a7,7,0,0,0,2.36,1.42c1.93.66,4,.73,5.29-1.08s.43-3.42-1.14-4.88a4.84,4.84,0,0,1,5-1.15c1.74.67,1.83,2.47,1.76,4.07-.18,4.28-.22,8.46,2.18,12.32,1,1.55,2,2.22,3.64,1.55,3.44-1.37,6.86-2.8,10.26-4.19-.32-1-.78-1.62-.63-2,1.54-4.31-.36-8-2-11.79-.59-1.39-1.37-2.69-2-4.06-.51-1.1-.82-2.33.6-3a2.35,2.35,0,0,1,3.44,1.16,56.4,56.4,0,0,1,5.28,17c1.42,11.91,3,23.8,4.5,35.71.06.42.11.85.13,1.28.09,1.5.17,3-2,3.1s-2.57-1-2.67-2.81c-.21-3.73-.38-7.48-.85-11.18-.86-6.76-1.92-13.5-2.87-20.12l-11.3,4.56c1.1,1.81,2.26,3.68,3.38,5.58,3.85,6.54,5.6,13.51,4,21.09-1.55,7.37-7.45,9.68-13.72,5.36-1.69-1.16-3.22-2.54-5-4a7.73,7.73,0,0,0-.33,1.18c-.74,9.82-8.46,11.91-14.75,11.22a33.93,33.93,0,0,1-6.15-1.81c-1.53-.49-3.06-1-4.67-1.55-.44,2.4-.72,4.46-1.22,6.47-1.05,4.28-3.66,6.27-8.1,6.17a27.88,27.88,0,0,1-12.91-3.77c-6.34-3.49-12.56-7.2-19.06-11a10.58,10.58,0,0,0-.74,1.32,50.69,50.69,0,0,0-3.88,16.07c-.14,1.85-.82,2.82-2.8,2.61s-2.28-1.45-2-3.06c1-6.55,1.81-13.15,5.46-18.9.69-1.09.23-1.66-.46-2.39A10.13,10.13,0,0,1,221,77.39c0-2,1.13-2.88,3-2.92,1.32,0,2.28.26,1.55,2C224.66,78.57,225.71,80.24,226.63,81.37ZM300,51.23c-1.24-2.66-2.41-5.16-3.51-7.53l-7.47.41C288.66,48.64,294.07,51.4,300,51.23ZM272.06,71.08c-.32-.29-1.2-1.47-1.57-1.33A7.46,7.46,0,0,0,267.24,72c-.94,1.26.06,3.37,1.28,3.32C270.06,75.22,272,73.27,272.06,71.08Z"/><path d="M208,60.46c0,3.81-2.35,6.41-5.75,6.42-3.63,0-6.27-2.86-6.21-6.76a5.8,5.8,0,0,1,6.14-6C205.55,54.05,208,56.77,208,60.46ZM199.42,60l2.46,3.22c.76-.89,1.9-1.68,2.18-2.7a1.94,1.94,0,0,0-1.93-2.65C201.32,58,200.59,59.05,199.42,60Z"/></svg>