<svg id="Layer_1" data-name="Layer 1" xmlns="http://www.w3.org/2000/svg" viewBox="0 0 550 120"><defs><style>.cls-1{fill:#f4f2f2;}</style></defs><title>captacha2</title><rect class="cls-1" width="550" height="120"/><g id="_2" data-name="2"><path d="M224.75,80.69a14.75,14.75,0,0,1,2.59-.09,24.87,24.87,0,0,1,2.92.83c-.79.77-1.41,1.92-2.4,2.23-2.89.88-5.92,1.42-8.89,2.11a55,55,0,0,1-6.54,1.46c-1.15.11-2.42-.64-3.63-1,.8-.72,1.51-2,2.42-2.07,5.16-.62,7.19-3.36,9-7.19a108.39,108.39,0,0,0,10-32.44c.16-1.1.17-2.21.24-3.28-9-1.83-11.09-3.73-12.16-11.43-3.46,2.42-7.39,4-9.2,7.54-1.44,2.78-1,4.75,1.75,6.68,2.24,1.56,2.34,2.89.13,4.37-6.67,4.45-13.25,9-20.07,13.29-3.34,2.09-6,.88-6.26-2.59-.18-2.57,0-5.16-.76-8-.88,1.52-1.76,3-2.66,4.55q-3.15,5.31-6.34,10.6a2.75,2.75,0,0,1-.89,1.05c-7.06,3.81-7.78,10.79-11.52,16.25-1.33,1.94-1.77,4.32-2.79,7,3-.49,5.2-1,7.47-1.22a20.61,20.61,0,0,1,4.9,0c.82.11,1.5,1,2.24,1.46A9.76,9.76,0,0,1,172.26,92c-5.7,2-11.43,3.86-17.16,5.77-1.33.45-2.64,1-4,1.33-5.19,1.38-8.18.54-11-3.34a36.51,36.51,0,0,1-6.39-30.1c.53-2.53,1.11-5,1.67-7.56l-.71-.44c-1.59,1.34-3.76,2.45-4.67,4.06a113,113,0,0,0-6.29,13.09c-4.44,10.88-9.27,21.61-18.11,30.6-3.52,3.58-7.72,6.67-11.63,10a3.17,3.17,0,0,1-4.38,0,18.56,18.56,0,0,1-3.09-3.5C78.3,99.9,76,87.2,78.66,73.63c1.16-6,1-12.28,1.46-18.56A16,16,0,0,0,66.5,65.71c-1.76,5.53,1.09,10.32,3.71,15.2l-.86.26c-.43-.15-1-.19-1.25-.45-6-6.37-5.71-17.39,1-23a31.43,31.43,0,0,1,7.87-4.38c1.72-.74,2.75-1.33,2.2-3-.65-2-.08-3.35,2.78-3.55s3.42,1,3.32,3a10.6,10.6,0,0,0,.26,1.86c5.83-1.1,11.92.65,17.39-2.19,2.16-1.13,4-.84,5.24,1.35,3.75,6.7,1,17.52-5.78,22.09A37.78,37.78,0,0,1,97,75.26l-.75-.82A27.88,27.88,0,0,1,98.57,72c5.93-5,7.06-10.87,5.2-17.44-.38-1.34-1.07-2-3-1.91-4.3.27-8.63.37-13,.43-1.84,0-2.41.59-2.5,2.14q-.77,13.17-1.78,26.32c-.69,8.85.55,17.38,5.37,25.39,2.08,3.46,3,3.8,6.66,1.26a49,49,0,0,0,8.58-7.37c8.52-9.71,15.64-20,18.44-32.1A20.46,20.46,0,0,1,132,56a5.45,5.45,0,0,0,.86-.73s0-.16,0-.35c-3,.19-6,.47-9.07.5-.88,0-1.77-.71-2.66-1.09a7.36,7.36,0,0,1,2.36-1.27c9-1.06,17.91-2.07,26.88-3,1.8-.18,3.83-.08,3.95,2.49-3.19.33-6.34.55-9.42,1-1,.16-2.36.93-2.57,1.64-3,9.83-5.17,19.78-2,29.86,1,3.26,3.1,6.32,5,9.36.88,1.45,2.3,1.41,4.39.87,4.74-1.24,6.26-3.7,7.22-7.62.93-3.77,3.74-7.21,5.74-10.79.69-1.24,1.48-2.46,2.14-3.72.23-.45.43-1.37.26-1.44-3-1.24-.81-2.8-.29-4.09,2.68-6.66,4.74-13.38,4.43-20.49-.11-2.51,3.56-4.25,6.1-3a1.66,1.66,0,0,1,.74,1.42c-.52,4-1.15,8-1.85,12.68,2.31-3.52,4.06-6.56,6.25-9.35a10,10,0,0,1,4.51-3.16c2.42-.78,3.8.52,3.59,2.71-.26,2.58-.52,5.16-.58,7.74a14.07,14.07,0,0,0,.85,3.37c7.32-3.08,12.58-7.4,17.38-12.14a2,2,0,0,0-.07-2.08c-2.56-3.71-2.39-7.56.66-10.68,3.75-3.83,8.28-7.12,12.59-10.55a3.16,3.16,0,0,1,2.51-.06,2.32,2.32,0,0,1,.86,1.9c0,1.89-.68,3.86-.22,5.65a13.46,13.46,0,0,0,3.12,5.68c.76.82,3,1,4.43.9.59,0,1.3-1.73,1.4-2.71.71-7.11,1.28-14.24,1.93-21.74A37.67,37.67,0,0,1,228.2,15a8.91,8.91,0,0,1-2.91-.83c.68-.61,1.25-1.57,2.08-1.78,4.13-1,8.29-2.06,12.52-2.73,5-.79,10.06-.63,13.49,3.17,3.88,4.3,4.07,9.14,1.54,14-3.25,6.19-9.07,10.07-16.54,12.41-1,.31-2.3,1.36-2.33,2.11-.64,13.28-4.7,25.85-10.79,38C225.07,79.7,225,80.11,224.75,80.69Zm13.49-67.62c-.65,7.89-1.3,15.66-2,23.78a21.87,21.87,0,0,0,2.83-.61c5.67-2.13,9.93-5.48,12-10.45C254.4,18,248.49,12,238.24,13.07Z" transform="translate(0 0)"/><path d="M379.81,100.79l4.55,1.91c-1,1.76-1.61,4.09-3.11,5.18A32.61,32.61,0,0,1,363.1,114a118.15,118.15,0,0,1-12.05-.12c-1.37-.09-2.7-1-4-1.6l.26-1.61c3.25-.32,6.49-.79,9.74-.92,11.9-.47,15.53-3.58,14.42-15.39-2.5-26.39-5.55-52.74-15-77.82-.27-.71-.65-1.37-1.06-2.23a33.29,33.29,0,0,1-5.32.91c-.81,0-1.64-1-2.46-1.48.51-.77.86-2,1.55-2.26,5.87-2,11.77-4,17.75-5.62.95-.27,2.33,1,3.51,1.58C369.6,8.34,369,9.59,368,10a31.32,31.32,0,0,1-5.38,1.51C373.85,40.43,377.07,70.6,379.81,100.79Z" transform="translate(0 0)"/><path d="M405.27,34.67c1.28-4.05,3.86-6.05,8.1-5.64s5.82,3.51,6.95,6.91a26.53,26.53,0,0,1,1.51,7.15c0,1.16-1.35,2.37-2.09,3.55A13.68,13.68,0,0,1,417.51,44c-1.24-2.69-2.09-5.56-3.41-8.2-1.17-2.33-3-2.21-3.92.12-1.89,4.9-4.28,9.84-4.91,15-2.08,16.68-3.47,33.44-5.11,50.17-.3,3-2.72,4.65-5,2.73-1.95-1.64-3.94-4.58-3.92-6.93,0-5.22,1.41-10.43,2.08-15.65,2-15.64,3.95-31.29,6-46.93.24-1.82-.83-4.67,2.29-4.92s2.4,2.72,3,4.5A4.83,4.83,0,0,0,405.27,34.67Z" transform="translate(0 0)"/><path d="M422.37,74.2c1.45-18.51,2.95-37-3-55.18-.12-.36-.39-.75-.34-1.1.2-1.33.5-2.65.76-4,1.36.64,3.59,1,3.95,2,2.46,6.78,5.86,13.59,6.41,20.59,1.06,13.36.58,26.87.32,40.31,0,2.18-1.7,5.44-3.47,6.18s-5.43-.23-6.9-1.76A194.54,194.54,0,0,1,407,65.42c-.45-.58.15-3,.6-3.06,1.13-.26,2.89-.13,3.63.61a116.25,116.25,0,0,1,7.66,8.76,23.26,23.26,0,0,1,2.05,3.66Z" transform="translate(0 0)"/><path d="M320.72,16.28c.72-.54,1.69-1.72,2.89-2.05A3.24,3.24,0,0,1,328,16.81c1.22,5,2,10.21,3.7,15.05C335.73,43,340.13,54,344.56,65c.84,2.08,1.5,4.85,4.92,4.68.34,0,1.38,2.36,1,3.15-.42,1-2.46,2.29-3,2-3.06-1.75-6.67-3.35-8.59-6.06a56.84,56.84,0,0,1-7.58-14.76c-3.79-11.51-6.85-23.25-10.19-34.91C321,18.53,321,17.87,320.72,16.28Z" transform="translate(0 0)"/><path d="M320.72,89.67c-3.35,5.18-8.52,6.4-13.9,6.69C296.07,96.93,287.34,90,285.51,79a58.83,58.83,0,0,1-.25-16.18c1.62-13.7-1.47-19.66-14.15-25.42-1.37-.63-2.7-1.33-4.05-2l.22-1.31c2.11.17,4.43-.17,6.29.59,15.1,6.18,20.69,13,18.46,28.81a56.18,56.18,0,0,0-.68,13.12c1.52,15,8.08,18.43,23,15.4A44.14,44.14,0,0,0,320.72,89.67Z" transform="translate(0 0)"/><path d="M359.11,61.42c0,3.86.09,7.72-.07,11.58,0,1-.88,2-1.36,3-1-.94-2.55-1.73-2.87-2.86a19.06,19.06,0,0,1-.21-5.76c.24-6.18.45-12.36.94-18.53.1-1.23,1.38-2.36,2.12-3.54.75,1.25,2.12,2.49,2.15,3.76.09,4.11-.31,8.23-.53,12.35Z" transform="translate(0 0)"/><path d="M448.52,90c-.54-2-1.1-2.93-.88-3.56.79-2.29,1.28-4.31-1-6.2-.38-.32.25-3,.85-3.14,1.54-.5,3.63-.78,4.94-.09,1,.54,2.05,3,1.63,4C452.81,83.81,450.84,86.33,448.52,90Z" transform="translate(0 0)"/></g></svg>