<?xml version="1.0" encoding="utf-8"?>
<!-- Generator: Adobe Illustrator 24.0.1, SVG Export Plug-In . SVG Version: 6.00 Build 0)  -->
<svg version="1.1" id="Layer_1" xmlns="http://www.w3.org/2000/svg" xmlns:xlink="http://www.w3.org/1999/xlink" x="0px" y="0px"
	 viewBox="0 0 550 120" style="enable-background:new 0 0 550 120;" xml:space="preserve">
<style type="text/css">
	.st0{fill:#DDDDDD;}
</style>
<rect y="0" class="st0" width="550" height="120"/>
<g>
	<g>
		<path d="M248.4,40.2c0.1,2,0.3,3.9,0.3,5.9c0,2.9-0.2,5.7-0.2,8.6c0,2.6,1.2,3.2,3.4,2c7.7-4.1,14.2-9.7,20.6-15.5
			c0.6-0.5,1.2-1.1,1.7-1.6c5.1-4.6,5.7-4.9,12.8-4.9c-0.1-0.9-0.3-1.8-0.4-2.7c-0.3-3.7,0.4-7,3.8-9.2c1.7-1.1,3.5-1.5,5.3-0.3
			c3.1,2,6.3,4,9.3,6.1c2.5,1.7,4.8,3.6,7.3,5.3c0.9,0.6,2,0.9,3,1.3c0.1-0.1,0.3-0.3,0.4-0.4c-0.2-0.7-0.5-1.4-0.7-2.1
			c-0.8-3-1.8-5.9-2.3-8.9c-0.6-3.7-0.5-3.7-4.5-4.4c1.1-0.8,1.9-1.6,2.8-2.1c4.5-2.4,9-4.8,13.5-7.1c4-2,7.3-1.1,9.2,2.9
			c1.5,3.3,2.2,7.1,3.2,10.6c0.3,1,0.5,2.1,0.7,3.3c1.5-0.7,2.6-1.4,3.9-1.7c3-0.8,6-1.7,9-1.8c3.9-0.1,5,2.3,3.3,5.9
			c-0.1,0-0.4,0-0.4-0.1c-0.9-3.1-1.9-4-5.1-3c-3.2,0.9-6.3,2.4-9.3,3.8c-0.4,0.2-0.6,1.6-0.3,2.3c2.5,7.4,3.5,14.9,3,22.7
			c-0.1,0.9-0.3,1.7-0.4,2.6c-0.3,0.1-0.6,0.1-0.9,0.2c-0.5-1.3-1.1-2.6-1.4-4c-1.2-5.6-2.2-11.2-3.4-16.9c-0.3-1.6-0.9-3.1-1.4-4.8
			c-4.4,1.9-8.6,3.6-13.1,5.5c1.7,2.9,3.5,5.9,5.2,8.8c2.7,4.6,4.2,9.4,3.5,14.8c-0.1,0.8-0.1,1.6,0.1,2.4c0.6,3.2,3,4.3,5.5,2.4
			c8.4-6.2,17.9-9.5,28.1-11.4c1-0.2,1.9-0.4,2.5-0.6c-0.7-3.3-1.6-6.4-2.1-9.5c-0.8-5.7-1.2-11.5-2.1-17.3
			c-1.4-9.9-7.2-17.5-18-19.2c-0.5-0.1-0.9-0.2-1.8-0.5c13.9-1.8,22.9,7.9,24.5,19.5c1.2,8.6,2.2,17.2,3.4,25.8
			c0.3,2.4-0.5,3.5-2.6,4c-2,0.5-4,1.1-6,1.5c-7.7,1.5-14.5,4.8-21.1,9c-1.4,0.9-3,1.8-4.5,2.5c-3.8,1.8-8.3-0.8-8.8-5
			c-0.2-1.6,0-3.3,0-4.9c0.1-4.7-1.9-8.7-3.9-12.7c-0.2,0-0.4,0-0.6,0c0,2.1-0.4,4.2,0.1,6.2c1.2,4.4,0,8.3-1.8,12.2
			c-1.9,4.3-3.6,8.6-5.4,12.9c-0.5,1.1-0.6,2.6-2.5,2.4c-1.9-0.2-3.9-0.5-4.3-2.8c-0.7-3.6-1.4-7.2-1.9-10.8c-0.4-2.5-0.5-5-0.6-7.5
			c-0.3-3.7-1.8-6.9-4.4-9.6c-4-4-8-8-12.1-12c-2.4-2.3-7.4-2-10.6,0.6c-2.4,1.9-4.5,4-6.9,5.9c-5.4,4.2-10.9,8.4-16.5,12.5
			c-2,1.5-4.3,2.6-7,2.3c-2-0.2-3.1-1.2-3.4-3.2c-0.1-0.6-0.2-1.3-0.1-1.9c0.8-4.9,1.6-9.7,2.4-14.6
			C247.9,40.2,248.2,40.2,248.4,40.2z M311.7,77.6c0.2-0.1,0.4-0.1,0.6-0.2c2.8-5.5,5.6-10.9,8.3-16.4c0.4-0.8,0.4-1.8,0.4-2.7
			c-0.2-4.3-0.4-8.5-0.8-12.8c-0.3-3.1-2.3-5.4-4.6-7.1c-2.9-2.2-6.5-3.6-9.6-5.6c-3.2-2.1-6.2-4.6-9.4-6.7
			c-2.7-1.8-4.8-1.1-6.1,1.9c-0.9,2.1-1.1,4.3,0,6.2c1.1,1.8,2.3,3.6,3.7,5.2c2.7,2.9,5.5,5.6,8.5,8.2c3.9,3.5,6.5,7.6,6.6,12.9
			c0,1.6,0.3,3.1,0.5,4.7C310.5,69.3,311.1,73.4,311.7,77.6z M319.5,35.4c3.7-1.6,6.7-2.9,9.7-4.3c4.4-2,4.4-2.1,3.6-6.8
			c-0.2-1.1-0.3-2.1-0.6-3.2c-0.6-2.3-1.3-4.6-2.1-6.7c-0.6-1.5-1.8-2.6-3.6-1.7c-3.4,1.6-6.8,3.3-10.3,5c1.3,1.9,1.7,3.5,0.6,5.3
			c-0.3,0.5-0.3,1.4-0.1,2.1C317.6,28.4,318.5,31.7,319.5,35.4z"/>
		<path d="M234.9,89.5c-3.2,0-6.3,0-9.4,0c1.1,2.5,2.3,5.2,3.6,8.1c-0.9,0.2-1.4,0.4-1.7,0.3c-4.9-1.4-8.9,0.8-12.7,3.3
			c-3.2,2.1-6.1,4.6-9.2,6.8c-1.2,0.9-2.6,1.6-3.9,2.2c-7.2,3.5-12.6,1.8-16.4-5.3c-4.4-8.4-5.7-17.4-5.2-26.7
			c0.3-5.2,1.3-10.5,2.7-15.6c1.6-5.7,6.4-8.2,12.1-6.5c2.4,0.7,5,1.9,6.7,3.6c5.7,5.6,9.3,12.4,8.4,20.8c-0.1,0.6-0.1,1.3-0.1,1.9
			c0,0.1,0.1,0.2,0.3,0.8c2.7-4.2,6.6-7.4,6.6-12.8c0-2,0.6-4,1.2-5.9c1.5-4.3,4.7-6.5,9.1-5.8c3.1,0.5,6.1,1.5,9,2.8
			c4.3,1.9,8.6,3,13.2,3.7c4.5,0.6,8.3-0.7,11.5-3.6c6.3-5.6,12.5-11.2,18.5-17c1.5-1.4,2.6-1.8,4.3-0.7c2.3,1.6,4.6,3.2,6.7,5
			c2.6,2.3,3,5.2,1.9,8.5c-2.3,6.5-4.6,13-6.7,19.5c-0.8,2.4-1.2,4.9-1.9,7.3c-0.4,1.3-0.8,2.6-1.6,3.7c-0.5,0.7-1.9,1.7-2.5,1.4
			c-0.8-0.3-1.6-1.6-1.8-2.6c-0.2-1.1,0.1-2.4,0.5-3.6c2.5-6.7,5.1-13.4,7.7-20c0.7-1.9,1.6-3.7,2-5.7c1.2-4.8-0.1-7.6-4.2-10.2
			c-1.2-0.8-1.9-0.6-2.9,0.4c-5.6,5.3-11.3,10.4-16.9,15.6c-5.2,4.7-11.1,6.8-18,4.9c-0.3-0.1-0.7-0.1-1-0.1
			c-1.6,7.5-3.1,15-4.7,22.5c-0.3,1.3-0.6,2.7-1,4c-0.4,1.7-1.8,2.2-3.2,1.7c-0.7-0.2-1.2-1.6-1.3-2.5
			C234.5,92.4,234.8,90.9,234.9,89.5z M192.7,101.8c3-2.2,5.6-3.8,7.9-5.8c1.8-1.6,3.5-3.6,4.7-5.7c2.6-4.7,2.1-9.9,1.7-14.9
			c-0.2-1.9-1-3.9-2-5.6c-1.5-2.7-3.4-5.1-5.3-7.6c-2.1-2.8-5.1-3.4-8.3-3.1c-3,0.3-4.2,2.7-5,5.3c-2.4,8.2-3.1,16.5-1.8,24.9
			c0.9,5.7,2.4,11.2,5.5,16.2c2.3,3.6,4.9,4.6,8.8,3.1c2.8-1.1,5.5-2.8,8-4.5c3.9-2.6,7.7-5.5,11.6-8.2c1.3-0.9,2.8-1.4,4-2
			c-2-4.6-4-9-6.2-14c-3.1,4.1-6.4,7.9-9,12.1c-3.1,5-7.8,7.5-13,9.6C194,101.9,193.6,101.8,192.7,101.8z M240.2,66.3
			c-3.3-1.4-6.8-3.1-10.6-4.3c-3.6-1.2-5.8,0-7,3.4c-2.1,6.3-1.5,12.5,1.1,18.4c1.2,2.8,4.6,4.1,8.1,3.5c2.6-0.4,3.7-1.9,4.3-5.4
			c0.4-2.5,0.8-5,1.4-7.4C238.3,71.8,239.3,69.2,240.2,66.3z"/>
		<path d="M360.8,28c1.5,7.3-10,15.8-17.7,13.3C350.6,38.8,355.5,33.5,360.8,28z"/>
		<path d="M235.5,66.5c2.3,1.6,2.7,3,1.6,5.8C234.9,71.2,234.4,69.5,235.5,66.5z"/>
	</g>
</g>
</svg>
