<svg id="Layer_1" data-name="Layer 1" xmlns="http://www.w3.org/2000/svg" viewBox="0 0 550 120"><defs><style>.cls-1{fill:#fff;}</style></defs><title>captacha9</title><rect class="cls-1" width="550" height="120"/><g id="_9" data-name="9"><path d="M157.2,86.56c9.5-.31,13.66-7.6,19.27-12.77C172.31,82.5,166.31,89,155.87,90.7c4,4.61,8.31,7.45,14.11,8s10.33-2.49,15.05-5.13c-2.88,5-7.05,8.34-12.91,8.49-9.2.24-15.83-4.38-20.82-12.11-4.76,3.46-9.76,6.58-16.09,5.94.34,4.63-4,3.15-6.33,5.73-1.27-14.5-4.19-28-2-41.72-6.33-.47-12.43,5-12.19,11.31.18,4.52.8,9,1.14,13.54.22,2.91.41,5.83.42,8.74,0,12.59-7.78,21.56-20.42,23a12.4,12.4,0,0,1-7.32-1.91c-5.07-3.15-8-8.15-9.85-13.72C73,83.65,72.6,66.57,79.52,49.68c2.13-5.19,5-9.92,10.39-12.49a12,12,0,0,1,11.33.22c3,1.63,5.44,4,5.39,7.78S105,52.12,101,54.25c.24-1.87.56-3.38.61-4.91.11-3.16.94-6.82-2.75-8.54s-7,.26-9,3.08c-2.73,3.79-5.43,7.88-6.86,12.27-4.86,14.94-4.6,29.91,1.51,44.56a19.26,19.26,0,0,0,8.2,9.4c7.9,4.68,15.38,1.49,16.93-7.6a63.79,63.79,0,0,0,.87-14.13c-.54-9.42-1.65-18.81-2.56-28.5,1.72,0,4-2.74,6-.17C118,58.65,122.1,57.8,126,56.48a6,6,0,0,0,2.9-3.26c2-4.85,4.43-9.31,9.3-11.86,1.73-.91,3.61-1.55,6.06-2.58-6.66,8.48-8.57,12.4-9.52,19.67,3.84-5.87,9.35-9.3,16-11.09-7.88,3.94-12.88,10.33-16.07,18.33-.29.72-.81,1.76-1.38,1.88-3.18.65-2.63,3.07-2.63,5.18a28.81,28.81,0,0,0,4,14.4c2.28,4,6.21,5.08,9.52,1.88a28.62,28.62,0,0,0,6.3-9.35c3.72-8.88,5.83-18.39,11-26.75,4.79-7.8,9.18-15.84,13.64-23.84,2.34-4.2,4.46-8.54,7-13.46,2,3.21,2.51,6.17,1.58,9a107.35,107.35,0,0,1-5.33,13.08c-1.78,3.68-4.1,7.12-6.24,10.78,22.43.35,38.43-18.21,31.46-44,.31.11.64.11.73.26,4.89,8.05,11.93,14.09,18.81,20.31,9.71,8.79,10.76,17.73,3.49,28.69-3,4.45-6.34,8.62-9,13.21-1.26,2.15-2.69,6-1.7,7.29,1.82,2.3,5.15.4,7.29-1,3.9-2.57,7.45-5.66,10.37-7.93C228.66,75.78,214.9,86,203.94,79.81c3.44-5.89,7-11.7,10.27-17.69s6.15-12,9.07-18.06c1.63-3.38,1.33-6.86-.12-10.26-2.42-5.65-6.66-9.7-11.75-13.52a18.15,18.15,0,0,0-.69,2.16c-2.88,16-12,26.26-27.83,30.3-4.57,1.17-9.29,1.75-13.91,2.74a3.75,3.75,0,0,0-2.5,1.56c-3,7.53-6,15.1-8.73,22.75C157.05,81.77,157.37,84.1,157.2,86.56Z" transform="translate(0 0)"/><path d="M462.32,21.29c.62,1.07,1.8,2.12,1.65,3-1.42,8.3-2.65,16.63-4.84,24.82-1.17,4.37-3.4,4.84-8.84,3C444.1,50,438.13,47.54,432,45.29c-2.86-1.06-3.22-2.47-2.65-4.78,2.23-8.92,4-17.89,6-26.85.47-2.12-.18-3.34-3.44-3.89s-6.2-1.8-9.74-2.6c6.16,1.26,4.73,4.47,4,7.51C422.12,32.79,418.7,51,410.67,68.5a63.47,63.47,0,0,1-19,23.85c-8.34,6.5-14.79,5.37-20.86-2.4A32.44,32.44,0,0,1,364,68.7a45,45,0,0,1,3.27-16.25c4.12-9.86,9.34-19.48,14.17-29.17A33.66,33.66,0,0,1,384,19.42l1.6.37c-1.95,6.24-3.26,12.64-6,18.69-4.07,9.06-8.63,18-9.22,27.65-.08,1.25-.17,2.5-.33,4.63l10.64-15.05c3.86,5.43,7.84,10,15.42,12.36-14.46-18.95-6.83-37.85-1.23-56.71.72-2.43,1.68-4.81,2.66-7.62-10.35,2.09-16.8,7.14-22.56,12.72A66.28,66.28,0,0,0,356.9,47.53C353,62.16,350.3,77,347.12,91.72a16.44,16.44,0,0,0,0,2.75l12.22-5.91c.78.83,1.62,1.72,2.45,2.62,6.87,7.47,15.71,9.23,26.64,5.11,9.95-3.74,15.51-10.35,20.21-17.47a18.76,18.76,0,0,1,3.54-4.4L405,116.48l5.46.25c7-22,6.31-44.95,16.5-67,7.86,5,15.88,8.71,26,8.87-3.4,4.47-7.49,8.46-9.58,13-3,6.47-4.6,13.3-6.7,20a42.12,42.12,0,0,1-16.59,22.31,4.28,4.28,0,0,0-.9.78c-.12.16-.05.4-.11,1.35,2.66-1.42,5-2.45,7-3.75,9.87-6.47,17.33-14.24,20.72-23.7,4.3-12,12-22.86,19.49-33.82,5.66-8.26,7.36-17.26,8-26.39.22-2.92-1.25-4.82-5.31-5.51C466.74,22.47,464.57,21.83,462.32,21.29Z" transform="translate(0 0)"/><path d="M318,62.66c11.53,22.64-3.26,47.48-28.94,51.07.45-3.16.79-6.23,1.33-9.26,3-16.75-2.41-30.94-13.43-43.25-6-6.75-12.6-13-18.83-19.62-6.64-7-11.43-14.83-10.3-25,.84-7.64,5.32-11.13,13-10.19,8.49,1,14.92,5.77,20.59,11.67,6,6.19,9.51,13.81,12.9,22.7-6.3-6.16-11.74-11.6-17.32-16.91-2.18-2.07-4.38-4.62-7.06-5.52a15.09,15.09,0,0,0-9.35,0c-3.3,1.23-3.41,5.19-2.21,7.93,2.2,5,4.58,10.25,8,14.47,5.7,7,12.44,13.16,18.49,19.91,9,10.06,14.51,21.57,14.37,35.47-.07,7,2.78,8.35,8.9,4.76,9.23-5.43,13.94-18,11.43-30.76C319.15,67.61,318.57,65.14,318,62.66Z" transform="translate(0 0)"/></g></svg>