<svg id="Layer_1" data-name="Layer 1" xmlns="http://www.w3.org/2000/svg" viewBox="0 0 550 120"><defs><style>.cls-1{fill:#f4f2f2;}</style></defs><title>captacha1</title><rect class="cls-1" width="550" height="120"/><path d="M237.45,40.79c.12,2,.34,3.94.34,5.91,0,2.86-.24,5.73-.19,8.59.05,2.58,1.19,3.19,3.42,2,7.66-4.09,14.17-9.72,20.56-15.52.58-.53,1.15-1.07,1.74-1.6,5.14-4.65,5.68-4.86,12.79-4.86-.13-.91-.28-1.78-.36-2.66-.35-3.72.4-7,3.82-9.17,1.69-1.06,3.49-1.45,5.27-.32,3.14,2,6.26,4,9.32,6.12,2.48,1.7,4.83,3.6,7.31,5.3a17,17,0,0,0,3,1.33l.38-.42c-.25-.7-.55-1.39-.74-2.1-.79-3-1.76-5.91-2.28-8.93-.63-3.67-.46-3.7-4.45-4.43a25.92,25.92,0,0,1,2.83-2.09c4.48-2.41,9-4.83,13.52-7.1,4-2,7.3-1.13,9.17,2.94,1.53,3.33,2.18,7.07,3.18,10.63.28,1,.45,2.06.73,3.35a26.72,26.72,0,0,1,3.9-1.71c3-.75,6-1.74,9-1.83,3.89-.12,5,2.26,3.33,5.91-.13,0-.36-.05-.38-.12-.86-3.09-1.93-4-5.08-3a65.41,65.41,0,0,0-9.33,3.8c-.41.19-.57,1.64-.34,2.33a60,60,0,0,1,3,22.67,25.93,25.93,0,0,1-.41,2.62l-.86.17a32.63,32.63,0,0,1-1.38-4C327.06,49,326,43.37,324.82,37.76c-.33-1.59-.91-3.13-1.39-4.76l-13.05,5.51c1.73,2.94,3.45,5.88,5.21,8.81,2.73,4.56,4.24,9.39,3.54,14.76a7.47,7.47,0,0,0,.06,2.36c.61,3.2,3,4.27,5.53,2.41,8.38-6.21,17.93-9.51,28.06-11.42,1-.18,1.92-.43,2.52-.57-.74-3.31-1.64-6.38-2.08-9.52-.82-5.75-1.23-11.55-2.06-17.29-1.45-9.93-7.22-17.51-18-19.16a17.73,17.73,0,0,1-1.81-.49c13.89-1.78,22.9,7.92,24.45,19.49,1.16,8.59,2.15,17.21,3.38,25.79.34,2.36-.53,3.49-2.64,4s-4,1.15-6,1.55a60.9,60.9,0,0,0-21.07,8.95,39.05,39.05,0,0,1-4.54,2.47,6.27,6.27,0,0,1-8.8-5,37,37,0,0,1,0-4.94c.1-4.69-1.88-8.71-3.87-12.73l-.57,0c0,2.06-.44,4.24.09,6.16,1.23,4.43,0,8.3-1.76,12.23-1.9,4.26-3.58,8.61-5.39,12.9-.47,1.12-.63,2.64-2.48,2.43s-3.87-.5-4.33-2.78c-.73-3.58-1.37-7.18-1.89-10.79-.35-2.48-.46-5-.64-7.49a14.59,14.59,0,0,0-4.39-9.56c-4-4-8-8-12.07-12-2.35-2.27-7.37-2-10.56.57-2.35,1.88-4.49,4-6.86,5.87-5.44,4.23-10.92,8.4-16.47,12.46a10,10,0,0,1-7,2.34,3.41,3.41,0,0,1-3.42-3.22,6.92,6.92,0,0,1-.12-1.92c.77-4.86,1.59-9.71,2.39-14.56Zm63.3,37.36.61-.2c2.76-5.47,5.56-10.93,8.26-16.44a5.75,5.75,0,0,0,.4-2.71c-.2-4.27-.39-8.54-.78-12.8-.29-3.08-2.32-5.43-4.57-7.13-2.94-2.2-6.48-3.59-9.58-5.6s-6.24-4.57-9.45-6.73c-2.65-1.78-4.82-1.05-6.11,1.91a6.75,6.75,0,0,0,0,6.23,26.93,26.93,0,0,0,3.75,5.18c2.7,2.86,5.53,5.62,8.49,8.22,3.93,3.48,6.49,7.55,6.64,12.94a41.42,41.42,0,0,0,.51,4.7C299.54,69.86,300.15,74,300.75,78.15ZM308.56,36c3.66-1.61,6.69-2.89,9.67-4.27,4.38-2,4.36-2.06,3.59-6.76a28,28,0,0,0-.55-3.17c-.63-2.27-1.25-4.56-2.1-6.75-.59-1.53-1.81-2.55-3.58-1.73-3.41,1.59-6.77,3.3-10.32,5,1.27,1.9,1.71,3.5.59,5.29a3,3,0,0,0-.1,2.1C306.6,29,307.54,32.29,308.56,36Z"/><path d="M223.94,90.08h-9.38l3.63,8.12c-.92.16-1.37.37-1.72.27-4.91-1.39-8.91.8-12.72,3.34-3.16,2.1-6.08,4.56-9.17,6.77a27.53,27.53,0,0,1-3.91,2.25c-7.22,3.5-12.64,1.81-16.39-5.26-4.43-8.35-5.69-17.45-5.18-26.7a75.19,75.19,0,0,1,2.7-15.59c1.57-5.72,6.4-8.18,12.13-6.52a16,16,0,0,1,6.72,3.58c5.75,5.64,9.28,12.37,8.4,20.77-.07.64-.11,1.28-.14,1.93a3.68,3.68,0,0,0,.34.76c2.72-4.18,6.55-7.38,6.63-12.78a19.6,19.6,0,0,1,1.23-5.86c1.46-4.27,4.66-6.48,9.12-5.81a35.3,35.3,0,0,1,9,2.76,48.69,48.69,0,0,0,13.21,3.66A13.77,13.77,0,0,0,250,62.2q9.41-8.36,18.55-17c1.46-1.39,2.62-1.85,4.25-.66,2.26,1.63,4.61,3.16,6.7,5,2.63,2.28,3,5.24,1.86,8.45-2.27,6.5-4.56,13-6.74,19.51-.8,2.37-1.23,4.86-1.95,7.26a12.45,12.45,0,0,1-1.6,3.71c-.55.75-1.94,1.66-2.53,1.43a3.79,3.79,0,0,1-1.82-2.56,7.09,7.09,0,0,1,.52-3.55c2.51-6.71,5.13-13.37,7.7-20a48.85,48.85,0,0,0,2-5.65c1.19-4.77-.08-7.57-4.21-10.21-1.19-.75-1.92-.57-3,.4-5.59,5.26-11.26,10.43-16.92,15.61-5.16,4.7-11.06,6.77-18,4.93a7.23,7.23,0,0,0-1-.12c-1.58,7.54-3.14,15-4.71,22.48q-.43,2-1,4A2.28,2.28,0,0,1,225,96.81c-.67-.24-1.22-1.57-1.31-2.45A23.92,23.92,0,0,1,223.94,90.08ZM181.7,102.4c3-2.15,5.65-3.76,7.93-5.78a22.77,22.77,0,0,0,4.71-5.69c2.6-4.66,2.14-9.86,1.66-14.91a14,14,0,0,0-2-5.6,80.28,80.28,0,0,0-5.27-7.59c-2.07-2.75-5.08-3.4-8.28-3-3,.34-4.22,2.69-5,5.28A57.27,57.27,0,0,0,173.7,90c.87,5.69,2.36,11.24,5.47,16.18,2.26,3.59,4.88,4.64,8.81,3.08a44.5,44.5,0,0,0,8-4.45c3.94-2.61,7.69-5.51,11.59-8.18a31.53,31.53,0,0,1,4-2l-6.23-14c-3.1,4.14-6.36,8-9,12.14-3.13,5-7.85,7.53-13,9.63A6.24,6.24,0,0,1,181.7,102.4Zm47.55-35.52c-3.3-1.37-6.85-3.1-10.57-4.32s-5.79,0-7,3.41a24.65,24.65,0,0,0,1.15,18.42c1.24,2.8,4.65,4.08,8.11,3.47,2.56-.45,3.66-1.89,4.27-5.43.43-2.47.79-5,1.42-7.38C227.35,72.38,228.31,69.79,229.25,66.88Z"/><path d="M349.89,28.61c1.54,7.35-10,15.77-17.68,13.27C339.6,39.36,344.54,34.11,349.89,28.61Z"/><path d="M224.58,67.09c2.31,1.58,2.67,3,1.61,5.79C223.91,71.77,223.42,70.09,224.58,67.09Z"/></svg>