<svg width="41" height="41" viewBox="0 0 41 41" fill="none" xmlns="http://www.w3.org/2000/svg">
<path d="M28.1875 14.7429C27.4871 14.7429 26.9062 14.1621 26.9062 13.4617V11.1042C26.9062 9.31042 26.1375 7.56792 24.805 6.355C23.4554 5.125 21.7129 4.56125 19.8679 4.73209C16.7929 5.0225 14.0938 8.16584 14.0938 11.4458V13.1029C14.0938 13.8033 13.5129 14.3842 12.8125 14.3842C12.1121 14.3842 11.5312 13.8033 11.5312 13.1029V11.4288C11.5312 6.83334 15.2383 2.59667 19.6287 2.16959C22.1912 1.93042 24.6512 2.73334 26.5304 4.45875C28.3925 6.15 29.4688 8.57584 29.4688 11.1042V13.4617C29.4688 14.1621 28.8879 14.7429 28.1875 14.7429Z" fill="#0C0D12"/>
<path d="M25.6251 38.8646H15.3751C7.48256 38.8646 6.01339 35.1917 5.63756 31.6213L4.35631 21.3884C4.16839 19.5434 4.10006 16.8954 5.89381 14.9138C7.43131 13.2054 9.97672 12.3854 13.6667 12.3854H27.3334C31.0405 12.3854 33.5859 13.2225 35.1063 14.9138C36.883 16.8954 36.8317 19.5434 36.6438 21.3542L35.3626 31.6213C34.9867 35.1917 33.5176 38.8646 25.6251 38.8646ZM13.6667 14.9479C10.7796 14.9479 8.79797 15.5117 7.79006 16.6392C6.95297 17.5617 6.67964 18.9796 6.90172 21.0979L8.18297 31.3309C8.47339 34.0642 9.22506 36.3192 15.3751 36.3192H25.6251C31.7751 36.3192 32.5267 34.0813 32.8171 31.365L34.0984 21.0979C34.3205 19.0138 34.0471 17.5959 33.2101 16.6563C32.2021 15.5117 30.2205 14.9479 27.3334 14.9479H13.6667Z" fill="#0C0D12"/>
<path d="M26.3425 22.4646C25.3858 22.4646 24.6171 21.6958 24.6171 20.7562C24.6171 19.8167 25.3858 19.0479 26.3254 19.0479C27.265 19.0479 28.0337 19.8167 28.0337 20.7562C28.0337 21.6958 27.2821 22.4646 26.3425 22.4646Z" fill="#0C0D12"/>
<path d="M14.3841 22.4646C13.4274 22.4646 12.6587 21.6958 12.6587 20.7562C12.6587 19.8167 13.4274 19.0479 14.367 19.0479C15.3066 19.0479 16.0754 19.8167 16.0754 20.7562C16.0754 21.6958 15.3237 22.4646 14.3841 22.4646Z" fill="#0C0D12"/>
</svg>
