<svg width="32" height="32" viewBox="0 0 32 32" fill="none" xmlns="http://www.w3.org/2000/svg">
<circle cx="16" cy="16" r="16" fill="black"/>
<path d="M8.99997 11.2C8.99997 10.6165 9.23176 10.0569 9.64434 9.64437C10.0569 9.23179 10.6165 9 11.2 9H12.2C12.7809 8.99967 13.3381 8.76961 13.75 8.36L14.45 7.66C14.6544 7.4544 14.8975 7.29125 15.1652 7.17991C15.4329 7.06858 15.72 7.01126 16.01 7.01126C16.2999 7.01126 16.587 7.06858 16.8547 7.17991C17.1225 7.29125 17.3655 7.4544 17.57 7.66L18.27 8.36C18.6819 8.76961 19.2391 8.99967 19.82 9H20.82C21.4034 9 21.963 9.23179 22.3756 9.64437C22.7882 10.0569 23.02 10.6165 23.02 11.2V12.2C23.0203 12.7809 23.2504 13.3381 23.66 13.75L24.36 14.45C24.5656 14.6545 24.7287 14.8975 24.8401 15.1652C24.9514 15.433 25.0087 15.7201 25.0087 16.01C25.0087 16.3 24.9514 16.587 24.8401 16.8548C24.7287 17.1225 24.5656 17.3656 24.36 17.57L23.66 18.27C23.2504 18.6819 23.0203 19.2391 23.02 19.82V20.82C23.02 21.4035 22.7882 21.9631 22.3756 22.3756C21.963 22.7882 21.4034 23.02 20.82 23.02H19.82C19.2391 23.0203 18.6819 23.2504 18.27 23.66L17.57 24.36C17.3655 24.5656 17.1225 24.7288 16.8547 24.8401C16.587 24.9514 16.2999 25.0087 16.01 25.0087C15.72 25.0087 15.4329 24.9514 15.1652 24.8401C14.8975 24.7288 14.6544 24.5656 14.45 24.36L13.75 23.66C13.3381 23.2504 12.7809 23.0203 12.2 23.02H11.2C10.6165 23.02 10.0569 22.7882 9.64434 22.3756C9.23176 21.9631 8.99997 21.4035 8.99997 20.82V19.82C8.99964 19.2391 8.76957 18.6819 8.35997 18.27L7.65997 17.57C7.45437 17.3656 7.29121 17.1225 7.17988 16.8548C7.06855 16.587 7.01123 16.3 7.01123 16.01C7.01123 15.7201 7.06855 15.433 7.17988 15.1652C7.29121 14.8975 7.45437 14.6545 7.65997 14.45L8.35997 13.75C8.76957 13.3381 8.99964 12.7809 8.99997 12.2V11.2Z" fill="white"/>
<path d="M8.99997 11.2C8.99997 10.6165 9.23176 10.0569 9.64434 9.64437C10.0569 9.23179 10.6165 9 11.2 9H12.2C12.7809 8.99967 13.3381 8.76961 13.75 8.36L14.45 7.66C14.6544 7.4544 14.8975 7.29125 15.1652 7.17991C15.4329 7.06858 15.72 7.01126 16.01 7.01126C16.2999 7.01126 16.587 7.06858 16.8547 7.17991C17.1225 7.29125 17.3655 7.4544 17.57 7.66L18.27 8.36C18.6819 8.76961 19.2391 8.99967 19.82 9H20.82C21.4034 9 21.963 9.23179 22.3756 9.64437C22.7882 10.0569 23.02 10.6165 23.02 11.2V12.2C23.0203 12.7809 23.2504 13.3381 23.66 13.75L24.36 14.45C24.5656 14.6545 24.7287 14.8975 24.8401 15.1652C24.9514 15.433 25.0087 15.7201 25.0087 16.01C25.0087 16.3 24.9514 16.587 24.8401 16.8548C24.7287 17.1225 24.5656 17.3656 24.36 17.57L23.66 18.27C23.2504 18.6819 23.0203 19.2391 23.02 19.82V20.82C23.02 21.4035 22.7882 21.9631 22.3756 22.3756C21.963 22.7882 21.4034 23.02 20.82 23.02H19.82C19.2391 23.0203 18.6819 23.2504 18.27 23.66L17.57 24.36C17.3655 24.5656 17.1225 24.7288 16.8547 24.8401C16.587 24.9514 16.2999 25.0087 16.01 25.0087C15.72 25.0087 15.4329 24.9514 15.1652 24.8401C14.8975 24.7288 14.6544 24.5656 14.45 24.36L13.75 23.66C13.3381 23.2504 12.7809 23.0203 12.2 23.02H11.2C10.6165 23.02 10.0569 22.7882 9.64434 22.3756C9.23176 21.9631 8.99997 21.4035 8.99997 20.82V19.82C8.99964 19.2391 8.76957 18.6819 8.35997 18.27L7.65997 17.57C7.45437 17.3656 7.29121 17.1225 7.17988 16.8548C7.06855 16.587 7.01123 16.3 7.01123 16.01C7.01123 15.7201 7.06855 15.433 7.17988 15.1652C7.29121 14.8975 7.45437 14.6545 7.65997 14.45L8.35997 13.75C8.76957 13.3381 8.99964 12.7809 8.99997 12.2V11.2" stroke="white" stroke-linecap="round" stroke-linejoin="round"/>
<path d="M13 19L19 13" stroke="black" stroke-width="1.5" stroke-linecap="round" stroke-linejoin="round"/>
<path d="M13.5 14C13.7761 14 14 13.7761 14 13.5C14 13.2239 13.7761 13 13.5 13C13.2239 13 13 13.2239 13 13.5C13 13.7761 13.2239 14 13.5 14Z" fill="black" stroke="black" stroke-width="1.5" stroke-linecap="round" stroke-linejoin="round"/>
<path d="M18.5 19C18.7761 19 19 18.7761 19 18.5C19 18.2239 18.7761 18 18.5 18C18.2239 18 18 18.2239 18 18.5C18 18.7761 18.2239 19 18.5 19Z" fill="black" stroke="black" stroke-width="1.5" stroke-linecap="round" stroke-linejoin="round"/>
</svg>
