<svg width="92" height="24" viewBox="0 0 92 24" fill="none" xmlns="http://www.w3.org/2000/svg">
<g clip-path="url(#clip0_684_10)">
<path d="M34.6629 4.90836H29.6439C29.3005 4.90836 29.0084 5.15563 28.9548 5.49163L26.9249 18.2458C26.8846 18.4974 27.0813 18.7244 27.3388 18.7244H29.7349C30.0784 18.7244 30.3705 18.4771 30.424 18.1404L30.9715 14.7004C31.0244 14.3636 31.3172 14.1164 31.6599 14.1164H33.2487C36.5548 14.1164 38.4629 12.5309 38.9612 9.38908C39.1857 8.01454 38.9707 6.93454 38.3212 6.17817C37.6079 5.34763 36.3427 4.90836 34.6629 4.90836ZM35.2419 9.56654C34.9674 11.3513 33.5914 11.3513 32.2609 11.3513H31.5036L32.0349 8.01817C32.0664 7.81672 32.2426 7.66836 32.4481 7.66836H32.7952C33.7015 7.66836 34.5565 7.66836 34.9983 8.18036C35.2617 8.48581 35.3424 8.93963 35.2419 9.56654Z" fill="#253B80"/>
<path d="M49.6655 9.50909H47.2621C47.0573 9.50909 46.8805 9.65746 46.8489 9.85891L46.7425 10.5251L46.5744 10.2836C46.0541 9.53528 44.8939 9.2851 43.7358 9.2851C41.0799 9.2851 38.8115 11.2785 38.3698 14.0749C38.14 15.4698 38.4666 16.8036 39.2651 17.7338C39.9975 18.5891 41.0454 18.9455 42.2923 18.9455C44.4323 18.9455 45.6189 17.5818 45.6189 17.5818L45.5118 18.2436C45.4714 18.4967 45.6681 18.7236 45.9242 18.7236H48.0891C48.4333 18.7236 48.7239 18.4764 48.7782 18.1396L50.0772 9.98764C50.1183 9.73673 49.9223 9.50909 49.6655 9.50909ZM46.3154 14.1447C46.0835 15.5055 44.9937 16.4189 43.6037 16.4189C42.9058 16.4189 42.3481 16.1971 41.9899 15.7767C41.6347 15.3593 41.4997 14.7651 41.6127 14.1033C41.8292 12.7542 42.9374 11.8109 44.306 11.8109C44.9885 11.8109 45.5433 12.0356 45.9088 12.4596C46.275 12.888 46.4203 13.4858 46.3154 14.1447Z" fill="#253B80"/>
<path d="M62.4656 9.50909H60.0504C59.82 9.50909 59.6035 9.62255 59.4728 9.81237L56.1418 14.6749L54.7298 10.0022C54.641 9.70982 54.3688 9.50909 54.0605 9.50909H51.6872C51.3988 9.50909 51.1984 9.78837 51.2902 10.0575L53.9505 17.7942L51.4494 21.2931C51.2527 21.5687 51.4509 21.9476 51.7907 21.9476H54.2029C54.4319 21.9476 54.6462 21.8371 54.7761 21.6509L62.809 10.16C63.0013 9.88509 62.8039 9.50909 62.4656 9.50909Z" fill="#253B80"/>
<path d="M70.4618 4.90836H65.4422C65.0994 4.90836 64.8074 5.15563 64.7538 5.49163L62.7239 18.2458C62.6835 18.4974 62.8802 18.7244 63.1363 18.7244H65.7122C65.9515 18.7244 66.1562 18.5513 66.1936 18.3156L66.7697 14.7004C66.8226 14.3636 67.1154 14.1164 67.4581 14.1164H69.0462C72.353 14.1164 74.2604 12.5309 74.7594 9.38908C74.9847 8.01454 74.7682 6.93454 74.1187 6.17817C73.4061 5.34763 72.1417 4.90836 70.4618 4.90836ZM71.0409 9.56654C70.7671 11.3513 69.3911 11.3513 68.0599 11.3513H67.3033L67.8353 8.01817C67.8669 7.81672 68.0415 7.66836 68.2477 7.66836H68.5949C69.5005 7.66836 70.3562 7.66836 70.7979 8.18036C71.0614 8.48581 71.1414 8.93963 71.0409 9.56654Z" fill="#179BD7"/>
<path d="M85.4636 9.50909H83.0617C82.8554 9.50909 82.68 9.65746 82.6492 9.85891L82.5428 10.5251L82.374 10.2836C81.8537 9.53528 80.6942 9.2851 79.5361 9.2851C76.8803 9.2851 74.6126 11.2785 74.1708 14.0749C73.9418 15.4698 74.267 16.8036 75.0654 17.7338C75.7993 18.5891 76.8458 18.9455 78.0926 18.9455C80.2326 18.9455 81.4193 17.5818 81.4193 17.5818L81.3121 18.2436C81.2718 18.4967 81.4684 18.7236 81.726 18.7236H83.8902C84.2329 18.7236 84.525 18.4764 84.5786 18.1396L85.8783 9.98764C85.9179 9.73673 85.7212 9.50909 85.4636 9.50909ZM82.1135 14.1447C81.8831 15.5055 80.7918 16.4189 79.4019 16.4189C78.7054 16.4189 78.1462 16.1971 77.7881 15.7767C77.4329 15.3593 77.2993 14.7651 77.4109 14.1033C77.6288 12.7542 78.7355 11.8109 80.1042 11.8109C80.7867 11.8109 81.3415 12.0356 81.7069 12.4596C82.0746 12.888 82.2199 13.4858 82.1135 14.1447Z" fill="#179BD7"/>
<path d="M88.2972 5.25817L86.2372 18.2458C86.1968 18.4974 86.3935 18.7244 86.6496 18.7244H88.7206C89.0648 18.7244 89.3569 18.4771 89.4097 18.1404L91.4411 5.3869C91.4814 5.13526 91.2848 4.90762 91.0286 4.90762H88.7096C88.5049 4.90835 88.3287 5.05671 88.2972 5.25817Z" fill="#179BD7"/>
<path d="M6.08236 21.2029L6.46617 18.7869L5.61121 18.7673H1.52869L4.36583 0.93963C4.37464 0.885811 4.40326 0.83563 4.44509 0.799993C4.48692 0.764357 4.54049 0.74472 4.59627 0.74472H11.48C13.7653 0.74472 15.3423 1.21599 16.1657 2.14618C16.5518 2.58254 16.7976 3.03854 16.9165 3.54036C17.0412 4.0669 17.0435 4.69599 16.9216 5.46327L16.9128 5.51927V6.0109L17.2988 6.22763C17.6239 6.39854 17.8823 6.59417 18.0804 6.81817C18.4107 7.19127 18.6242 7.66545 18.7145 8.22763C18.8077 8.80581 18.7769 9.49381 18.6242 10.2727C18.4481 11.1687 18.1633 11.9491 17.7788 12.5876C17.4251 13.176 16.9745 13.664 16.4395 14.0422C15.9287 14.4014 15.3218 14.6742 14.6356 14.8487C13.9707 15.0204 13.2126 15.1069 12.3812 15.1069H11.8454C11.4624 15.1069 11.0903 15.2436 10.7982 15.4887C10.5054 15.7389 10.3117 16.0807 10.2522 16.4545L10.2118 16.672L9.53375 20.9302L9.50293 21.0865C9.49486 21.136 9.48091 21.1607 9.46036 21.1774C9.44202 21.1927 9.4156 21.2029 9.38991 21.2029H6.08236Z" fill="#253B80"/>
<path d="M17.6642 5.57599C17.6437 5.70617 17.6202 5.83926 17.5938 5.97599C16.686 10.5949 13.5802 12.1905 9.61364 12.1905H7.59402C7.10894 12.1905 6.70017 12.5396 6.62458 13.0138L5.59056 19.5127L5.29774 21.3549C5.24857 21.6662 5.49075 21.9469 5.80778 21.9469H9.38981C9.81398 21.9469 10.1743 21.6414 10.2411 21.2269L10.2763 21.0465L10.9507 16.8051L10.994 16.5724C11.0601 16.1564 11.4212 15.8509 11.8453 15.8509H12.3811C15.8515 15.8509 18.5683 14.4545 19.3624 10.4138C19.6941 8.72581 19.5224 7.31635 18.6447 6.32508C18.379 6.02617 18.0495 5.77817 17.6642 5.57599Z" fill="#179BD7"/>
<path d="M16.7146 5.20072C16.5759 5.16072 16.4328 5.12435 16.286 5.09163C16.1385 5.05963 15.9874 5.03126 15.8318 5.00653C15.2872 4.91926 14.6906 4.87781 14.0514 4.87781H8.65599C8.52316 4.87781 8.39693 4.90763 8.28392 4.96144C8.03513 5.07999 7.8502 5.31344 7.80543 5.59926L6.65766 12.8036L6.62463 13.0138C6.70022 12.5396 7.10899 12.1905 7.59408 12.1905H9.61369C13.5803 12.1905 16.686 10.5942 17.5938 5.97599C17.621 5.83926 17.6437 5.70617 17.6643 5.57599C17.4346 5.45526 17.1858 5.35199 16.9179 5.26399C16.8519 5.24217 16.7836 5.22108 16.7146 5.20072Z" fill="#222D65"/>
<path d="M7.80543 5.59927C7.85019 5.31345 8.03513 5.08 8.28391 4.96218C8.39766 4.90836 8.52315 4.87855 8.65598 4.87855H14.0514C14.6906 4.87855 15.2872 4.92 15.8318 5.00727C15.9874 5.032 16.1385 5.06036 16.286 5.09236C16.4328 5.12509 16.5759 5.16145 16.7146 5.20145C16.7836 5.22182 16.8519 5.24291 16.9186 5.264C17.1865 5.352 17.4353 5.456 17.665 5.576C17.935 3.86909 17.6628 2.70691 16.7315 1.65455C15.7048 0.496 13.8518 0 11.4807 0H4.59694C4.11259 0 3.69942 0.349091 3.62456 0.824L0.757331 18.8349C0.700822 19.1913 0.978226 19.5127 1.34076 19.5127H5.59061L6.65765 12.8036L7.80543 5.59927Z" fill="#253B80"/>
</g>
<defs>
<clipPath id="clip0_684_10">
<rect width="91" height="24" fill="white" transform="translate(0.75)"/>
</clipPath>
</defs>
</svg>
